#N canvas 547 477 582 350 10;
#X obj 51 139 symbol;
#X obj 51 223 list trim;
#X obj 51 115 list split 1;
#X obj 51 198 list append;
#X obj 51 64 inlet;
#X obj 51 248 outlet;
#X text 103 61 OSC-symbol data1 ... dataN;
#X text 47 274 list /sym1 /sym2..../symN data1..dataN;
#X text 23 17 OSCtoList;
#X obj 51 168 symbol2list /;
#X connect 0 0 9 0;
#X connect 1 0 5 0;
#X connect 2 0 0 0;
#X connect 2 1 3 1;
#X connect 3 0 1 0;
#X connect 4 0 2 0;
#X connect 9 0 3 0;
