#N canvas 0 50 450 300 12;
#X obj 103 127 list-nth;
#X msg 68 44 1 2 3 4 5 6 7 8 9;
#X floatatom 103 153 5 0 0 0 - - -;
#X floatatom 173 81 5 0 0 0 - - -;
#X obj 173 106 t b f;
#X obj 204 154 EEG_piano_matching 10;
#X floatatom 355 95 5 0 0 0 - - -;
#X floatatom 204 180 5 0 0 0 - - -;
#X connect 0 0 2 0;
#X connect 1 0 0 0;
#X connect 2 0 5 0;
#X connect 3 0 4 0;
#X connect 4 0 1 0;
#X connect 4 1 0 1;
#X connect 5 0 7 0;
#X connect 6 0 5 1;
