#N canvas 403 106 1164 849 12;
#X obj 41 80 sidebands_EEG;
#X obj 852 154 metro 500;
#X obj 835 121 tgl 15 0 empty empty empty 17 7 0 10 -262144 -1 -1 0
1;
#X obj 871 297 bng 15 250 50 0 empty empty empty 17 7 0 10 -262144
-1 -1;
#X floatatom 879 212 5 0 0 0 - - -, f 5;
#X obj 873 245 euclid 7 0 11;
#X obj 686 272 tgl 15 0 empty empty empty 17 7 0 10 -262144 -1 -1 0
1;
#X obj 686 297 tgl 15 0 empty empty empty 17 7 0 10 -262144 -1 -1 0
1;
#X obj 686 322 tgl 15 0 empty empty empty 17 7 0 10 -262144 -1 -1 0
1;
#X obj 686 346 tgl 15 0 empty empty empty 17 7 0 10 -262144 -1 -1 0
1;
#X obj 686 371 tgl 15 0 empty empty empty 17 7 0 10 -262144 -1 -1 0
1;
#X text 638 269 theta;
#X text 638 293 alpha;
#X text 632 321 lobeta;
#X text 633 344 hibeta;
#X text 638 368 gamma;
#X text 639 246 delta;
#X obj 686 247 tgl 15 0 empty empty empty 17 7 0 10 -262144 -1 -1 0
1;
#X floatatom 912 411 5 0 0 0 - - -, f 5;
#X floatatom 980 410 5 0 0 0 - - -, f 5;
#X obj 923 458 /;
#X obj 914 543 dec2frac;
#X floatatom 923 484 5 0 0 0 - - -, f 5;
#X floatatom 914 569 5 0 0 0 - - -, f 5;
#X floatatom 957 568 5 0 0 0 - - -, f 5;
#X obj 1005 517 round;
#X floatatom 1005 543 5 0 0 0 - - -, f 5;
#X text 602 218 Choice of fundamental;
#X msg 1035 492 0.05;
#X text 591 417 Output euclid: trigger pour env ?;
#X obj 879 186 counter 1 11;
#X floatatom 1021 143 5 0 0 0 - - -, f 5;
#X obj 647 88 r deltapeak;
#N canvas 0 50 1920 976 PeaksManip 0;
#X floatatom 33 -136 5 0 0 0 - - -, f 5;
#X obj 32 -110 /;
#X floatatom 322 154 5 0 0 0 - - -, f 5;
#X obj 32 -69 * 16;
#X obj 35 25 s peakmult;
#X obj 112 156 hradio 15 1 0 6 empty empty empty 0 -8 0 10 -256411
-1 -1 3;
#X obj 220 156 hradio 15 1 0 6 empty empty empty 0 -8 0 10 -249255
-1 -1 2;
#X obj 34 -155 sel_peak;
#X obj 92 -157 sel_peak;
#X text 110 138 Numerator;
#X text 219 138 Denominator;
#X obj 113 192 hradio 15 1 0 7 empty empty empty 0 -8 0 10 -261234
-1 -1 4;
#X obj 114 272 hradio 15 1 0 3 empty empty empty 0 -8 0 10 -262130
-1 -1 0;
#X obj 114 290 hradio 15 1 0 3 empty empty empty 0 -8 0 10 -262130
-1 -1 0;
#X obj 114 308 hradio 15 1 0 3 empty empty empty 0 -8 0 10 -262130
-1 -1 0;
#X obj 114 326 hradio 15 1 0 3 empty empty empty 0 -8 0 10 -262130
-1 -1 0;
#X obj 114 344 hradio 15 1 0 3 empty empty empty 0 -8 0 10 -262130
-1 -1 0;
#X obj 114 362 hradio 15 1 0 3 empty empty empty 0 -8 0 10 -262130
-1 -1 0;
#X obj 32 215 s deltaAVG;
#X obj 31 236 s thetaAVG;
#X obj 219 272 hradio 15 1 0 7 empty empty empty 0 -8 0 10 -261234
-1 -1 6;
#X text 216 250 Number of sub-octaves;
#X obj 32 258 s alphaAVG;
#X obj 26 279 s lobetaAVG;
#X obj 26 300 s hibetaAVG;
#X obj 31 318 s gammaAVG;
#X text 111 251 2 = Z to Ms;
#X text 111 234 1 = Hz to Ms;
#X obj 635 245 s deltasub;
#X obj 489 245 expr (1 * pow (2 \, $f1));
#X obj 219 290 hradio 15 1 0 7 empty empty empty 0 -8 0 10 -261234
-1 -1 6;
#X obj 490 264 expr (1 * pow (2 \, $f1));
#X obj 219 308 hradio 15 1 0 7 empty empty empty 0 -8 0 10 -261234
-1 -1 6;
#X obj 489 282 expr (1 * pow (2 \, $f1));
#X obj 219 326 hradio 15 1 0 7 empty empty empty 0 -8 0 10 -261234
-1 -1 6;
#X obj 490 301 expr (1 * pow (2 \, $f1));
#X obj 219 344 hradio 15 1 0 7 empty empty empty 0 -8 0 10 -261234
-1 -1 6;
#X obj 489 319 expr (1 * pow (2 \, $f1));
#X obj 219 362 hradio 15 1 0 7 empty empty empty 0 -8 0 10 -261234
-1 -1 6;
#X obj 490 338 expr (1 * pow (2 \, $f1));
#X obj 636 264 s thetasub;
#X obj 635 282 s alphasub;
#X obj 636 301 s lobetasub;
#X obj 635 319 s hibetasub;
#X obj 636 338 s gammasub;
#X text 110 117 Peak's Multiplier;
#X obj 251 205 hradio 15 1 1 7 empty empty empty 0 -8 0 10 -203904
-1 -1 2;
#X text 248 173 Oct. val.;
#X floatatom 252 228 5 0 0 0 - - -, f 5;
#X obj 162 -147 expr (1 * pow ($f2 \, $f1));
#X obj 494 136 loadbang;
#X obj 156 -100 t b f;
#X obj 212 66 t b f;
#X floatatom 203 -113 5 0 0 0 - - -, f 5;
#X floatatom 364 205 5 0 0 0 - - -, f 5;
#X text 110 174 N octaves up (0 - 6);
#X msg 34 -28 \$1 10;
#X obj 34 -7 line;
#X msg 448 -79 c = 1200 × log2 (f2 / f1);
#X obj 228 -82 expr if ($f1 == 0 \, 0.618 \, 0) \; if ($f1 == 1 \,
1.618 \, 0) \; if ($f1 == 2 \, 2 \, 0) \; if ($f1 == 3 \, 3 \, 0) \;
if ($f1 == 4 \, 3.1416 \, 0) \; if ($f1 == 5 \, 2.7183 \, 0) \; if
($f1 == 6 \, 2.665 \, 0);
#X obj 167 14 expr $f1 + $f2 + $f3 + $f4 + $f5 + $f6 + $f7;
#X text 248 185 +/- Phi \, 2 \, 3 \, Pi \, e \, Hilbert);
#X text 448 -54 Transpose all the ratios between 1 and 2 to construct
scales;
#N canvas 0 50 958 966 OctaveSubByPeaks 0;
#X obj 144 67 r dpeak;
#X obj 201 67 r tpeak;
#X obj 254 67 r apeak;
#X obj 314 67 r lbpeak;
#X obj 371 64 r hbpeak;
#X obj 431 64 r gpeak;
#N canvas 0 50 450 300 divide 0;
#X obj 93 109 /;
#X obj 69 48 inlet;
#X floatatom 69 69 5 0 0 0 - - -, f 5;
#X obj 139 67 inlet;
#X floatatom 139 88 5 0 0 0 - - -, f 5;
#X obj 93 130 outlet;
#X obj 139 108 t b;
#X connect 0 0 5 0;
#X connect 1 0 2 0;
#X connect 2 0 0 0;
#X connect 3 0 4 0;
#X connect 4 0 0 1;
#X connect 4 0 6 0;
#X connect 6 0 2 0;
#X restore 83 108 pd divide;
#N canvas 0 50 450 300 divide 0;
#X obj 93 109 /;
#X obj 69 48 inlet;
#X floatatom 69 69 5 0 0 0 - - -, f 5;
#X obj 139 67 inlet;
#X floatatom 139 88 5 0 0 0 - - -, f 5;
#X obj 93 130 outlet;
#X obj 139 108 t b;
#X connect 0 0 5 0;
#X connect 1 0 2 0;
#X connect 2 0 0 0;
#X connect 3 0 4 0;
#X connect 4 0 0 1;
#X connect 4 0 6 0;
#X connect 6 0 2 0;
#X restore 147 108 pd divide;
#N canvas 0 50 450 300 divide 0;
#X obj 93 109 /;
#X obj 69 48 inlet;
#X floatatom 69 69 5 0 0 0 - - -, f 5;
#X obj 139 67 inlet;
#X floatatom 139 88 5 0 0 0 - - -, f 5;
#X obj 93 130 outlet;
#X obj 139 108 t b;
#X connect 0 0 5 0;
#X connect 1 0 2 0;
#X connect 2 0 0 0;
#X connect 3 0 4 0;
#X connect 4 0 0 1;
#X connect 4 0 6 0;
#X connect 6 0 2 0;
#X restore 211 109 pd divide;
#N canvas 0 50 450 300 divide 0;
#X obj 93 109 /;
#X obj 69 48 inlet;
#X floatatom 69 69 5 0 0 0 - - -, f 5;
#X obj 139 67 inlet;
#X floatatom 139 88 5 0 0 0 - - -, f 5;
#X obj 93 130 outlet;
#X obj 139 108 t b;
#X connect 0 0 5 0;
#X connect 1 0 2 0;
#X connect 2 0 0 0;
#X connect 3 0 4 0;
#X connect 4 0 0 1;
#X connect 4 0 6 0;
#X connect 6 0 2 0;
#X restore 275 109 pd divide;
#N canvas 0 50 450 300 divide 0;
#X obj 93 109 /;
#X obj 69 48 inlet;
#X floatatom 69 69 5 0 0 0 - - -, f 5;
#X obj 139 67 inlet;
#X floatatom 139 88 5 0 0 0 - - -, f 5;
#X obj 93 130 outlet;
#X obj 139 108 t b;
#X connect 0 0 5 0;
#X connect 1 0 2 0;
#X connect 2 0 0 0;
#X connect 3 0 4 0;
#X connect 4 0 0 1;
#X connect 4 0 6 0;
#X connect 6 0 2 0;
#X restore 339 112 pd divide;
#N canvas 0 50 450 300 divide 0;
#X obj 93 109 /;
#X obj 69 48 inlet;
#X floatatom 69 69 5 0 0 0 - - -, f 5;
#X obj 139 67 inlet;
#X floatatom 139 88 5 0 0 0 - - -, f 5;
#X obj 93 130 outlet;
#X obj 139 108 t b;
#X connect 0 0 5 0;
#X connect 1 0 2 0;
#X connect 2 0 0 0;
#X connect 3 0 4 0;
#X connect 4 0 0 1;
#X connect 4 0 6 0;
#X connect 6 0 2 0;
#X restore 403 112 pd divide;
#N canvas 0 50 450 300 divide 0;
#X obj 93 109 /;
#X obj 69 48 inlet;
#X floatatom 69 69 5 0 0 0 - - -, f 5;
#X obj 139 67 inlet;
#X floatatom 139 88 5 0 0 0 - - -, f 5;
#X obj 93 130 outlet;
#X obj 139 108 t b;
#X connect 0 0 5 0;
#X connect 1 0 2 0;
#X connect 2 0 0 0;
#X connect 3 0 4 0;
#X connect 4 0 0 1;
#X connect 4 0 6 0;
#X connect 6 0 2 0;
#X restore 467 113 pd divide;
#N canvas 196 126 450 300 divide 0;
#X obj 93 109 /;
#X obj 69 48 inlet;
#X floatatom 69 69 5 0 0 0 - - -, f 5;
#X obj 139 67 inlet;
#X floatatom 139 88 5 0 0 0 - - -, f 5;
#X obj 93 130 outlet;
#X obj 139 108 t b;
#X connect 0 0 5 0;
#X connect 1 0 2 0;
#X connect 2 0 0 0;
#X connect 3 0 4 0;
#X connect 4 0 0 1;
#X connect 4 0 6 0;
#X connect 6 0 2 0;
#X restore 531 113 pd divide;
#N canvas 0 50 450 300 divide 0;
#X obj 93 109 /;
#X obj 69 48 inlet;
#X floatatom 69 69 5 0 0 0 - - -, f 5;
#X obj 139 67 inlet;
#X floatatom 139 88 5 0 0 0 - - -, f 5;
#X obj 93 130 outlet;
#X obj 139 108 t b;
#X connect 0 0 5 0;
#X connect 1 0 2 0;
#X connect 2 0 0 0;
#X connect 3 0 4 0;
#X connect 4 0 0 1;
#X connect 4 0 6 0;
#X connect 6 0 2 0;
#X restore 83 147 pd divide;
#N canvas 0 50 450 300 divide 0;
#X obj 93 109 /;
#X obj 69 48 inlet;
#X floatatom 69 69 5 0 0 0 - - -, f 5;
#X obj 139 67 inlet;
#X floatatom 139 88 5 0 0 0 - - -, f 5;
#X obj 93 130 outlet;
#X obj 139 108 t b;
#X connect 0 0 5 0;
#X connect 1 0 2 0;
#X connect 2 0 0 0;
#X connect 3 0 4 0;
#X connect 4 0 0 1;
#X connect 4 0 6 0;
#X connect 6 0 2 0;
#X restore 147 147 pd divide;
#N canvas 0 50 450 300 divide 0;
#X obj 93 109 /;
#X obj 69 48 inlet;
#X floatatom 69 69 5 0 0 0 - - -, f 5;
#X obj 139 67 inlet;
#X floatatom 139 88 5 0 0 0 - - -, f 5;
#X obj 93 130 outlet;
#X obj 139 108 t b;
#X connect 0 0 5 0;
#X connect 1 0 2 0;
#X connect 2 0 0 0;
#X connect 3 0 4 0;
#X connect 4 0 0 1;
#X connect 4 0 6 0;
#X connect 6 0 2 0;
#X restore 211 148 pd divide;
#N canvas 0 50 450 300 divide 0;
#X obj 93 109 /;
#X obj 69 48 inlet;
#X floatatom 69 69 5 0 0 0 - - -, f 5;
#X obj 139 67 inlet;
#X floatatom 139 88 5 0 0 0 - - -, f 5;
#X obj 93 130 outlet;
#X obj 139 108 t b;
#X connect 0 0 5 0;
#X connect 1 0 2 0;
#X connect 2 0 0 0;
#X connect 3 0 4 0;
#X connect 4 0 0 1;
#X connect 4 0 6 0;
#X connect 6 0 2 0;
#X restore 275 148 pd divide;
#N canvas 0 50 450 300 divide 0;
#X obj 93 109 /;
#X obj 69 48 inlet;
#X floatatom 69 69 5 0 0 0 - - -, f 5;
#X obj 139 67 inlet;
#X floatatom 139 88 5 0 0 0 - - -, f 5;
#X obj 93 130 outlet;
#X obj 139 108 t b;
#X connect 0 0 5 0;
#X connect 1 0 2 0;
#X connect 2 0 0 0;
#X connect 3 0 4 0;
#X connect 4 0 0 1;
#X connect 4 0 6 0;
#X connect 6 0 2 0;
#X restore 339 151 pd divide;
#N canvas 0 50 450 300 divide 0;
#X obj 93 109 /;
#X obj 69 48 inlet;
#X floatatom 69 69 5 0 0 0 - - -, f 5;
#X obj 139 67 inlet;
#X floatatom 139 88 5 0 0 0 - - -, f 5;
#X obj 93 130 outlet;
#X obj 139 108 t b;
#X connect 0 0 5 0;
#X connect 1 0 2 0;
#X connect 2 0 0 0;
#X connect 3 0 4 0;
#X connect 4 0 0 1;
#X connect 4 0 6 0;
#X connect 6 0 2 0;
#X restore 403 151 pd divide;
#N canvas 0 50 450 300 divide 0;
#X obj 93 109 /;
#X obj 69 48 inlet;
#X obj 139 52 inlet;
#X obj 93 130 outlet;
#X obj 139 75 t b f;
#X obj 69 71 f;
#X connect 0 0 3 0;
#X connect 1 0 5 0;
#X connect 2 0 4 0;
#X connect 4 0 5 0;
#X connect 4 1 0 1;
#X connect 5 0 0 0;
#X restore 467 152 pd divide;
#X obj 71 127 between1n2;
#X obj 139 127 between1n2;
#X obj 206 128 between1n2;
#X obj 275 128 between1n2;
#X obj 343 131 between1n2;
#X obj 412 131 between1n2;
#X obj 478 132 between1n2;
#X obj 548 132 between1n2;
#X obj 69 171 between1n2;
#X obj 138 171 between1n2;
#X obj 204 172 between1n2;
#X obj 274 172 between1n2;
#X obj 342 175 between1n2;
#X obj 409 176 between1n2;
#X obj 477 176 between1n2;
#X obj 109 250 pack f f f f f f f f f f f f f f f;
#X obj 109 269 list;
#X obj 109 289 list-sort asc;
#X text 161 29 Higher band is divided by lower band Results are reranged
between 1 and 2 and sorted ascendally;
#X obj 243 329 list-nth;
#X floatatom 283 271 5 0 0 0 - - -, f 5;
#X obj 281 290 t b f;
#X obj 229 301 bng 15 250 50 0 empty empty empty 17 7 0 10 -262144
-1 -1;
#X floatatom 251 356 5 0 0 0 - - -, f 5;
#X obj 368 283 inlet nth;
#X obj 250 378 outlet nth;
#X obj 109 308 outlet list;
#X obj 485 274 t b;
#X connect 0 0 6 1;
#X connect 0 0 7 1;
#X connect 0 0 8 1;
#X connect 0 0 9 1;
#X connect 0 0 10 1;
#X connect 1 0 6 0;
#X connect 1 0 11 1;
#X connect 1 0 12 1;
#X connect 1 0 13 1;
#X connect 1 0 14 1;
#X connect 2 0 7 0;
#X connect 2 0 11 0;
#X connect 2 0 15 1;
#X connect 2 0 16 1;
#X connect 2 0 17 1;
#X connect 3 0 8 0;
#X connect 3 0 12 0;
#X connect 3 0 15 0;
#X connect 3 0 18 1;
#X connect 3 0 19 1;
#X connect 4 0 9 0;
#X connect 4 0 13 0;
#X connect 4 0 16 0;
#X connect 4 0 18 0;
#X connect 4 0 20 1;
#X connect 5 0 10 0;
#X connect 5 0 14 0;
#X connect 5 0 17 0;
#X connect 5 0 19 0;
#X connect 5 0 20 0;
#X connect 6 0 21 0;
#X connect 7 0 22 0;
#X connect 8 0 23 0;
#X connect 9 0 24 0;
#X connect 10 0 25 0;
#X connect 11 0 26 0;
#X connect 12 0 27 0;
#X connect 13 0 28 0;
#X connect 14 0 29 0;
#X connect 15 0 30 0;
#X connect 16 0 31 0;
#X connect 17 0 32 0;
#X connect 18 0 33 0;
#X connect 19 0 34 0;
#X connect 20 0 35 0;
#X connect 21 0 36 0;
#X connect 21 0 48 0;
#X connect 22 0 36 1;
#X connect 22 0 48 0;
#X connect 23 0 36 2;
#X connect 23 0 48 0;
#X connect 24 0 36 3;
#X connect 24 0 48 0;
#X connect 25 0 36 4;
#X connect 25 0 48 0;
#X connect 26 0 36 5;
#X connect 26 0 48 0;
#X connect 27 0 36 6;
#X connect 27 0 48 0;
#X connect 28 0 36 7;
#X connect 28 0 48 0;
#X connect 29 0 36 8;
#X connect 29 0 48 0;
#X connect 30 0 36 9;
#X connect 30 0 48 0;
#X connect 31 0 36 10;
#X connect 31 0 48 0;
#X connect 32 0 36 11;
#X connect 32 0 48 0;
#X connect 33 0 36 12;
#X connect 33 0 48 0;
#X connect 34 0 36 13;
#X connect 34 0 48 0;
#X connect 35 0 36 14;
#X connect 35 0 48 0;
#X connect 36 0 37 0;
#X connect 37 0 38 0;
#X connect 38 0 40 0;
#X connect 38 0 47 0;
#X connect 40 0 44 0;
#X connect 41 0 42 0;
#X connect 42 0 21 0;
#X connect 42 0 29 0;
#X connect 42 0 27 0;
#X connect 42 0 26 0;
#X connect 42 0 25 0;
#X connect 42 0 24 0;
#X connect 42 0 23 0;
#X connect 42 0 22 0;
#X connect 42 0 35 0;
#X connect 42 0 34 0;
#X connect 42 0 33 0;
#X connect 42 0 32 0;
#X connect 42 0 31 0;
#X connect 42 0 30 0;
#X connect 42 1 40 1;
#X connect 43 0 40 0;
#X connect 44 0 46 0;
#X connect 45 0 41 0;
#X connect 48 0 36 0;
#X restore 451 9 pd OctaveSubByPeaks;
#X floatatom 452 -19 5 0 0 0 - - -, f 5;
#X floatatom 563 30 5 0 0 0 - - -, f 5;
#X obj 451 30 s rawscale;
#X text 109 381 Roughness;
#X obj 14 386 r rough;
#X floatatom 113 398 5 0 0 0 - - -, f 5;
#X text 1840 576 1100;
#X text 1881 576 1200;
#X obj 371 272 bng 15 250 50 0 empty empty empty 17 7 0 10 -262144
-1 -1;
#X obj 371 290 bng 15 250 50 0 empty empty empty 17 7 0 10 -262144
-1 -1;
#X obj 371 309 bng 15 250 50 0 empty empty empty 17 7 0 10 -262144
-1 -1;
#X obj 371 326 bng 15 250 50 0 empty empty empty 17 7 0 10 -262144
-1 -1;
#X obj 371 344 bng 15 250 50 0 empty empty empty 17 7 0 10 -262144
-1 -1;
#X obj 371 363 bng 15 250 50 0 empty empty empty 17 7 0 10 -262144
-1 -1;
#X text 353 250 Capture Ms;
#X obj 420 310 bng 15 250 50 0 empty empty empty 17 7 0 10 -262144
-1 -1;
#X obj 491 361 s deltacomp;
#X obj 492 384 s thetacomp;
#X obj 491 409 s alphacomp;
#X obj 492 433 s lobetacomp;
#X obj 491 456 s hibetacomp;
#X obj 491 479 s gammacomp;
#X text 448 -40 Inherent ratio scale (15 values (0 to 14));
#X obj 92 -114 t b f;
#X obj 913 450 s V1_line;
#X obj 976 449 s V2_line;
#X obj 1038 449 s V3_line;
#X obj 1098 449 s V4_line;
#X obj 1161 448 s V5_line;
#X obj 167 317 hradio 15 1 0 3 empty empty empty 0 -8 0 10 -253780
-1 -1 0;
#X obj 657 39 loadbang;
#X msg 712 71 2;
#X msg 657 62 3;
#X obj 219 380 hradio 15 1 0 7 empty empty empty 0 -8 0 10 -250962
-1 -1 6;
#X msg 494 157 2;
#X obj 382 156 bng 15 250 50 0 empty empty empty 17 7 0 10 -262144
-1 -1;
#X text 349 138 Capture peaks;
#X obj 472 215 s peaktrig;
#X obj 682 442 r startMS;
#N canvas 0 50 678 343 ratios 0;
#X obj 104 64 r dpeak;
#X obj 161 64 r tpeak;
#X obj 214 64 r apeak;
#X obj 274 64 r lbpeak;
#X obj 331 61 r hbpeak;
#X obj 391 61 r gpeak;
#N canvas 0 50 450 300 divide 0;
#X obj 93 109 /;
#X obj 69 48 inlet;
#X floatatom 69 69 5 0 0 0 - - -, f 5;
#X obj 139 67 inlet;
#X floatatom 139 88 5 0 0 0 - - -, f 5;
#X obj 93 130 outlet;
#X obj 139 108 t b;
#X connect 0 0 5 0;
#X connect 1 0 2 0;
#X connect 2 0 0 0;
#X connect 3 0 4 0;
#X connect 4 0 0 1;
#X connect 4 0 6 0;
#X connect 6 0 2 0;
#X restore 43 105 pd divide;
#N canvas 0 50 450 300 divide 0;
#X obj 93 109 /;
#X obj 69 48 inlet;
#X floatatom 69 69 5 0 0 0 - - -, f 5;
#X obj 139 67 inlet;
#X floatatom 139 88 5 0 0 0 - - -, f 5;
#X obj 93 130 outlet;
#X obj 139 108 t b;
#X connect 0 0 5 0;
#X connect 1 0 2 0;
#X connect 2 0 0 0;
#X connect 3 0 4 0;
#X connect 4 0 0 1;
#X connect 4 0 6 0;
#X connect 6 0 2 0;
#X restore 107 105 pd divide;
#N canvas 0 50 450 300 divide 0;
#X obj 93 109 /;
#X obj 69 48 inlet;
#X floatatom 69 69 5 0 0 0 - - -, f 5;
#X obj 139 67 inlet;
#X floatatom 139 88 5 0 0 0 - - -, f 5;
#X obj 93 130 outlet;
#X obj 139 108 t b;
#X connect 0 0 5 0;
#X connect 1 0 2 0;
#X connect 2 0 0 0;
#X connect 3 0 4 0;
#X connect 4 0 0 1;
#X connect 4 0 6 0;
#X connect 6 0 2 0;
#X restore 171 106 pd divide;
#N canvas 0 50 450 300 divide 0;
#X obj 93 109 /;
#X obj 69 48 inlet;
#X floatatom 69 69 5 0 0 0 - - -, f 5;
#X obj 139 67 inlet;
#X floatatom 139 88 5 0 0 0 - - -, f 5;
#X obj 93 130 outlet;
#X obj 139 108 t b;
#X connect 0 0 5 0;
#X connect 1 0 2 0;
#X connect 2 0 0 0;
#X connect 3 0 4 0;
#X connect 4 0 0 1;
#X connect 4 0 6 0;
#X connect 6 0 2 0;
#X restore 235 106 pd divide;
#N canvas 0 50 450 300 divide 0;
#X obj 93 109 /;
#X obj 69 48 inlet;
#X floatatom 69 69 5 0 0 0 - - -, f 5;
#X obj 139 67 inlet;
#X floatatom 139 88 5 0 0 0 - - -, f 5;
#X obj 93 130 outlet;
#X obj 139 108 t b;
#X connect 0 0 5 0;
#X connect 1 0 2 0;
#X connect 2 0 0 0;
#X connect 3 0 4 0;
#X connect 4 0 0 1;
#X connect 4 0 6 0;
#X connect 6 0 2 0;
#X restore 299 109 pd divide;
#N canvas 0 50 450 300 divide 0;
#X obj 93 109 /;
#X obj 69 48 inlet;
#X floatatom 69 69 5 0 0 0 - - -, f 5;
#X obj 139 67 inlet;
#X floatatom 139 88 5 0 0 0 - - -, f 5;
#X obj 93 130 outlet;
#X obj 139 108 t b;
#X connect 0 0 5 0;
#X connect 1 0 2 0;
#X connect 2 0 0 0;
#X connect 3 0 4 0;
#X connect 4 0 0 1;
#X connect 4 0 6 0;
#X connect 6 0 2 0;
#X restore 363 109 pd divide;
#N canvas 0 50 450 300 divide 0;
#X obj 93 109 /;
#X obj 69 48 inlet;
#X floatatom 69 69 5 0 0 0 - - -, f 5;
#X obj 139 67 inlet;
#X floatatom 139 88 5 0 0 0 - - -, f 5;
#X obj 93 130 outlet;
#X obj 139 108 t b;
#X connect 0 0 5 0;
#X connect 1 0 2 0;
#X connect 2 0 0 0;
#X connect 3 0 4 0;
#X connect 4 0 0 1;
#X connect 4 0 6 0;
#X connect 6 0 2 0;
#X restore 427 110 pd divide;
#N canvas 196 126 450 300 divide 0;
#X obj 93 109 /;
#X obj 69 48 inlet;
#X floatatom 69 69 5 0 0 0 - - -, f 5;
#X obj 139 67 inlet;
#X floatatom 139 88 5 0 0 0 - - -, f 5;
#X obj 93 130 outlet;
#X obj 139 108 t b;
#X connect 0 0 5 0;
#X connect 1 0 2 0;
#X connect 2 0 0 0;
#X connect 3 0 4 0;
#X connect 4 0 0 1;
#X connect 4 0 6 0;
#X connect 6 0 2 0;
#X restore 491 110 pd divide;
#N canvas 0 50 450 300 divide 0;
#X obj 93 109 /;
#X obj 69 48 inlet;
#X floatatom 69 69 5 0 0 0 - - -, f 5;
#X obj 139 67 inlet;
#X floatatom 139 88 5 0 0 0 - - -, f 5;
#X obj 93 130 outlet;
#X obj 139 108 t b;
#X connect 0 0 5 0;
#X connect 1 0 2 0;
#X connect 2 0 0 0;
#X connect 3 0 4 0;
#X connect 4 0 0 1;
#X connect 4 0 6 0;
#X connect 6 0 2 0;
#X restore 43 144 pd divide;
#N canvas 0 50 450 300 divide 0;
#X obj 93 109 /;
#X obj 69 48 inlet;
#X floatatom 69 69 5 0 0 0 - - -, f 5;
#X obj 139 67 inlet;
#X floatatom 139 88 5 0 0 0 - - -, f 5;
#X obj 93 130 outlet;
#X obj 139 108 t b;
#X connect 0 0 5 0;
#X connect 1 0 2 0;
#X connect 2 0 0 0;
#X connect 3 0 4 0;
#X connect 4 0 0 1;
#X connect 4 0 6 0;
#X connect 6 0 2 0;
#X restore 107 144 pd divide;
#N canvas 0 50 450 300 divide 0;
#X obj 93 109 /;
#X obj 69 48 inlet;
#X floatatom 69 69 5 0 0 0 - - -, f 5;
#X obj 139 67 inlet;
#X floatatom 139 88 5 0 0 0 - - -, f 5;
#X obj 93 130 outlet;
#X obj 139 108 t b;
#X connect 0 0 5 0;
#X connect 1 0 2 0;
#X connect 2 0 0 0;
#X connect 3 0 4 0;
#X connect 4 0 0 1;
#X connect 4 0 6 0;
#X connect 6 0 2 0;
#X restore 171 145 pd divide;
#N canvas 0 50 450 300 divide 0;
#X obj 93 109 /;
#X obj 69 48 inlet;
#X floatatom 69 69 5 0 0 0 - - -, f 5;
#X obj 139 67 inlet;
#X floatatom 139 88 5 0 0 0 - - -, f 5;
#X obj 93 130 outlet;
#X obj 139 108 t b;
#X connect 0 0 5 0;
#X connect 1 0 2 0;
#X connect 2 0 0 0;
#X connect 3 0 4 0;
#X connect 4 0 0 1;
#X connect 4 0 6 0;
#X connect 6 0 2 0;
#X restore 235 145 pd divide;
#N canvas 0 50 450 300 divide 0;
#X obj 93 109 /;
#X obj 69 48 inlet;
#X floatatom 69 69 5 0 0 0 - - -, f 5;
#X obj 139 67 inlet;
#X floatatom 139 88 5 0 0 0 - - -, f 5;
#X obj 93 130 outlet;
#X obj 139 108 t b;
#X connect 0 0 5 0;
#X connect 1 0 2 0;
#X connect 2 0 0 0;
#X connect 3 0 4 0;
#X connect 4 0 0 1;
#X connect 4 0 6 0;
#X connect 6 0 2 0;
#X restore 299 148 pd divide;
#N canvas 0 50 450 300 divide 0;
#X obj 93 109 /;
#X obj 69 48 inlet;
#X floatatom 69 69 5 0 0 0 - - -, f 5;
#X obj 139 67 inlet;
#X floatatom 139 88 5 0 0 0 - - -, f 5;
#X obj 93 130 outlet;
#X obj 139 108 t b;
#X connect 0 0 5 0;
#X connect 1 0 2 0;
#X connect 2 0 0 0;
#X connect 3 0 4 0;
#X connect 4 0 0 1;
#X connect 4 0 6 0;
#X connect 6 0 2 0;
#X restore 363 148 pd divide;
#N canvas 0 50 450 300 divide 0;
#X obj 93 109 /;
#X obj 69 48 inlet;
#X obj 139 52 inlet;
#X obj 93 130 outlet;
#X obj 139 75 t b f;
#X obj 69 71 f;
#X connect 0 0 3 0;
#X connect 1 0 5 0;
#X connect 2 0 4 0;
#X connect 4 0 5 0;
#X connect 4 1 0 1;
#X connect 5 0 0 0;
#X restore 427 149 pd divide;
#X obj 125 258 pack f f f f f f f f f f f f f f;
#X connect 0 0 6 1;
#X connect 0 0 7 1;
#X connect 0 0 8 1;
#X connect 0 0 9 1;
#X connect 0 0 10 1;
#X connect 1 0 6 0;
#X connect 1 0 11 1;
#X connect 1 0 12 1;
#X connect 1 0 13 1;
#X connect 1 0 14 1;
#X connect 2 0 7 0;
#X connect 2 0 11 0;
#X connect 2 0 15 1;
#X connect 2 0 16 1;
#X connect 2 0 17 1;
#X connect 3 0 8 0;
#X connect 3 0 12 0;
#X connect 3 0 15 0;
#X connect 3 0 18 1;
#X connect 3 0 19 1;
#X connect 4 0 9 0;
#X connect 4 0 13 0;
#X connect 4 0 16 0;
#X connect 4 0 18 0;
#X connect 4 0 20 1;
#X connect 5 0 10 0;
#X connect 5 0 14 0;
#X connect 5 0 17 0;
#X connect 5 0 19 0;
#X connect 5 0 20 0;
#X connect 6 0 21 0;
#X connect 7 0 21 1;
#X restore 850 17 pd ratios;
#X text 848 -5 Use to choose partial structure;
#X obj 154 535 loadbang;
#X msg 193 629 0;
#X msg 149 627 5;
#X obj 153 596 t b b b;
#X obj 154 558 delay 50;
#X text 109 218 Temporal Modes;
#X obj 356 417 hradio 20 1 0 2 empty empty empty 0 -8 0 10 -261682
-1 -1 0;
#X text 345 399 AVG / Snapshot;
#X obj 356 454 s avgsnap;
#X obj 330 530 loadbang;
#X msg 330 553 0;
#X connect 0 0 1 0;
#X connect 1 0 3 0;
#X connect 2 0 4 0;
#X connect 3 0 56 0;
#X connect 5 0 7 0;
#X connect 6 0 8 0;
#X connect 7 0 0 0;
#X connect 8 0 87 0;
#X connect 11 0 53 0;
#X connect 12 0 18 0;
#X connect 13 0 19 0;
#X connect 14 0 22 0;
#X connect 15 0 23 0;
#X connect 16 0 24 0;
#X connect 17 0 25 0;
#X connect 20 0 29 0;
#X connect 29 0 28 0;
#X connect 30 0 31 0;
#X connect 31 0 40 0;
#X connect 32 0 33 0;
#X connect 33 0 41 0;
#X connect 34 0 35 0;
#X connect 35 0 42 0;
#X connect 36 0 37 0;
#X connect 37 0 43 0;
#X connect 38 0 39 0;
#X connect 39 0 44 0;
#X connect 46 0 59 0;
#X connect 48 0 52 0;
#X connect 49 0 51 0;
#X connect 50 0 98 0;
#X connect 51 0 0 0;
#X connect 51 1 3 1;
#X connect 52 0 53 0;
#X connect 52 1 49 1;
#X connect 53 0 49 0;
#X connect 54 0 48 0;
#X connect 56 0 57 0;
#X connect 57 0 2 0;
#X connect 59 0 60 0;
#X connect 59 1 60 1;
#X connect 59 2 60 2;
#X connect 59 3 60 3;
#X connect 59 4 60 4;
#X connect 59 5 60 5;
#X connect 59 6 60 6;
#X connect 60 0 48 0;
#X connect 63 0 66 0;
#X connect 63 1 65 0;
#X connect 64 0 63 0;
#X connect 68 0 69 0;
#X connect 72 0 80 0;
#X connect 73 0 81 0;
#X connect 74 0 82 0;
#X connect 75 0 83 0;
#X connect 76 0 84 0;
#X connect 77 0 85 0;
#X connect 79 0 72 0;
#X connect 79 0 77 0;
#X connect 79 0 76 0;
#X connect 79 0 75 0;
#X connect 79 0 74 0;
#X connect 79 0 73 0;
#X connect 87 0 0 0;
#X connect 87 1 1 1;
#X connect 93 0 12 0;
#X connect 93 0 13 0;
#X connect 93 0 14 0;
#X connect 93 0 15 0;
#X connect 93 0 16 0;
#X connect 93 0 17 0;
#X connect 94 0 95 0;
#X connect 94 0 96 0;
#X connect 95 0 6 0;
#X connect 96 0 5 0;
#X connect 96 0 11 0;
#X connect 97 0 20 0;
#X connect 97 0 30 0;
#X connect 97 0 32 0;
#X connect 97 0 34 0;
#X connect 97 0 36 0;
#X connect 97 0 38 0;
#X connect 98 0 46 0;
#X connect 99 0 101 0;
#X connect 102 0 79 0;
#X connect 105 0 109 0;
#X connect 106 0 93 0;
#X connect 107 0 97 0;
#X connect 108 0 79 0;
#X connect 108 1 107 0;
#X connect 108 2 106 0;
#X connect 109 0 108 0;
#X connect 111 0 113 0;
#X connect 114 0 115 0;
#X connect 115 0 111 0;
#X coords 0 -1 1 1 350 350 2 100 100;
#X restore 315 471 pd PeaksManip;
#N canvas 714 211 450 300 Hz2Ms 0;
#X obj 31 71 peak2ms tpeak thetasub thetaMS;
#X obj 31 90 peak2ms apeak alphasub alphaMS;
#X obj 31 109 peak2ms lbpeak lobetasub lobetaMS;
#X obj 31 128 peak2ms hbpeak hibetasub hibetaMS;
#X obj 31 147 peak2ms gpeak gammasub gammaMS;
#X text 28 21 These objects decide which peak to use (\$1) as averaging
value (Ms) of another peak (\$3);
#X obj 31 52 peak2ms dpeak deltasub deltaMS;
#X restore 442 409 pd Hz2Ms;
#N canvas 606 95 1077 824 peaks 0;
#X floatatom 273 167 5 0 0 0 - - -, f 5;
#X floatatom 321 167 5 0 0 0 - - -, f 5;
#X floatatom 370 167 5 0 0 0 - - -, f 5;
#X floatatom 418 167 5 0 0 0 - - -, f 5;
#X floatatom 467 167 5 0 0 0 - - -, f 5;
#X floatatom 515 167 5 0 0 0 - - -, f 5;
#X obj 269 54 inlet;
#X text 9 25 Choose between peaks to generate ratios that alter the
octave;
#X obj 612 245 s dpeak;
#X obj 614 226 s tpeak;
#X obj 613 207 s apeak;
#X obj 613 190 s lbpeak;
#X obj 613 172 s hbpeak;
#X obj 613 156 s gpeak;
#X msg 137 144 2.4;
#X msg 138 169 4.6;
#X msg 140 188 10.2;
#X msg 141 213 16.2;
#X msg 142 235 23.5;
#X msg 143 260 33;
#X obj 100 126 bng 15 250 50 0 empty empty empty 17 7 0 10 -262144
-1 -1;
#N canvas 0 50 760 549 RawPeaksBounded 0;
#X obj 620 53 r gpeak;
#X obj 618 78 between1n2;
#X floatatom 618 99 5 0 0 0 - - -, f 5;
#X obj 618 119 s gpeakbound;
#X obj 523 73 between1n2;
#X obj 525 48 r hbpeak;
#X obj 523 114 s hbpeakbound;
#X floatatom 523 94 5 0 0 0 - - -, f 5;
#X obj 432 76 between1n2;
#X floatatom 432 97 5 0 0 0 - - -, f 5;
#X obj 337 71 between1n2;
#X floatatom 337 92 5 0 0 0 - - -, f 5;
#X obj 243 79 between1n2;
#X floatatom 243 100 5 0 0 0 - - -, f 5;
#X obj 148 74 between1n2;
#X floatatom 148 95 5 0 0 0 - - -, f 5;
#X obj 150 49 r dpeak;
#X obj 148 115 s dpeakbound;
#X obj 245 54 r tpeak;
#X obj 243 120 s tpeakbound;
#X obj 339 46 r apeak;
#X obj 337 112 s apeakbound;
#X obj 434 51 r lbpeak;
#X obj 432 117 s lbpeakbound;
#X connect 0 0 1 0;
#X connect 1 0 2 0;
#X connect 2 0 3 0;
#X connect 4 0 7 0;
#X connect 5 0 4 0;
#X connect 7 0 6 0;
#X connect 8 0 9 0;
#X connect 9 0 23 0;
#X connect 10 0 11 0;
#X connect 11 0 21 0;
#X connect 12 0 13 0;
#X connect 13 0 19 0;
#X connect 14 0 15 0;
#X connect 15 0 17 0;
#X connect 16 0 14 0;
#X connect 18 0 12 0;
#X connect 20 0 10 0;
#X connect 22 0 8 0;
#X restore 84 584 pd RawPeaksBounded;
#X obj 214 126 r dtrig;
#X obj 334 112 r ttrig;
#X obj 392 103 r atrig;
#X obj 453 106 r lbtrig;
#X obj 518 108 r hbtrig;
#X obj 580 110 r gtrig;
#X floatatom 742 731 5 0 0 0 - - -, f 5;
#X floatatom 742 784 5 0 0 0 - - -, f 5;
#X floatatom 801 785 5 0 0 0 - - -, f 5;
#X floatatom 859 784 5 0 0 0 - - -, f 5;
#X obj 799 737 bng 15 250 50 0 empty empty empty 17 7 0 10 -262144
-1 -1;
#X obj 859 735 bng 15 250 50 0 empty empty empty 17 7 0 10 -262144
-1 -1;
#X obj 798 711 r baseline1;
#X obj 877 712 r resetbase;
#X obj 742 756 baseline_computation;
#X obj 742 707 r dpeak;
#X text 744 804 Mean;
#X text 803 804 Std;
#X text 853 803 Z score;
#X obj 39 320 metro 1000;
#X obj 34 343 random 100;
#X obj 38 386 / 100;
#X floatatom 42 444 5 0 0 0 - - -, f 5;
#X obj 55 295 bng 15 250 50 0 empty empty empty 17 7 0 10 -262144 -1
-1;
#X obj 42 421 * 4;
#X floatatom 80 445 5 0 0 0 - - -, f 5;
#X floatatom 119 441 5 0 0 0 - - -, f 5;
#X floatatom 46 491 5 0 0 0 - - -, f 5;
#X floatatom 84 492 5 0 0 0 - - -, f 5;
#X floatatom 126 492 5 0 0 0 - - -, f 5;
#X obj 46 468 * 15;
#X obj 84 469 * 25;
#X obj 126 469 * 35;
#X obj 39 366 + 100;
#X obj 80 422 * 5;
#X obj 122 422 * 8;
#X obj 107 347 random 100;
#X obj 111 390 / 100;
#X obj 112 370 + 100;
#X obj 112 324 metro 300;
#X obj 648 103 r peaktrigSend;
#X msg 95 281 stop;
#X obj 272 140 route /delta/ /theta/ /alpha/ /lobeta/ /hibeta/ /gamma/
;
#X obj 28 125 loadbang;
#N canvas 0 50 1255 773 delta_process 0;
#X obj 251 304 * 32;
#X obj 287 326 s deltapeak;
#X obj 344 74 EEG_peak2ms deltaAVG deltaMS deltacomp dtrig;
#X floatatom 344 95 9 0 0 0 - - -, f 9;
#X obj 320 75 bng 15 250 50 0 empty empty empty 17 7 0 10 -262144 -1
-1;
#X obj 251 94 inlet;
#X obj 412 236 r peakmult;
#X obj 412 255 expr if ($f1 == 0 \, 32 \, $f1);
#X floatatom 412 284 5 0 0 0 - - -, f 5;
#X obj 411 303 t b f;
#X obj 251 280 f;
#X obj 249 353 outlet;
#X obj 251 129 avgORsnap deltapeakclock deltasnap;
#X obj 543 143 s deltaMSfix;
#X connect 0 0 1 0;
#X connect 0 0 11 0;
#X connect 2 0 3 0;
#X connect 2 0 4 0;
#X connect 3 0 12 1;
#X connect 3 0 13 0;
#X connect 5 0 12 0;
#X connect 6 0 7 0;
#X connect 7 0 8 0;
#X connect 8 0 9 0;
#X connect 9 0 10 0;
#X connect 9 1 0 1;
#X connect 10 0 0 0;
#X connect 12 0 10 0;
#X restore 270 450 pd delta_process;
#N canvas 84 66 1255 773 theta_process 0;
#X obj 210 179 * 32;
#X floatatom 303 98 5 0 0 0 - - -, f 5;
#X obj 320 75 bng 15 250 50 0 empty empty empty 17 7 0 10 -262144 -1
-1;
#X obj 210 97 inlet;
#X obj 412 116 r peakmult;
#X obj 412 135 expr if ($f1 == 0 \, 32 \, $f1);
#X floatatom 412 156 5 0 0 0 - - -, f 5;
#X obj 411 175 t b f;
#X obj 210 155 f;
#X floatatom 256 158 5 0 0 0 - - -, f 5;
#X obj 208 228 outlet;
#X obj 344 74 EEG_peak2ms thetaAVG thetaMS thetacomp ttrig;
#X obj 246 201 s thetapeak;
#X obj 162 133 avgORsnap thetapeakclock thetasnap;
#X obj 706 145 s thetaMSfix;
#X connect 0 0 10 0;
#X connect 0 0 12 0;
#X connect 1 0 13 1;
#X connect 1 0 14 0;
#X connect 3 0 13 0;
#X connect 4 0 5 0;
#X connect 5 0 6 0;
#X connect 6 0 7 0;
#X connect 7 0 8 0;
#X connect 7 1 0 1;
#X connect 8 0 0 0;
#X connect 11 0 1 0;
#X connect 11 0 2 0;
#X connect 13 0 8 0;
#X connect 13 0 9 0;
#X restore 392 448 pd theta_process;
#N canvas 0 50 1255 773 alpha_process 0;
#X obj 251 176 * 32;
#X floatatom 344 95 5 0 0 0 - - -, f 5;
#X obj 320 75 bng 15 250 50 0 empty empty empty 17 7 0 10 -262144 -1
-1;
#X obj 251 94 inlet;
#X obj 412 116 r peakmult;
#X obj 412 135 expr if ($f1 == 0 \, 32 \, $f1);
#X floatatom 412 156 5 0 0 0 - - -, f 5;
#X obj 411 175 t b f;
#X obj 251 152 f;
#X floatatom 297 155 5 0 0 0 - - -, f 5;
#X obj 249 225 outlet;
#X obj 344 74 EEG_peak2ms alphaAVG alphaMS alphacomp atrig;
#X obj 287 198 s alphapeak;
#X obj 189 126 avgORsnap alphapeakclock alphasnap;
#X obj 682 140 s alphaMSfix;
#X connect 0 0 10 0;
#X connect 0 0 12 0;
#X connect 1 0 13 1;
#X connect 1 0 14 0;
#X connect 3 0 13 0;
#X connect 4 0 5 0;
#X connect 5 0 6 0;
#X connect 6 0 7 0;
#X connect 7 0 8 0;
#X connect 7 1 0 1;
#X connect 8 0 0 0;
#X connect 11 0 1 0;
#X connect 11 0 2 0;
#X connect 13 0 8 0;
#X connect 13 0 9 0;
#X restore 501 448 pd alpha_process;
#N canvas 0 50 1255 773 lobeta_process 0;
#X obj 251 176 * 32;
#X floatatom 344 95 5 0 0 0 - - -, f 5;
#X obj 320 75 bng 15 250 50 0 empty empty empty 17 7 0 10 -262144 -1
-1;
#X obj 251 94 inlet;
#X obj 412 116 r peakmult;
#X obj 412 135 expr if ($f1 == 0 \, 32 \, $f1);
#X floatatom 412 156 5 0 0 0 - - -, f 5;
#X obj 411 175 t b f;
#X obj 251 152 f;
#X floatatom 297 155 5 0 0 0 - - -, f 5;
#X obj 249 225 outlet;
#X obj 344 74 EEG_peak2ms lobetaAVG lobetaMS lobetacomp lbtrig;
#X obj 287 198 s lobetapeak;
#X obj 175 129 avgORsnap lobetapeakclock lobetasnap;
#X obj 642 147 s lobetaMSfix;
#X connect 0 0 10 0;
#X connect 0 0 12 0;
#X connect 1 0 13 1;
#X connect 1 0 14 0;
#X connect 3 0 13 0;
#X connect 4 0 5 0;
#X connect 5 0 6 0;
#X connect 6 0 7 0;
#X connect 7 0 8 0;
#X connect 7 1 0 1;
#X connect 8 0 0 0;
#X connect 11 0 1 0;
#X connect 11 0 2 0;
#X connect 13 0 8 0;
#X connect 13 0 9 0;
#X restore 627 447 pd lobeta_process;
#N canvas 0 50 1255 773 hibeta_process 0;
#X obj 251 176 * 32;
#X floatatom 344 95 5 0 0 0 - - -, f 5;
#X obj 320 75 bng 15 250 50 0 empty empty empty 17 7 0 10 -262144 -1
-1;
#X obj 251 94 inlet;
#X obj 412 116 r peakmult;
#X obj 412 135 expr if ($f1 == 0 \, 32 \, $f1);
#X floatatom 412 156 5 0 0 0 - - -, f 5;
#X obj 411 175 t b f;
#X obj 251 152 f;
#X floatatom 297 155 5 0 0 0 - - -, f 5;
#X obj 249 225 outlet;
#X obj 344 74 EEG_peak2ms hibetaAVG hibetaMS hibetacomp hbtrig;
#X obj 287 198 s hibetapeak;
#X obj 153 130 avgORsnap hibetapeakclock hibetasnap;
#X obj 699 134 s hibetaMSfix;
#X connect 0 0 10 0;
#X connect 0 0 12 0;
#X connect 1 0 13 1;
#X connect 1 0 14 0;
#X connect 3 0 13 0;
#X connect 4 0 5 0;
#X connect 5 0 6 0;
#X connect 6 0 7 0;
#X connect 7 0 8 0;
#X connect 7 1 0 1;
#X connect 8 0 0 0;
#X connect 11 0 1 0;
#X connect 11 0 2 0;
#X connect 13 0 8 0;
#X connect 13 0 9 0;
#X restore 758 445 pd hibeta_process;
#N canvas 0 50 1255 773 gamma_process 0;
#X obj 251 176 * 32;
#X floatatom 344 95 5 0 0 0 - - -, f 5;
#X obj 320 75 bng 15 250 50 0 empty empty empty 17 7 0 10 -262144 -1
-1;
#X obj 251 94 inlet;
#X obj 412 116 r peakmult;
#X obj 412 135 expr if ($f1 == 0 \, 32 \, $f1);
#X floatatom 412 156 5 0 0 0 - - -, f 5;
#X obj 411 175 t b f;
#X obj 251 152 f;
#X floatatom 297 155 5 0 0 0 - - -, f 5;
#X obj 249 225 outlet;
#X obj 344 74 EEG_peak2ms gammaAVG gammaMS gammacomp gtrig;
#X obj 287 198 s gammapeak;
#X obj 188 129 avgORsnap gammapeakclock gammasnap;
#X obj 663 173 s gammaMSfix;
#X connect 0 0 10 0;
#X connect 0 0 12 0;
#X connect 1 0 13 1;
#X connect 1 0 14 0;
#X connect 3 0 13 0;
#X connect 4 0 5 0;
#X connect 5 0 6 0;
#X connect 6 0 7 0;
#X connect 7 0 8 0;
#X connect 7 1 0 1;
#X connect 8 0 0 0;
#X connect 11 0 1 0;
#X connect 11 0 2 0;
#X connect 13 0 8 0;
#X connect 13 0 9 0;
#X restore 886 444 pd gamma_process;
#X floatatom 270 473 5 0 0 0 - - -, f 5;
#X floatatom 392 471 5 0 0 0 - - -, f 5;
#X floatatom 501 471 5 0 0 0 - - -, f 5;
#X floatatom 627 470 5 0 0 0 - - -, f 5;
#X floatatom 758 468 5 0 0 0 - - -, f 5;
#X floatatom 886 467 5 0 0 0 - - -, f 5;
#X obj 269 80 routeOSC /nobl;
#X connect 0 0 8 0;
#X connect 0 0 66 0;
#X connect 1 0 9 0;
#X connect 1 0 67 0;
#X connect 2 0 10 0;
#X connect 2 0 68 0;
#X connect 3 0 11 0;
#X connect 3 0 69 0;
#X connect 4 0 12 0;
#X connect 4 0 70 0;
#X connect 5 0 13 0;
#X connect 5 0 71 0;
#X connect 6 0 78 0;
#X connect 14 0 0 0;
#X connect 15 0 1 0;
#X connect 16 0 2 0;
#X connect 17 0 3 0;
#X connect 18 0 4 0;
#X connect 19 0 5 0;
#X connect 20 0 14 0;
#X connect 20 0 19 0;
#X connect 20 0 18 0;
#X connect 20 0 17 0;
#X connect 20 0 16 0;
#X connect 20 0 15 0;
#X connect 22 0 0 0;
#X connect 23 0 1 0;
#X connect 24 0 2 0;
#X connect 25 0 3 0;
#X connect 26 0 4 0;
#X connect 27 0 5 0;
#X connect 28 0 36 0;
#X connect 32 0 36 1;
#X connect 33 0 36 2;
#X connect 34 0 32 0;
#X connect 35 0 33 0;
#X connect 36 0 29 0;
#X connect 36 1 30 0;
#X connect 36 2 31 0;
#X connect 37 0 28 0;
#X connect 41 0 42 0;
#X connect 42 0 55 0;
#X connect 43 0 46 0;
#X connect 43 0 52 0;
#X connect 43 0 53 0;
#X connect 43 0 56 0;
#X connect 44 0 0 0;
#X connect 45 0 41 0;
#X connect 45 0 61 0;
#X connect 46 0 44 0;
#X connect 47 0 1 0;
#X connect 48 0 2 0;
#X connect 49 0 3 0;
#X connect 50 0 4 0;
#X connect 51 0 5 0;
#X connect 52 0 49 0;
#X connect 53 0 50 0;
#X connect 54 0 51 0;
#X connect 55 0 43 0;
#X connect 56 0 47 0;
#X connect 57 0 48 0;
#X connect 58 0 60 0;
#X connect 59 0 57 0;
#X connect 59 0 54 0;
#X connect 60 0 59 0;
#X connect 61 0 58 0;
#X connect 62 0 0 0;
#X connect 62 0 1 0;
#X connect 62 0 2 0;
#X connect 62 0 3 0;
#X connect 62 0 4 0;
#X connect 62 0 5 0;
#X connect 63 0 41 0;
#X connect 63 0 61 0;
#X connect 64 0 0 0;
#X connect 64 1 1 0;
#X connect 64 2 2 0;
#X connect 64 3 3 0;
#X connect 64 4 4 0;
#X connect 64 5 5 0;
#X connect 65 0 20 0;
#X connect 66 0 72 0;
#X connect 67 0 73 0;
#X connect 68 0 74 0;
#X connect 69 0 75 0;
#X connect 70 0 76 0;
#X connect 71 0 77 0;
#X connect 78 0 64 0;
#X restore 88 372 pd peaks;
#N canvas 985 141 693 563 routingOnOff 0;
#X obj 212 146 tgl 15 0 empty empty empty 17 7 0 10 -262144 -1 -1 0
1;
#X text 204 106 FM;
#X text 203 123 Ratio Ind1 Ind2 Ind3 Ind4 Volume;
#X obj 245 146 tgl 15 0 empty empty empty 17 7 0 10 -262144 -1 -1 0
1;
#X obj 275 146 tgl 15 0 empty empty empty 17 7 0 10 -262144 -1 -1 0
1;
#X obj 305 146 tgl 15 0 empty empty empty 17 7 0 10 -262144 -1 -1 0
1;
#X obj 335 146 tgl 15 0 empty empty empty 17 7 0 10 -262144 -1 -1 0
1;
#X obj 370 146 tgl 15 0 empty empty empty 17 7 0 10 -262144 -1 -1 0
1;
#X obj 120 173 s FMratioX;
#X obj 120 196 s FMind1X;
#X obj 119 218 s FMind2X;
#X obj 119 239 s FMind3X;
#X obj 118 261 s FMind4X;
#X obj 118 282 s FMvolX;
#X obj 452 102 r ratiobin;
#X obj 453 123 r ind1bin;
#X obj 452 146 r ind2bin;
#X obj 452 168 r ind3bin;
#X obj 452 189 r ind4bin;
#X obj 452 211 r fmvolbin;
#X obj 91 304 s deltapeakclock;
#X obj 91 324 s thetapeakclock;
#X obj 91 345 s alphapeakclock;
#X obj 91 365 s lobetapeakclock;
#X obj 91 386 s hibetapeakclock;
#X obj 91 406 s gammapeakclock;
#X text 203 205 Peak Clock;
#X text 203 221 Delta Theta Alpha Lobeta HiBeta Gamma;
#X obj 211 242 tgl 15 0 empty empty empty 17 7 0 10 -262144 -1 -1 1
1;
#X obj 249 242 tgl 15 0 empty empty empty 17 7 0 10 -262144 -1 -1 1
1;
#X obj 285 242 tgl 15 0 empty empty empty 17 7 0 10 -262144 -1 -1 1
1;
#X obj 323 242 tgl 15 0 empty empty empty 17 7 0 10 -262144 -1 -1 1
1;
#X obj 364 242 tgl 15 0 empty empty empty 17 7 0 10 -262144 -1 -1 1
1;
#X obj 403 242 tgl 15 0 empty empty empty 17 7 0 10 -262144 -1 -1 1
1;
#X obj 454 282 r deltapeakbin;
#X obj 454 302 r thetapeakbin;
#X obj 454 323 r alphapeakbin;
#X obj 454 343 r lobetapeakbin;
#X obj 454 364 r hibetapeakbin;
#X obj 454 384 r gammapeakbin;
#X obj 136 69 loadbang;
#X msg 97 98 0;
#X obj 211 186 tgl 15 0 empty empty empty 17 7 0 10 -262144 -1 -1 0
1;
#X obj 242 186 tgl 15 0 empty empty empty 17 7 0 10 -262144 -1 -1 0
1;
#X obj 272 186 tgl 15 0 empty empty empty 17 7 0 10 -262144 -1 -1 0
1;
#X obj 301 186 tgl 15 0 empty empty empty 17 7 0 10 -262144 -1 -1 0
1;
#X obj 331 186 tgl 15 0 empty empty empty 17 7 0 10 -262144 -1 -1 0
1;
#X text 204 163 Oct1 Oct2 Oct3 Oct4 Oct5;
#X obj 534 102 r oct1bin;
#X obj 535 120 r oct2bin;
#X obj 534 139 r oct3bin;
#X obj 535 157 r oct4bin;
#X obj 536 176 r oct5bin;
#X obj 24 171 s FMoct1X;
#X obj 25 188 s FMoct2X;
#X obj 24 205 s FMoct3X;
#X obj 25 222 s FMoct4X;
#X obj 25 240 s FMoct5X;
#X obj 304 268 tgl 15 0 empty empty empty 17 7 0 10 -262144 -1 -1 1
1;
#X msg 136 92 1;
#X obj 330 322 s startMS;
#X obj 221 306 tgl 15 0 empty empty empty 17 7 0 10 -262144 -1 -1 0
1;
#X text 208 285 Freeze Chord;
#X obj 275 378 s freezechordbin;
#X connect 0 0 8 0;
#X connect 3 0 9 0;
#X connect 4 0 10 0;
#X connect 5 0 11 0;
#X connect 6 0 12 0;
#X connect 7 0 13 0;
#X connect 14 0 0 0;
#X connect 15 0 3 0;
#X connect 16 0 4 0;
#X connect 17 0 5 0;
#X connect 18 0 6 0;
#X connect 19 0 7 0;
#X connect 28 0 20 0;
#X connect 29 0 21 0;
#X connect 30 0 22 0;
#X connect 31 0 23 0;
#X connect 32 0 24 0;
#X connect 33 0 25 0;
#X connect 34 0 28 0;
#X connect 35 0 29 0;
#X connect 36 0 30 0;
#X connect 37 0 31 0;
#X connect 38 0 32 0;
#X connect 39 0 33 0;
#X connect 40 0 41 0;
#X connect 40 0 59 0;
#X connect 41 0 0 0;
#X connect 41 0 7 0;
#X connect 41 0 6 0;
#X connect 41 0 5 0;
#X connect 41 0 4 0;
#X connect 41 0 3 0;
#X connect 41 0 42 0;
#X connect 41 0 46 0;
#X connect 41 0 45 0;
#X connect 41 0 44 0;
#X connect 41 0 43 0;
#X connect 42 0 53 0;
#X connect 43 0 54 0;
#X connect 44 0 55 0;
#X connect 45 0 56 0;
#X connect 46 0 57 0;
#X connect 48 0 42 0;
#X connect 49 0 43 0;
#X connect 50 0 44 0;
#X connect 51 0 45 0;
#X connect 52 0 46 0;
#X connect 58 0 28 0;
#X connect 58 0 29 0;
#X connect 58 0 30 0;
#X connect 58 0 31 0;
#X connect 58 0 32 0;
#X connect 58 0 33 0;
#X connect 58 0 60 0;
#X connect 59 0 58 0;
#X connect 61 0 63 0;
#X coords 0 -1 1 1 250 250 2 200 100;
#X restore 49 568 pd routingOnOff;
#X text 719 271 kick;
#X text 718 295 snare;
#X text 719 321 hihat;
#X text 716 342 wooden;
#X obj 258 89 sub_sidebands_EEG;
#X floatatom 913 106 5 0 0 0 - - -, f 5;
#N canvas 952 50 958 966 CONSONANCE_CHOICE 0;
#X obj 77 62 consonance_decim dpeak apeak;
#X obj 75 87 consonance_decim dpeak lbpeak;
#X obj 75 130 consonance_decim dpeak hbpeak;
#X obj 75 158 consonance_decim dpeak gpeak;
#X floatatom 310 50 5 0 0 0 - - -, f 5;
#X obj 80 35 consonance_decim dpeak tpeak;
#X obj 71 188 consonance_decim tpeak apeak;
#X obj 71 210 consonance_decim tpeak lbpeak;
#X obj 71 231 consonance_decim tpeak hbpeak;
#X obj 71 252 consonance_decim tpeak gpeak;
#X obj 71 279 consonance_decim apeak lbpeak;
#X obj 71 300 consonance_decim apeak hbpeak;
#X obj 71 321 consonance_decim apeak gpeak;
#X obj 72 348 consonance_decim lbpeak hbpeak;
#X obj 72 369 consonance_decim lbpeak gpeak;
#X obj 73 395 consonance_decim hbpeak gpeak;
#X floatatom 306 82 5 0 0 0 - - -, f 5;
#X floatatom 308 111 5 0 0 0 - - -, f 5;
#X floatatom 313 143 5 0 0 0 - - -, f 5;
#X floatatom 309 168 5 0 0 0 - - -, f 5;
#X floatatom 106 510 5 0 0 0 - - -, f 5;
#X floatatom 107 565 5 0 0 0 - - -, f 5;
#X obj 106 484 consonance_decim deltaMSfix thetaMSfix;
#X obj 107 539 consonance_decim thetaMSfix alphaMSfix;
#X obj 609 36 inlet threshold;
#N canvas 496 219 450 300 thresh 0;
#X obj 107 113 expr if ($f1 > $f2 \, 1 \, 0);
#X obj 278 79 r \$0-thresh;
#X obj 102 67 inlet;
#X obj 116 151 tgl 15 0 empty empty empty 17 7 0 10 -262144 -1 -1 0
1;
#X obj 75 176 spigot;
#X obj 75 230 outlet;
#X connect 0 0 3 0;
#X connect 1 0 0 1;
#X connect 2 0 0 0;
#X connect 2 0 4 0;
#X connect 3 0 4 1;
#X connect 3 0 5 0;
#X restore 354 50 pd thresh decision;
#X obj 609 62 s \$0-thresh;
#X floatatom 308 193 5 0 0 0 - - -, f 5;
#X floatatom 304 225 5 0 0 0 - - -, f 5;
#X floatatom 306 254 5 0 0 0 - - -, f 5;
#X floatatom 311 286 5 0 0 0 - - -, f 5;
#X floatatom 307 311 5 0 0 0 - - -, f 5;
#X floatatom 305 336 5 0 0 0 - - -, f 5;
#X floatatom 301 368 5 0 0 0 - - -, f 5;
#X floatatom 303 397 5 0 0 0 - - -, f 5;
#X floatatom 308 429 5 0 0 0 - - -, f 5;
#X floatatom 304 454 5 0 0 0 - - -, f 5;
#X obj 488 47 s cons01;
#N canvas 496 219 450 300 thresh 0;
#X obj 107 113 expr if ($f1 > $f2 \, 1 \, 0);
#X obj 278 79 r \$0-thresh;
#X obj 102 67 inlet;
#X obj 116 151 tgl 15 0 empty empty empty 17 7 0 10 -262144 -1 -1 0
1;
#X obj 75 176 spigot;
#X obj 75 230 outlet;
#X connect 0 0 3 0;
#X connect 1 0 0 1;
#X connect 2 0 0 0;
#X connect 2 0 4 0;
#X connect 3 0 4 1;
#X connect 3 0 5 0;
#X restore 353 82 pd thresh decision;
#N canvas 496 219 450 300 thresh 0;
#X obj 107 113 expr if ($f1 > $f2 \, 1 \, 0);
#X obj 278 79 r \$0-thresh;
#X obj 102 67 inlet;
#X obj 116 151 tgl 15 0 empty empty empty 17 7 0 10 -262144 -1 -1 0
1;
#X obj 75 176 spigot;
#X obj 75 230 outlet;
#X connect 0 0 3 0;
#X connect 1 0 0 1;
#X connect 2 0 0 0;
#X connect 2 0 4 0;
#X connect 3 0 4 1;
#X connect 3 0 5 0;
#X restore 352 111 pd thresh decision;
#N canvas 496 219 450 300 thresh 0;
#X obj 107 113 expr if ($f1 > $f2 \, 1 \, 0);
#X obj 278 79 r \$0-thresh;
#X obj 102 67 inlet;
#X obj 116 151 tgl 15 0 empty empty empty 17 7 0 10 -262144 -1 -1 0
1;
#X obj 75 176 spigot;
#X obj 75 230 outlet;
#X connect 0 0 3 0;
#X connect 1 0 0 1;
#X connect 2 0 0 0;
#X connect 2 0 4 0;
#X connect 3 0 4 1;
#X connect 3 0 5 0;
#X restore 351 141 pd thresh decision;
#N canvas 496 219 450 300 thresh 0;
#X obj 107 113 expr if ($f1 > $f2 \, 1 \, 0);
#X obj 278 79 r \$0-thresh;
#X obj 102 67 inlet;
#X obj 116 151 tgl 15 0 empty empty empty 17 7 0 10 -262144 -1 -1 0
1;
#X obj 75 176 spigot;
#X obj 75 230 outlet;
#X connect 0 0 3 0;
#X connect 1 0 0 1;
#X connect 2 0 0 0;
#X connect 2 0 4 0;
#X connect 3 0 4 1;
#X connect 3 0 5 0;
#X restore 354 169 pd thresh decision;
#N canvas 496 219 450 300 thresh 0;
#X obj 107 113 expr if ($f1 > $f2 \, 1 \, 0);
#X obj 278 79 r \$0-thresh;
#X obj 102 67 inlet;
#X obj 116 151 tgl 15 0 empty empty empty 17 7 0 10 -262144 -1 -1 0
1;
#X obj 75 176 spigot;
#X obj 75 230 outlet;
#X connect 0 0 3 0;
#X connect 1 0 0 1;
#X connect 2 0 0 0;
#X connect 2 0 4 0;
#X connect 3 0 4 1;
#X connect 3 0 5 0;
#X restore 352 194 pd thresh decision;
#N canvas 496 219 450 300 thresh 0;
#X obj 107 113 expr if ($f1 > $f2 \, 1 \, 0);
#X obj 278 79 r \$0-thresh;
#X obj 102 67 inlet;
#X obj 116 151 tgl 15 0 empty empty empty 17 7 0 10 -262144 -1 -1 1
1;
#X obj 75 176 spigot;
#X obj 75 230 outlet;
#X connect 0 0 3 0;
#X connect 1 0 0 1;
#X connect 2 0 0 0;
#X connect 2 0 4 0;
#X connect 3 0 4 1;
#X connect 3 0 5 0;
#X restore 351 226 pd thresh decision;
#N canvas 496 219 450 300 thresh 0;
#X obj 107 113 expr if ($f1 > $f2 \, 1 \, 0);
#X obj 278 79 r \$0-thresh;
#X obj 102 67 inlet;
#X obj 116 151 tgl 15 0 empty empty empty 17 7 0 10 -262144 -1 -1 1
1;
#X obj 75 176 spigot;
#X obj 75 230 outlet;
#X connect 0 0 3 0;
#X connect 1 0 0 1;
#X connect 2 0 0 0;
#X connect 2 0 4 0;
#X connect 3 0 4 1;
#X connect 3 0 5 0;
#X restore 350 255 pd thresh decision;
#N canvas 496 219 450 300 thresh 0;
#X obj 107 113 expr if ($f1 > $f2 \, 1 \, 0);
#X obj 278 79 r \$0-thresh;
#X obj 102 67 inlet;
#X obj 116 151 tgl 15 0 empty empty empty 17 7 0 10 -262144 -1 -1 0
1;
#X obj 75 176 spigot;
#X obj 75 230 outlet;
#X connect 0 0 3 0;
#X connect 1 0 0 1;
#X connect 2 0 0 0;
#X connect 2 0 4 0;
#X connect 3 0 4 1;
#X connect 3 0 5 0;
#X restore 349 285 pd thresh decision;
#N canvas 496 219 450 300 thresh 0;
#X obj 107 113 expr if ($f1 > $f2 \, 1 \, 0);
#X obj 278 79 r \$0-thresh;
#X obj 102 67 inlet;
#X obj 116 151 tgl 15 0 empty empty empty 17 7 0 10 -262144 -1 -1 0
1;
#X obj 75 176 spigot;
#X obj 75 230 outlet;
#X connect 0 0 3 0;
#X connect 1 0 0 1;
#X connect 2 0 0 0;
#X connect 2 0 4 0;
#X connect 3 0 4 1;
#X connect 3 0 5 0;
#X restore 352 313 pd thresh decision;
#N canvas 496 219 450 300 thresh 0;
#X obj 107 113 expr if ($f1 > $f2 \, 1 \, 0);
#X obj 278 79 r \$0-thresh;
#X obj 102 67 inlet;
#X obj 116 151 tgl 15 0 empty empty empty 17 7 0 10 -262144 -1 -1 0
1;
#X obj 75 176 spigot;
#X obj 75 230 outlet;
#X connect 0 0 3 0;
#X connect 1 0 0 1;
#X connect 2 0 0 0;
#X connect 2 0 4 0;
#X connect 3 0 4 1;
#X connect 3 0 5 0;
#X restore 352 340 pd thresh decision;
#N canvas 496 219 450 300 thresh 0;
#X obj 107 113 expr if ($f1 > $f2 \, 1 \, 0);
#X obj 278 79 r \$0-thresh;
#X obj 102 67 inlet;
#X obj 116 151 tgl 15 0 empty empty empty 17 7 0 10 -262144 -1 -1 0
1;
#X obj 75 176 spigot;
#X obj 75 230 outlet;
#X connect 0 0 3 0;
#X connect 1 0 0 1;
#X connect 2 0 0 0;
#X connect 2 0 4 0;
#X connect 3 0 4 1;
#X connect 3 0 5 0;
#X restore 351 372 pd thresh decision;
#N canvas 496 219 450 300 thresh 0;
#X obj 107 113 expr if ($f1 > $f2 \, 1 \, 0);
#X obj 278 79 r \$0-thresh;
#X obj 102 67 inlet;
#X obj 116 151 tgl 15 0 empty empty empty 17 7 0 10 -262144 -1 -1 0
1;
#X obj 75 176 spigot;
#X obj 75 230 outlet;
#X connect 0 0 3 0;
#X connect 1 0 0 1;
#X connect 2 0 0 0;
#X connect 2 0 4 0;
#X connect 3 0 4 1;
#X connect 3 0 5 0;
#X restore 350 401 pd thresh decision;
#N canvas 496 219 450 300 thresh 0;
#X obj 107 113 expr if ($f1 > $f2 \, 1 \, 0);
#X obj 278 79 r \$0-thresh;
#X obj 102 67 inlet;
#X obj 116 151 tgl 15 0 empty empty empty 17 7 0 10 -262144 -1 -1 0
1;
#X obj 75 176 spigot;
#X obj 75 230 outlet;
#X connect 0 0 3 0;
#X connect 1 0 0 1;
#X connect 2 0 0 0;
#X connect 2 0 4 0;
#X connect 3 0 4 1;
#X connect 3 0 5 0;
#X restore 349 431 pd thresh decision;
#N canvas 496 219 450 300 thresh 0;
#X obj 107 113 expr if ($f1 > $f2 \, 1 \, 0);
#X obj 278 79 r \$0-thresh;
#X obj 102 67 inlet;
#X obj 116 151 tgl 15 0 empty empty empty 17 7 0 10 -262144 -1 -1 0
1;
#X obj 75 176 spigot;
#X obj 75 230 outlet;
#X connect 0 0 3 0;
#X connect 1 0 0 1;
#X connect 2 0 0 0;
#X connect 2 0 4 0;
#X connect 3 0 4 1;
#X connect 3 0 5 0;
#X restore 352 459 pd thresh decision;
#X obj 487 79 s cons02;
#X obj 486 108 s cons03;
#X obj 485 138 s cons04;
#X obj 488 166 s cons05;
#X obj 486 191 s cons06;
#X obj 487 217 s cons07;
#X obj 484 252 s cons08;
#X obj 483 282 s cons09;
#X obj 486 310 s cons10;
#X obj 486 337 s cons11;
#X obj 485 369 s cons12;
#X obj 484 398 s cons13;
#X obj 483 428 s cons14;
#X obj 486 456 s cons15;
#X obj 786 72 loadbang;
#X msg 786 98 0.1618;
#X connect 0 0 16 0;
#X connect 1 0 17 0;
#X connect 2 0 18 0;
#X connect 3 0 19 0;
#X connect 4 0 25 0;
#X connect 5 0 4 0;
#X connect 6 0 27 0;
#X connect 7 0 28 0;
#X connect 8 0 29 0;
#X connect 9 0 30 0;
#X connect 10 0 31 0;
#X connect 11 0 32 0;
#X connect 12 0 33 0;
#X connect 13 0 34 0;
#X connect 14 0 35 0;
#X connect 15 0 36 0;
#X connect 16 0 38 0;
#X connect 17 0 39 0;
#X connect 18 0 40 0;
#X connect 19 0 41 0;
#X connect 22 0 20 0;
#X connect 23 0 21 0;
#X connect 24 0 26 0;
#X connect 25 0 37 0;
#X connect 27 0 42 0;
#X connect 28 0 43 0;
#X connect 29 0 44 0;
#X connect 30 0 45 0;
#X connect 31 0 46 0;
#X connect 32 0 47 0;
#X connect 33 0 48 0;
#X connect 34 0 49 0;
#X connect 35 0 50 0;
#X connect 36 0 51 0;
#X connect 38 0 52 0;
#X connect 39 0 53 0;
#X connect 40 0 54 0;
#X connect 41 0 55 0;
#X connect 42 0 56 0;
#X connect 43 0 57 0;
#X connect 44 0 58 0;
#X connect 45 0 59 0;
#X connect 46 0 60 0;
#X connect 47 0 61 0;
#X connect 48 0 62 0;
#X connect 49 0 63 0;
#X connect 50 0 64 0;
#X connect 51 0 65 0;
#X connect 66 0 67 0;
#X connect 67 0 26 0;
#X restore 88 316 pd CONSONANCE_CHOICE;
#X obj 91 411 cavoc~;
#X obj 259 40 pink~;
#X obj 303 370 dac~;
#X obj 553 85 pvtuner~;
#X text 550 40 spectrum quantizer \; takes scale;
#X obj 558 121 pvharm~;
#X obj 486 199 pvwarp~;
#X msg 75 23 \; pd dsp 1;
#X obj 161 22 loadbang;
#X obj 404 330 line;
#X msg 397 294 \$1 20;
#X floatatom 404 356 5 0 0 0 - - -, f 5;
#X obj 483 256 vsl 15 128 0 1 0 0 empty empty empty 0 -9 0 10 -232576
-1 -1 6300 1;
#X obj 317 320 *~;
#X floatatom 46 281 5 0 0 0 - - -, f 5;
#X text 357 22 * ADD ENVELOPPE;
#X floatatom 456 58 5 0 0 0 - - -, f 5;
#N canvas 0 50 958 966 OSC 0;
#X obj 89 148 unpackOSC;
#X obj 166 56 r eegx;
#X obj 96 117 spigot;
#X obj 145 95 tgl 15 0 empty empty empty 17 7 0 10 -262144 -1 -1 0
1;
#X obj 166 75 - 1;
#X obj 163 94 abs;
#X obj 72 27 udpreceive 9000;
#X obj 73 172 routeOSC /spectral;
#X floatatom 1086 410 5 0 0 0 - - -, f 5;
#X obj 1086 354 bng 15 250 50 0 empty empty empty 17 7 0 10 -262144
-1 -1;
#X obj 1105 333 r resetbase;
#X obj 1122 410 s gammaz;
#X floatatom 53 229 9 0 0 0 - - -, f 9;
#X floatatom 114 227 5 0 0 0 - - -, f 5;
#X floatatom 162 232 5 0 0 0 - - -, f 5;
#X floatatom 209 233 5 0 0 0 - - -, f 5;
#X floatatom 253 233 5 0 0 0 - - -, f 5;
#X obj 162 121 routeOSC /peaks;
#X obj 71 208 route /delta /theta /alpha /lobeta /hibeta /gamma;
#N canvas 952 50 958 966 peaks 0;
#X obj 272 75 route /delta /theta /alpha /lobeta /hibeta /gamma;
#X floatatom 273 102 5 0 0 0 - - -, f 5;
#X floatatom 321 102 5 0 0 0 - - -, f 5;
#X floatatom 370 102 5 0 0 0 - - -, f 5;
#X floatatom 418 102 5 0 0 0 - - -, f 5;
#X floatatom 467 102 5 0 0 0 - - -, f 5;
#X floatatom 515 102 5 0 0 0 - - -, f 5;
#X obj 273 56 inlet;
#X obj 612 180 s dpeak;
#X obj 614 161 s tpeak;
#X obj 613 142 s apeak;
#X obj 613 125 s lbpeak;
#X obj 613 107 s hbpeak;
#X obj 613 91 s gpeak;
#X obj 214 61 r dtrig;
#X obj 334 47 r ttrig;
#X obj 392 38 r atrig;
#X obj 453 41 r lbtrig;
#X obj 518 43 r hbtrig;
#X obj 580 45 r gtrig;
#X connect 0 0 1 0;
#X connect 0 1 2 0;
#X connect 0 2 3 0;
#X connect 0 3 4 0;
#X connect 0 4 5 0;
#X connect 0 5 6 0;
#X connect 1 0 8 0;
#X connect 2 0 9 0;
#X connect 3 0 10 0;
#X connect 4 0 11 0;
#X connect 5 0 12 0;
#X connect 6 0 13 0;
#X connect 7 0 0 0;
#X connect 14 0 1 0;
#X connect 15 0 2 0;
#X connect 16 0 3 0;
#X connect 17 0 4 0;
#X connect 18 0 5 0;
#X connect 19 0 6 0;
#X restore 480 34 pd peaks;
#N canvas 699 245 950 573 complexity 0;
#X obj 163 77 inlet;
#X obj 293 305 s hurstz;
#X obj 146 137 routeOSC /hurst /svd /higuchi;
#X obj 530 306 s svdz;
#X obj 734 334 s higuchiz;
#X connect 0 0 2 0;
#X connect 2 0 1 0;
#X connect 2 1 3 0;
#X connect 2 2 4 0;
#X restore 486 131 pd complexity;
#X obj 53 254 s deltaz;
#X obj 114 252 s thetaz;
#X obj 162 257 s alphaz;
#X obj 209 258 s lobetaz;
#X obj 253 258 s hibetaz;
#X floatatom 340 239 5 0 0 0 - - -, f 5;
#X obj 340 264 s gammaz;
#X obj 220 420 s ratioBAz;
#X obj 376 442 s ratioATz;
#X obj 206 341 /;
#X obj 372 387 /;
#X obj 542 389 outlet;
#X obj 586 291 /;
#X floatatom 586 317 5 0 0 0 - - -, f 5;
#X obj 645 356 s ratioBA;
#X connect 0 0 7 0;
#X connect 0 0 17 0;
#X connect 0 0 20 0;
#X connect 1 0 4 0;
#X connect 2 0 0 0;
#X connect 3 0 2 1;
#X connect 4 0 5 0;
#X connect 5 0 3 0;
#X connect 6 0 2 0;
#X connect 7 0 18 0;
#X connect 8 0 11 0;
#X connect 10 0 9 0;
#X connect 12 0 21 0;
#X connect 13 0 22 0;
#X connect 13 0 31 1;
#X connect 14 0 23 0;
#X connect 14 0 30 1;
#X connect 14 0 31 0;
#X connect 14 0 33 1;
#X connect 15 0 24 0;
#X connect 15 0 33 0;
#X connect 16 0 25 0;
#X connect 16 0 30 0;
#X connect 17 0 32 0;
#X connect 18 0 12 0;
#X connect 18 1 13 0;
#X connect 18 2 14 0;
#X connect 18 4 15 0;
#X connect 18 5 16 0;
#X connect 18 5 26 0;
#X connect 26 0 27 0;
#X connect 30 0 28 0;
#X connect 31 0 29 0;
#X connect 33 0 34 0;
#X connect 34 0 35 0;
#X restore 82 455 pd OSC python_power;
#X obj 719 730 recording;
#X obj 791 680 bng 15 250 50 0 empty empty empty 17 7 0 10 -262144
-1 -1;
#X obj 163 279 *~ 0.05;
#X floatatom 175 364 5 0 0 0 - - -, f 5;
#X obj 277 276 *~ 4.5;
#X obj 175 338 r hurstz;
#X obj 178 390 clip -2 2;
#X obj 178 416 zscale -2 2 0 0.3;
#X connect 0 0 64 0;
#X connect 1 0 30 0;
#X connect 2 0 1 0;
#X connect 4 0 5 0;
#X connect 5 0 3 0;
#X connect 18 0 20 0;
#X connect 19 0 20 1;
#X connect 20 0 22 0;
#X connect 21 0 23 0;
#X connect 21 1 24 0;
#X connect 22 0 25 0;
#X connect 25 0 26 0;
#X connect 26 0 21 0;
#X connect 28 0 25 1;
#X connect 30 0 4 0;
#X connect 31 0 30 4;
#X connect 31 0 5 3;
#X connect 41 0 66 0;
#X connect 42 0 1 1;
#X connect 45 0 41 0;
#X connect 52 0 51 0;
#X connect 53 0 55 0;
#X connect 54 0 53 0;
#X connect 55 0 57 1;
#X connect 56 0 54 0;
#X connect 57 0 46 0;
#X connect 57 0 46 1;
#X connect 57 0 62 0;
#X connect 57 0 62 1;
#X connect 58 0 43 0;
#X connect 60 0 41 1;
#X connect 61 0 35 0;
#X connect 63 0 62 2;
#X connect 66 0 57 0;
#X connect 67 0 65 0;
#X connect 67 0 68 0;
#X connect 68 0 69 0;
#X connect 69 0 58 0;
