#N canvas 0 50 450 300 12;
#X obj 48 33 tgl 55 0 empty empty STOP 2 25 0 22 -258113 -262144 -262144
0 1;
#X obj 130 87 s eegx;
#X obj 46 13 loadbang;
#N canvas 114 153 949 595 OSC 1;
#X obj 292 454 udpsend;
#X msg 302 380 connect 127.0.0.1 9997;
#X obj 71 352 packOSC;
#X floatatom 93 176 5 0 0 0 - - -;
#X floatatom 146 178 5 0 0 0 - - -;
#X obj 107 206 t b f;
#X obj 75 259 pack 0 0 0 0 0;
#X msg 75 314 send /EEG1/features/powers \$1 \$2 \$3 \$4 \$5;
#X floatatom 200 181 5 0 0 0 - - -;
#X obj 161 209 t b f;
#X floatatom 261 180 5 0 0 0 - - -;
#X obj 222 208 t b f;
#X floatatom 322 181 5 0 0 0 - - -;
#X obj 283 209 t b f;
#X obj 104 23 r deltaz;
#X obj 171 19 r thetaz;
#X obj 242 20 r alphaz;
#X obj 377 27 r gammaz;
#X obj 100 70 EEG_avg02;
#X obj 506 20 loadbang;
#X msg 506 41 1000;
#X obj 173 65 EEG_avg02;
#X obj 244 63 EEG_avg02;
#X obj 316 65 EEG_avg02;
#X obj 382 66 EEG_avg02;
#X floatatom 572 139 5 0 0 0 - - -;
#X floatatom 625 141 5 0 0 0 - - -;
#X obj 586 169 t b f;
#X obj 554 255 pack 0 0 0 0 0;
#X floatatom 679 144 5 0 0 0 - - -;
#X obj 640 172 t b f;
#X floatatom 740 143 5 0 0 0 - - -;
#X obj 701 171 t b f;
#X floatatom 801 144 5 0 0 0 - - -;
#X obj 762 172 t b f;
#X obj 584 66 EEG_avg02;
#X obj 985 16 loadbang;
#X msg 985 37 1000;
#X obj 652 61 EEG_avg02;
#X obj 723 59 EEG_avg02;
#X obj 795 61 EEG_avg02;
#X obj 861 62 EEG_avg02;
#X obj 583 19 r ratioBAz;
#X obj 681 23 r ratioATz;
#X msg 554 310 send /EEG1/features/ratios \$1 \$2 \$3 \$4 \$5;
#X obj 302 356 loadbang;
#X obj 294 485 tgl 15 0 empty empty empty 17 7 0 10 -262144 -1 -1 1
1;
#X msg 389 454 disconnect;
#X obj 511 390 r hurstz;
#X obj 513 412 EEG_avg02;
#X obj 316 22 r betaz;
#X obj 501 437 zscale -3 3 30 90;
#X obj 605 116 zscale -3 3 1 100;
#X obj 160 116 zscale -3 3 1 120;
#X msg 335 532 send /EEG1/features/complex \$1 \$2 \$3;
#X obj 618 381 EEG_avg02;
#X obj 736 438 EEG_avg02;
#X obj 618 357 r svdz;
#X obj 714 409 r higuchiz;
#X obj 582 492 pack f f f;
#X floatatom 579 373 5 0 0 0 - - -;
#X floatatom 714 430 5 0 0 0 - - -;
#X obj 708 461 zscale -3 3 30 100;
#X obj 501 458 clip 30 90;
#X obj 607 402 zscale -5 5 30 90;
#X obj 607 423 clip 30 90;
#X floatatom 583 40 5 0 0 0 - - -;
#X floatatom 681 44 5 0 0 0 - - -;
#X obj 98 95 zscale -3 3 1 120;
#X obj 229 91 zscale -3 3 1 120;
#X obj 370 91 zscale -3 31 120;
#X obj 295 117 zscale -3 3 1 120;
#X obj 552 97 zscale -3 3 1 120;
#X connect 0 0 46 0;
#X connect 1 0 0 0;
#X connect 2 0 0 0;
#X connect 3 0 6 0;
#X connect 4 0 5 0;
#X connect 5 0 6 0;
#X connect 5 1 6 1;
#X connect 6 0 7 0;
#X connect 7 0 2 0;
#X connect 8 0 9 0;
#X connect 9 0 6 0;
#X connect 9 1 6 2;
#X connect 10 0 11 0;
#X connect 11 0 6 0;
#X connect 11 1 6 3;
#X connect 12 0 13 0;
#X connect 13 0 6 0;
#X connect 13 1 6 4;
#X connect 14 0 18 0;
#X connect 15 0 21 0;
#X connect 16 0 22 0;
#X connect 17 0 24 0;
#X connect 18 0 68 0;
#X connect 19 0 20 0;
#X connect 20 0 24 2;
#X connect 20 0 23 2;
#X connect 20 0 22 2;
#X connect 20 0 21 2;
#X connect 20 0 18 2;
#X connect 20 0 49 2;
#X connect 20 0 55 2;
#X connect 20 0 56 2;
#X connect 21 0 53 0;
#X connect 22 0 69 0;
#X connect 23 0 71 0;
#X connect 24 0 70 0;
#X connect 25 0 28 0;
#X connect 26 0 27 0;
#X connect 27 0 28 0;
#X connect 27 1 28 1;
#X connect 28 0 44 0;
#X connect 29 0 30 0;
#X connect 30 0 28 0;
#X connect 30 1 28 2;
#X connect 31 0 32 0;
#X connect 32 0 28 0;
#X connect 32 1 28 3;
#X connect 33 0 34 0;
#X connect 34 0 28 0;
#X connect 34 1 28 4;
#X connect 35 0 72 0;
#X connect 36 0 37 0;
#X connect 37 0 41 2;
#X connect 37 0 40 2;
#X connect 37 0 39 2;
#X connect 37 0 38 2;
#X connect 37 0 35 2;
#X connect 38 0 52 0;
#X connect 39 0 29 0;
#X connect 40 0 31 0;
#X connect 41 0 33 0;
#X connect 42 0 66 0;
#X connect 42 0 35 0;
#X connect 42 0 72 0;
#X connect 43 0 52 0;
#X connect 43 0 67 0;
#X connect 43 0 38 0;
#X connect 44 0 2 0;
#X connect 45 0 1 0;
#X connect 47 0 0 0;
#X connect 48 0 49 0;
#X connect 49 0 51 0;
#X connect 50 0 23 0;
#X connect 51 0 63 0;
#X connect 52 0 26 0;
#X connect 53 0 4 0;
#X connect 54 0 2 0;
#X connect 55 0 64 0;
#X connect 56 0 62 0;
#X connect 57 0 60 0;
#X connect 57 0 55 0;
#X connect 58 0 61 0;
#X connect 58 0 56 0;
#X connect 59 0 54 0;
#X connect 62 0 59 2;
#X connect 63 0 59 0;
#X connect 64 0 65 0;
#X connect 65 0 59 1;
#X connect 68 0 3 0;
#X connect 69 0 8 0;
#X connect 70 0 12 0;
#X connect 71 0 10 0;
#X connect 72 0 25 0;
#X restore 52 161 pd OSC VIZU;
#N canvas -8 0 958 966 OSC 0;
#X obj 89 148 unpackOSC;
#X obj 166 56 r eegx;
#X obj 96 117 spigot;
#X obj 145 95 tgl 15 0 empty empty empty 17 7 0 10 -262144 -1 -1 1
1;
#X obj 166 75 - 1;
#X obj 163 94 abs;
#X obj 72 27 udpreceive 9000;
#X obj 73 172 routeOSC /spectral;
#X floatatom 1086 410 5 0 0 0 - - -;
#X obj 1086 354 bng 15 250 50 0 empty empty empty 17 7 0 10 -262144
-1 -1;
#X obj 1105 333 r resetbase;
#X obj 1122 410 s gammaz;
#X floatatom 53 229 9 0 0 0 - - -;
#X floatatom 114 227 5 0 0 0 - - -;
#X floatatom 162 232 5 0 0 0 - - -;
#X floatatom 209 233 5 0 0 0 - - -;
#X floatatom 253 233 5 0 0 0 - - -;
#X obj 162 121 routeOSC /peaks;
#X obj 71 208 route /delta /theta /alpha /lobeta /hibeta /gamma;
#N canvas 952 0 958 966 peaks 0;
#X obj 272 75 route /delta /theta /alpha /lobeta /hibeta /gamma;
#X floatatom 273 102 5 0 0 0 - - -;
#X floatatom 321 102 5 0 0 0 - - -;
#X floatatom 370 102 5 0 0 0 - - -;
#X floatatom 418 102 5 0 0 0 - - -;
#X floatatom 467 102 5 0 0 0 - - -;
#X floatatom 515 102 5 0 0 0 - - -;
#X obj 273 56 inlet;
#X obj 612 180 s dpeak;
#X obj 614 161 s tpeak;
#X obj 613 142 s apeak;
#X obj 613 125 s lbpeak;
#X obj 613 107 s hbpeak;
#X obj 613 91 s gpeak;
#X obj 214 61 r dtrig;
#X obj 334 47 r ttrig;
#X obj 392 38 r atrig;
#X obj 453 41 r lbtrig;
#X obj 518 43 r hbtrig;
#X obj 580 45 r gtrig;
#X connect 0 0 1 0;
#X connect 0 1 2 0;
#X connect 0 2 3 0;
#X connect 0 3 4 0;
#X connect 0 4 5 0;
#X connect 0 5 6 0;
#X connect 1 0 8 0;
#X connect 2 0 9 0;
#X connect 3 0 10 0;
#X connect 4 0 11 0;
#X connect 5 0 12 0;
#X connect 6 0 13 0;
#X connect 7 0 0 0;
#X connect 14 0 1 0;
#X connect 15 0 2 0;
#X connect 16 0 3 0;
#X connect 17 0 4 0;
#X connect 18 0 5 0;
#X connect 19 0 6 0;
#X restore 480 34 pd peaks;
#N canvas 699 245 950 573 complexity 0;
#X obj 163 77 inlet;
#X obj 293 305 s hurstz;
#X obj 146 137 routeOSC /hurst /svd /higuchi;
#X obj 530 306 s svdz;
#X obj 734 334 s higuchiz;
#X connect 0 0 2 0;
#X connect 2 0 1 0;
#X connect 2 1 3 0;
#X connect 2 2 4 0;
#X restore 486 131 pd complexity;
#X obj 53 254 s deltaz;
#X obj 114 252 s thetaz;
#X obj 162 257 s alphaz;
#X obj 209 258 s lobetaz;
#X obj 253 258 s hibetaz;
#X floatatom 340 239 5 0 0 0 - - -;
#X obj 340 264 s gammaz;
#X obj 220 420 s ratioBAz;
#X obj 376 442 s ratioATz;
#X obj 206 341 /;
#X obj 372 387 /;
#X connect 0 0 7 0;
#X connect 0 0 17 0;
#X connect 0 0 20 0;
#X connect 1 0 4 0;
#X connect 2 0 0 0;
#X connect 3 0 2 1;
#X connect 4 0 5 0;
#X connect 5 0 3 0;
#X connect 6 0 2 0;
#X connect 7 0 18 0;
#X connect 8 0 11 0;
#X connect 10 0 9 0;
#X connect 12 0 21 0;
#X connect 13 0 22 0;
#X connect 13 0 31 1;
#X connect 14 0 23 0;
#X connect 14 0 30 1;
#X connect 14 0 31 0;
#X connect 15 0 24 0;
#X connect 16 0 25 0;
#X connect 16 0 30 0;
#X connect 17 0 19 0;
#X connect 18 0 12 0;
#X connect 18 1 13 0;
#X connect 18 2 14 0;
#X connect 18 4 15 0;
#X connect 18 5 16 0;
#X connect 18 5 26 0;
#X connect 26 0 27 0;
#X connect 30 0 28 0;
#X connect 31 0 29 0;
#X restore 51 140 pd OSC python_power;
#X connect 0 0 1 0;
#X connect 2 0 0 0;
