#N canvas 0 50 450 300 12;
#X obj 48 33 tgl 55 0 empty empty STOP 2 25 0 22 -258113 -262144 -262144
0 1;
#X obj 130 87 s eegx;
#X obj 46 13 loadbang;
#N canvas 114 195 949 595 OSC 1;
#X obj 292 454 udpsend;
#X msg 302 380 connect 127.0.0.1 9997;
#X obj 71 352 packOSC;
#X floatatom 93 176 5 0 0 0 - - -;
#X floatatom 146 178 5 0 0 0 - - -;
#X obj 107 206 t b f;
#X obj 75 259 pack 0 0 0 0 0;
#X msg 75 314 send /EEG1/features/powers \$1 \$2 \$3 \$4 \$5;
#X floatatom 200 181 5 0 0 0 - - -;
#X obj 161 209 t b f;
#X floatatom 261 180 5 0 0 0 - - -;
#X obj 222 208 t b f;
#X floatatom 322 181 5 0 0 0 - - -;
#X obj 283 209 t b f;
#X obj 104 23 r deltaz;
#X obj 171 19 r thetaz;
#X obj 242 20 r alphaz;
#X obj 377 27 r gammaz;
#X obj 100 70 EEG_avg02;
#X obj 506 20 loadbang;
#X msg 506 41 1000;
#X obj 173 65 EEG_avg02;
#X obj 244 63 EEG_avg02;
#X obj 316 65 EEG_avg02;
#X obj 382 66 EEG_avg02;
#X floatatom 572 139 5 0 0 0 - - -;
#X floatatom 625 141 5 0 0 0 - - -;
#X obj 586 169 t b f;
#X obj 554 255 pack 0 0 0 0 0;
#X floatatom 679 144 5 0 0 0 - - -;
#X obj 640 172 t b f;
#X floatatom 740 143 5 0 0 0 - - -;
#X obj 701 171 t b f;
#X floatatom 801 144 5 0 0 0 - - -;
#X obj 762 172 t b f;
#X obj 584 66 EEG_avg02;
#X obj 985 16 loadbang;
#X msg 985 37 1000;
#X obj 652 61 EEG_avg02;
#X obj 723 59 EEG_avg02;
#X obj 795 61 EEG_avg02;
#X obj 861 62 EEG_avg02;
#X obj 583 19 r ratioBAz;
#X obj 681 23 r ratioATz;
#X msg 554 310 send /EEG1/features/ratios \$1 \$2 \$3 \$4 \$5;
#X obj 302 356 loadbang;
#X obj 294 485 tgl 15 0 empty empty empty 17 7 0 10 -262144 -1 -1 1
1;
#X msg 389 454 disconnect;
#X obj 511 390 r hurstz;
#X obj 513 412 EEG_avg02;
#X obj 316 22 r betaz;
#X obj 501 437 zscale -3 3 30 90;
#X obj 605 116 zscale -3 3 1 100;
#X obj 160 116 zscale -3 3 1 120;
#X msg 335 532 send /EEG1/features/complex \$1 \$2 \$3;
#X obj 618 381 EEG_avg02;
#X obj 736 438 EEG_avg02;
#X obj 618 357 r svdz;
#X obj 714 409 r higuchiz;
#X obj 582 492 pack f f f;
#X floatatom 579 373 5 0 0 0 - - -;
#X floatatom 714 430 5 0 0 0 - - -;
#X obj 708 461 zscale -3 3 30 100;
#X obj 501 458 clip 30 90;
#X obj 607 402 zscale -5 5 30 90;
#X obj 607 423 clip 30 90;
#X floatatom 583 40 5 0 0 0 - - -;
#X floatatom 681 44 5 0 0 0 - - -;
#X obj 98 95 zscale -3 3 1 120;
#X obj 229 91 zscale -3 3 1 120;
#X obj 370 91 zscale -3 31 120;
#X obj 295 117 zscale -3 3 1 120;
#X obj 552 97 zscale -3 3 1 120;
#X connect 0 0 46 0;
#X connect 1 0 0 0;
#X connect 2 0 0 0;
#X connect 3 0 6 0;
#X connect 4 0 5 0;
#X connect 5 0 6 0;
#X connect 5 1 6 1;
#X connect 6 0 7 0;
#X connect 7 0 2 0;
#X connect 8 0 9 0;
#X connect 9 0 6 0;
#X connect 9 1 6 2;
#X connect 10 0 11 0;
#X connect 11 0 6 0;
#X connect 11 1 6 3;
#X connect 12 0 13 0;
#X connect 13 0 6 0;
#X connect 13 1 6 4;
#X connect 14 0 18 0;
#X connect 15 0 21 0;
#X connect 16 0 22 0;
#X connect 17 0 24 0;
#X connect 18 0 68 0;
#X connect 19 0 20 0;
#X connect 20 0 24 2;
#X connect 20 0 23 2;
#X connect 20 0 22 2;
#X connect 20 0 21 2;
#X connect 20 0 18 2;
#X connect 20 0 49 2;
#X connect 20 0 55 2;
#X connect 20 0 56 2;
#X connect 21 0 53 0;
#X connect 22 0 69 0;
#X connect 23 0 71 0;
#X connect 24 0 70 0;
#X connect 25 0 28 0;
#X connect 26 0 27 0;
#X connect 27 0 28 0;
#X connect 27 1 28 1;
#X connect 28 0 44 0;
#X connect 29 0 30 0;
#X connect 30 0 28 0;
#X connect 30 1 28 2;
#X connect 31 0 32 0;
#X connect 32 0 28 0;
#X connect 32 1 28 3;
#X connect 33 0 34 0;
#X connect 34 0 28 0;
#X connect 34 1 28 4;
#X connect 35 0 72 0;
#X connect 36 0 37 0;
#X connect 37 0 41 2;
#X connect 37 0 40 2;
#X connect 37 0 39 2;
#X connect 37 0 38 2;
#X connect 37 0 35 2;
#X connect 38 0 52 0;
#X connect 39 0 29 0;
#X connect 40 0 31 0;
#X connect 41 0 33 0;
#X connect 42 0 66 0;
#X connect 42 0 35 0;
#X connect 42 0 72 0;
#X connect 43 0 52 0;
#X connect 43 0 67 0;
#X connect 43 0 38 0;
#X connect 44 0 2 0;
#X connect 45 0 1 0;
#X connect 47 0 0 0;
#X connect 48 0 49 0;
#X connect 49 0 51 0;
#X connect 50 0 23 0;
#X connect 51 0 63 0;
#X connect 52 0 26 0;
#X connect 53 0 4 0;
#X connect 54 0 2 0;
#X connect 55 0 64 0;
#X connect 56 0 62 0;
#X connect 57 0 60 0;
#X connect 57 0 55 0;
#X connect 58 0 61 0;
#X connect 58 0 56 0;
#X connect 59 0 54 0;
#X connect 62 0 59 2;
#X connect 63 0 59 0;
#X connect 64 0 65 0;
#X connect 65 0 59 1;
#X connect 68 0 3 0;
#X connect 69 0 8 0;
#X connect 70 0 12 0;
#X connect 71 0 10 0;
#X connect 72 0 25 0;
#X restore 52 161 pd OSC VIZU;
#N canvas -8 0 958 966 OSC 0;
#X obj 89 148 unpackOSC;
#X obj 166 56 r eegx;
#X obj 96 117 spigot;
#X obj 145 95 tgl 15 0 empty empty empty 17 7 0 10 -262144 -1 -1 1
1;
#X obj 166 75 - 1;
#X obj 163 94 abs;
#X obj 72 27 udpreceive 9000;
#X obj 73 172 routeOSC /spectral;
#X floatatom 58 346 5 0 0 0 - - -;
#X floatatom 116 346 5 0 0 0 - - -;
#X floatatom 175 347 5 0 0 0 - - -;
#X obj 125 286 bng 15 250 50 0 empty empty empty 17 7 0 10 -262144
-1 -1;
#X obj 175 291 bng 15 250 50 0 empty empty empty 17 7 0 10 -262144
-1 -1;
#X obj 234 408 /;
#X floatatom 234 426 5 0 0 0 - - -;
#X floatatom 234 479 5 0 0 0 - - -;
#X floatatom 293 480 5 0 0 0 - - -;
#X floatatom 351 479 5 0 0 0 - - -;
#X obj 291 432 bng 15 250 50 0 empty empty empty 17 7 0 10 -262144
-1 -1;
#X obj 351 430 bng 15 250 50 0 empty empty empty 17 7 0 10 -262144
-1 -1;
#X obj 353 507 s ratioBAz;
#X text 59 366 Mean;
#X text 118 366 Std;
#X text 168 365 Z score;
#X floatatom 299 345 5 0 0 0 - - -;
#X floatatom 357 345 5 0 0 0 - - -;
#X floatatom 416 346 5 0 0 0 - - -;
#X obj 357 285 bng 15 250 50 0 empty empty empty 17 7 0 10 -262144
-1 -1;
#X obj 416 290 bng 15 250 50 0 empty empty empty 17 7 0 10 -262144
-1 -1;
#X text 300 365 Mean;
#X text 359 365 Std;
#X text 409 364 Z score;
#X obj 116 259 r baseline1;
#X obj 357 258 r baseline1;
#X obj 290 406 r baseline1;
#X obj 480 239 r resetbase;
#X obj 299 311 baseline_computation;
#X obj 58 312 baseline_computation;
#X obj 234 451 baseline_computation;
#X floatatom 524 335 5 0 0 0 - - -;
#X floatatom 582 335 5 0 0 0 - - -;
#X floatatom 641 336 5 0 0 0 - - -;
#X obj 582 275 bng 15 250 50 0 empty empty empty 17 7 0 10 -262144
-1 -1;
#X obj 641 280 bng 15 250 50 0 empty empty empty 17 7 0 10 -262144
-1 -1;
#X text 525 355 Mean;
#X text 584 355 Std;
#X text 634 354 Z score;
#X obj 582 248 r baseline1;
#X obj 689 237 r resetbase;
#X obj 524 301 baseline_computation;
#X floatatom 737 409 9 0 0 0 - - -;
#X floatatom 797 406 9 0 0 0 - - -;
#X floatatom 866 411 5 0 0 0 - - -;
#X obj 807 350 bng 15 250 50 0 empty empty empty 17 7 0 10 -262144
-1 -1;
#X obj 866 355 bng 15 250 50 0 empty empty empty 17 7 0 10 -262144
-1 -1;
#X text 750 430 Mean;
#X text 809 430 Std;
#X text 859 429 Z score;
#X obj 807 323 r baseline1;
#X obj 891 331 r resetbase;
#X obj 749 376 baseline_computation;
#X floatatom 969 409 5 0 0 0 - - -;
#X floatatom 1027 409 5 0 0 0 - - -;
#X floatatom 1086 410 5 0 0 0 - - -;
#X obj 1027 349 bng 15 250 50 0 empty empty empty 17 7 0 10 -262144
-1 -1;
#X obj 1086 354 bng 15 250 50 0 empty empty empty 17 7 0 10 -262144
-1 -1;
#X text 970 429 Mean;
#X text 1029 429 Std;
#X text 1079 428 Z score;
#X obj 1027 322 r baseline1;
#X obj 1105 333 r resetbase;
#X obj 969 375 baseline_computation;
#X obj 1122 410 s gammaz;
#X obj 469 399 /;
#X floatatom 469 417 5 0 0 0 - - -;
#X floatatom 469 470 5 0 0 0 - - -;
#X floatatom 528 471 5 0 0 0 - - -;
#X floatatom 586 470 5 0 0 0 - - -;
#X obj 526 423 bng 15 250 50 0 empty empty empty 17 7 0 10 -262144
-1 -1;
#X obj 586 421 bng 15 250 50 0 empty empty empty 17 7 0 10 -262144
-1 -1;
#X obj 525 397 r baseline1;
#X obj 469 442 baseline_computation;
#X obj 588 498 s ratioATz;
#X obj 211 346 s deltaz;
#X obj 452 346 s thetaz;
#X obj 677 336 s alphaz;
#X floatatom 53 229 9 0 0 0 - - -;
#X floatatom 114 227 5 0 0 0 - - -;
#X floatatom 162 232 5 0 0 0 - - -;
#X floatatom 209 233 5 0 0 0 - - -;
#X floatatom 253 233 5 0 0 0 - - -;
#X obj 162 121 routeOSC /peaks;
#X obj 71 208 route /delta /theta /alpha /lobeta /hibeta /gamma;
#X obj 902 411 s hibetaz;
#X floatatom 722 544 9 0 0 0 - - -;
#X floatatom 782 541 9 0 0 0 - - -;
#X floatatom 851 546 5 0 0 0 - - -;
#X obj 792 485 bng 15 250 50 0 empty empty empty 17 7 0 10 -262144
-1 -1;
#X obj 851 490 bng 15 250 50 0 empty empty empty 17 7 0 10 -262144
-1 -1;
#X text 735 565 Mean;
#X text 794 565 Std;
#X text 844 564 Z score;
#X obj 792 458 r baseline1;
#X obj 875 459 r resetbase;
#X obj 734 511 baseline_computation;
#X obj 887 546 s lobetaz;
#N canvas 952 0 958 966 peaks 0;
#X obj 272 75 route /delta /theta /alpha /lobeta /hibeta /gamma;
#X floatatom 273 102 5 0 0 0 - - -;
#X floatatom 321 102 5 0 0 0 - - -;
#X floatatom 370 102 5 0 0 0 - - -;
#X floatatom 418 102 5 0 0 0 - - -;
#X floatatom 467 102 5 0 0 0 - - -;
#X floatatom 515 102 5 0 0 0 - - -;
#X obj 311 472 * 32;
#X obj 356 485 * 32;
#X obj 396 474 * 32;
#X obj 448 472 * 32;
#X obj 502 467 * 32;
#X obj 542 464 * 32;
#X obj 279 577 s deltapeak;
#X obj 360 579 s thetapeak;
#X obj 385 556 s alphapeak;
#X obj 446 539 s lobetapeak;
#X obj 484 562 s hibetapeak;
#X obj 540 531 s gammapeak;
#X obj 618 455 r peakmult;
#X obj 335 325 avgORno thetapeakclock;
#X obj 357 347 avgORno alphapeakclock;
#X obj 441 303 avgORno lobetapeakclock;
#X obj 477 332 avgORno hibetapeakclock;
#X floatatom 288 346 5 0 0 0 - - -;
#X obj 294 304 avgORno deltapeakclock;
#X floatatom 408 496 5 0 0 0 - - -;
#X obj 273 56 inlet;
#X text 10 11 Choose between peaks to generate ratios that alter the
octave;
#X floatatom 322 365 5 0 0 0 - - -;
#X obj 618 474 expr if ($f1 == 0 \, 32 \, $f1);
#X obj 612 180 s dpeak;
#X obj 614 161 s tpeak;
#X obj 613 142 s apeak;
#X obj 613 125 s lbpeak;
#X obj 613 107 s hbpeak;
#X obj 613 91 s gpeak;
#X floatatom 311 493 5 0 0 0 - - -;
#X floatatom 356 506 5 0 0 0 - - -;
#X floatatom 357 368 5 0 0 0 - - -;
#X floatatom 471 319 5 0 0 0 - - -;
#X floatatom 492 347 5 0 0 0 - - -;
#X floatatom 504 384 5 0 0 0 - - -;
#X floatatom 618 495 5 0 0 0 - - -;
#X obj 618 515 t b f;
#X obj 98 41 loadbang;
#X msg 137 79 2.4;
#X msg 138 104 4.6;
#X msg 140 123 10.2;
#X msg 141 148 16.2;
#X msg 142 170 23.5;
#X msg 143 195 33;
#X obj 100 61 bng 15 250 50 0 empty empty empty 17 7 0 10 -262144 -1
-1;
#N canvas 0 50 760 549 RawPeaksBounded 0;
#X obj 620 53 r gpeak;
#X obj 618 78 between1n2;
#X floatatom 618 99 5 0 0 0 - - -;
#X obj 618 119 s gpeakbound;
#X obj 523 73 between1n2;
#X obj 525 48 r hbpeak;
#X obj 523 114 s hbpeakbound;
#X floatatom 523 94 5 0 0 0 - - -;
#X obj 432 76 between1n2;
#X floatatom 432 97 5 0 0 0 - - -;
#X obj 337 71 between1n2;
#X floatatom 337 92 5 0 0 0 - - -;
#X obj 243 79 between1n2;
#X floatatom 243 100 5 0 0 0 - - -;
#X obj 148 74 between1n2;
#X floatatom 148 95 5 0 0 0 - - -;
#X obj 150 49 r dpeak;
#X obj 148 115 s dpeakbound;
#X obj 245 54 r tpeak;
#X obj 243 120 s tpeakbound;
#X obj 339 46 r apeak;
#X obj 337 112 s apeakbound;
#X obj 434 51 r lbpeak;
#X obj 432 117 s lbpeakbound;
#X connect 0 0 1 0;
#X connect 1 0 2 0;
#X connect 2 0 3 0;
#X connect 4 0 7 0;
#X connect 5 0 4 0;
#X connect 7 0 6 0;
#X connect 8 0 9 0;
#X connect 9 0 23 0;
#X connect 10 0 11 0;
#X connect 11 0 21 0;
#X connect 12 0 13 0;
#X connect 13 0 19 0;
#X connect 14 0 15 0;
#X connect 15 0 17 0;
#X connect 16 0 14 0;
#X connect 18 0 12 0;
#X connect 20 0 10 0;
#X connect 22 0 8 0;
#X restore 84 519 pd RawPeaksBounded;
#X obj 373 747 bng 15 250 50 0 empty empty empty 17 7 0 10 -262144
-1 -1;
#X obj 342 793 EEG_avg 2000;
#X floatatom 424 704 5 0 0 0 - - -;
#X floatatom 305 698 5 0 0 0 - - -;
#X floatatom 342 814 5 0 0 0 - - -;
#X obj 214 61 r dtrig;
#X floatatom 763 289 5 0 0 0 - - -;
#X floatatom 765 332 5 0 0 0 - - -;
#X floatatom 764 376 5 0 0 0 - - -;
#X obj 764 142 EEG_peak2ms deltaAVG deltaMS deltacomp dtrig;
#X floatatom 764 163 5 0 0 0 - - -;
#X floatatom 766 206 5 0 0 0 - - -;
#X floatatom 765 250 5 0 0 0 - - -;
#X obj 504 363 avgORno gammapeakclock;
#X obj 766 185 EEG_peak2ms thetaAVG thetaMS thetacomp ttrig;
#X obj 765 229 EEG_peak2ms alphaAVG alphaMS alphacomp atrig;
#X obj 763 268 EEG_peak2ms lobetaAVG lobetaMS lobetacomp lbtrig;
#X obj 765 311 EEG_peak2ms hibetaAVG hibetaMS hibetacomp hbtrig;
#X obj 764 355 EEG_peak2ms gammaAVG gammaMS gammacomp gtrig;
#X obj 334 47 r ttrig;
#X obj 392 38 r atrig;
#X obj 453 41 r lbtrig;
#X obj 518 43 r hbtrig;
#X obj 580 45 r gtrig;
#X obj 709 141 bng 15 250 50 0 empty empty empty 17 7 0 10 -262144
-1 -1;
#X floatatom 579 767 5 0 0 0 - - -;
#X floatatom 579 820 5 0 0 0 - - -;
#X floatatom 638 821 5 0 0 0 - - -;
#X floatatom 696 820 5 0 0 0 - - -;
#X obj 636 773 bng 15 250 50 0 empty empty empty 17 7 0 10 -262144
-1 -1;
#X obj 696 771 bng 15 250 50 0 empty empty empty 17 7 0 10 -262144
-1 -1;
#X obj 635 747 r baseline1;
#X obj 714 748 r resetbase;
#X obj 579 792 baseline_computation;
#X obj 579 743 r dpeak;
#X text 581 840 Mean;
#X text 640 840 Std;
#X text 690 839 Z score;
#X connect 0 0 1 0;
#X connect 0 1 2 0;
#X connect 0 2 3 0;
#X connect 0 3 4 0;
#X connect 0 4 5 0;
#X connect 0 5 6 0;
#X connect 1 0 25 0;
#X connect 1 0 31 0;
#X connect 2 0 32 0;
#X connect 2 0 20 0;
#X connect 3 0 33 0;
#X connect 3 0 21 0;
#X connect 4 0 34 0;
#X connect 4 0 22 0;
#X connect 5 0 35 0;
#X connect 5 0 23 0;
#X connect 6 0 36 0;
#X connect 6 0 67 0;
#X connect 7 0 13 0;
#X connect 7 0 37 0;
#X connect 8 0 14 0;
#X connect 8 0 38 0;
#X connect 9 0 15 0;
#X connect 9 0 26 0;
#X connect 10 0 16 0;
#X connect 11 0 17 0;
#X connect 12 0 18 0;
#X connect 19 0 30 0;
#X connect 20 0 29 0;
#X connect 21 0 39 0;
#X connect 22 0 40 0;
#X connect 23 0 41 0;
#X connect 24 0 7 0;
#X connect 25 0 24 0;
#X connect 27 0 0 0;
#X connect 29 0 8 0;
#X connect 30 0 43 0;
#X connect 39 0 9 0;
#X connect 40 0 10 0;
#X connect 41 0 11 0;
#X connect 42 0 12 0;
#X connect 43 0 44 0;
#X connect 44 0 39 0;
#X connect 44 0 40 0;
#X connect 44 0 41 0;
#X connect 44 0 42 0;
#X connect 44 0 24 0;
#X connect 44 0 29 0;
#X connect 44 1 12 1;
#X connect 44 1 8 1;
#X connect 44 1 11 1;
#X connect 44 1 10 1;
#X connect 44 1 9 1;
#X connect 44 1 7 1;
#X connect 45 0 46 0;
#X connect 45 0 51 0;
#X connect 45 0 50 0;
#X connect 45 0 49 0;
#X connect 45 0 48 0;
#X connect 45 0 47 0;
#X connect 46 0 1 0;
#X connect 47 0 2 0;
#X connect 48 0 3 0;
#X connect 49 0 4 0;
#X connect 50 0 5 0;
#X connect 51 0 6 0;
#X connect 52 0 46 0;
#X connect 52 0 51 0;
#X connect 52 0 50 0;
#X connect 52 0 49 0;
#X connect 52 0 48 0;
#X connect 52 0 47 0;
#X connect 54 0 55 1;
#X connect 55 0 58 0;
#X connect 56 0 54 0;
#X connect 56 0 55 2;
#X connect 57 0 55 0;
#X connect 59 0 1 0;
#X connect 60 0 22 1;
#X connect 61 0 23 1;
#X connect 62 0 67 1;
#X connect 63 0 64 0;
#X connect 63 0 78 0;
#X connect 64 0 25 1;
#X connect 65 0 20 1;
#X connect 66 0 21 1;
#X connect 67 0 42 0;
#X connect 68 0 65 0;
#X connect 69 0 66 0;
#X connect 70 0 60 0;
#X connect 71 0 61 0;
#X connect 72 0 62 0;
#X connect 73 0 2 0;
#X connect 74 0 3 0;
#X connect 75 0 4 0;
#X connect 76 0 5 0;
#X connect 77 0 6 0;
#X connect 79 0 87 0;
#X connect 83 0 87 1;
#X connect 84 0 87 2;
#X connect 85 0 83 0;
#X connect 86 0 84 0;
#X connect 87 0 80 0;
#X connect 87 1 81 0;
#X connect 87 2 82 0;
#X connect 88 0 79 0;
#X restore 480 34 pd peaks;
#N canvas 1274 479 450 300 complexity 0;
#X obj 163 77 inlet;
#X floatatom 176 264 5 0 0 0 - - -;
#X floatatom 234 264 5 0 0 0 - - -;
#X floatatom 293 265 5 0 0 0 - - -;
#X obj 234 204 bng 15 250 50 0 empty empty empty 17 7 0 10 -262144
-1 -1;
#X obj 293 209 bng 15 250 50 0 empty empty empty 17 7 0 10 -262144
-1 -1;
#X text 177 284 Mean;
#X text 236 284 Std;
#X text 286 283 Z score;
#X obj 234 177 r baseline1;
#X obj 176 230 baseline_computation;
#X floatatom 176 208 5 0 0 0 - - -;
#X obj 293 305 s hurstz;
#X obj 146 137 routeOSC /hurst /svd /higuchi;
#X obj 328 196 r resetbase;
#X floatatom 413 265 5 0 0 0 - - -;
#X floatatom 471 265 5 0 0 0 - - -;
#X floatatom 530 266 5 0 0 0 - - -;
#X obj 471 205 bng 15 250 50 0 empty empty empty 17 7 0 10 -262144
-1 -1;
#X obj 530 210 bng 15 250 50 0 empty empty empty 17 7 0 10 -262144
-1 -1;
#X text 414 285 Mean;
#X text 473 285 Std;
#X text 523 284 Z score;
#X obj 471 178 r baseline1;
#X obj 413 231 baseline_computation;
#X floatatom 413 209 5 0 0 0 - - -;
#X obj 565 197 r resetbase;
#X obj 530 306 s svdz;
#X floatatom 617 293 5 0 0 0 - - -;
#X floatatom 675 293 5 0 0 0 - - -;
#X floatatom 734 294 5 0 0 0 - - -;
#X obj 675 233 bng 15 250 50 0 empty empty empty 17 7 0 10 -262144
-1 -1;
#X obj 734 238 bng 15 250 50 0 empty empty empty 17 7 0 10 -262144
-1 -1;
#X text 618 313 Mean;
#X text 677 313 Std;
#X text 727 312 Z score;
#X obj 675 206 r baseline1;
#X obj 617 259 baseline_computation;
#X floatatom 617 237 5 0 0 0 - - -;
#X obj 722 182 r resetbase;
#X obj 734 334 s higuchiz;
#X connect 0 0 13 0;
#X connect 3 0 12 0;
#X connect 4 0 10 1;
#X connect 5 0 10 2;
#X connect 9 0 4 0;
#X connect 10 0 1 0;
#X connect 10 1 2 0;
#X connect 10 2 3 0;
#X connect 11 0 10 0;
#X connect 13 0 11 0;
#X connect 13 1 25 0;
#X connect 13 2 38 0;
#X connect 14 0 5 0;
#X connect 17 0 27 0;
#X connect 18 0 24 1;
#X connect 19 0 24 2;
#X connect 23 0 18 0;
#X connect 24 0 15 0;
#X connect 24 1 16 0;
#X connect 24 2 17 0;
#X connect 25 0 24 0;
#X connect 26 0 19 0;
#X connect 30 0 40 0;
#X connect 31 0 37 1;
#X connect 32 0 37 2;
#X connect 36 0 31 0;
#X connect 37 0 28 0;
#X connect 37 1 29 0;
#X connect 37 2 30 0;
#X connect 38 0 37 0;
#X connect 39 0 32 0;
#X restore 486 131 pd complexity;
#X obj 723 72 s baseline1;
#X obj 728 29 bng 15 250 50 0 empty empty empty 17 7 0 10 -262144 -1
-1;
#X obj 740 149 s resetbase;
#X obj 741 117 bng 15 250 50 0 empty empty empty 17 7 0 10 -262144
-1 -1;
#X connect 0 0 7 0;
#X connect 0 0 91 0;
#X connect 0 0 107 0;
#X connect 1 0 4 0;
#X connect 2 0 0 0;
#X connect 3 0 2 1;
#X connect 4 0 5 0;
#X connect 5 0 3 0;
#X connect 6 0 2 0;
#X connect 7 0 92 0;
#X connect 10 0 83 0;
#X connect 11 0 37 1;
#X connect 12 0 37 2;
#X connect 13 0 14 0;
#X connect 14 0 38 0;
#X connect 17 0 20 0;
#X connect 18 0 38 1;
#X connect 19 0 38 2;
#X connect 26 0 84 0;
#X connect 27 0 36 1;
#X connect 28 0 36 2;
#X connect 32 0 11 0;
#X connect 33 0 27 0;
#X connect 34 0 18 0;
#X connect 35 0 12 0;
#X connect 35 0 28 0;
#X connect 35 0 19 0;
#X connect 35 0 79 0;
#X connect 36 0 24 0;
#X connect 36 1 25 0;
#X connect 36 2 26 0;
#X connect 37 0 8 0;
#X connect 37 1 9 0;
#X connect 37 2 10 0;
#X connect 38 0 15 0;
#X connect 38 1 16 0;
#X connect 38 2 17 0;
#X connect 41 0 85 0;
#X connect 42 0 49 1;
#X connect 43 0 49 2;
#X connect 47 0 42 0;
#X connect 48 0 43 0;
#X connect 49 0 39 0;
#X connect 49 1 40 0;
#X connect 49 2 41 0;
#X connect 52 0 93 0;
#X connect 53 0 60 1;
#X connect 54 0 60 2;
#X connect 58 0 53 0;
#X connect 59 0 54 0;
#X connect 60 0 50 0;
#X connect 60 1 51 0;
#X connect 60 2 52 0;
#X connect 63 0 72 0;
#X connect 64 0 71 1;
#X connect 65 0 71 2;
#X connect 69 0 64 0;
#X connect 70 0 65 0;
#X connect 71 0 61 0;
#X connect 71 1 62 0;
#X connect 71 2 63 0;
#X connect 73 0 74 0;
#X connect 74 0 81 0;
#X connect 77 0 82 0;
#X connect 78 0 81 1;
#X connect 79 0 81 2;
#X connect 80 0 78 0;
#X connect 81 0 75 0;
#X connect 81 1 76 0;
#X connect 81 2 77 0;
#X connect 86 0 37 0;
#X connect 87 0 36 0;
#X connect 87 0 73 1;
#X connect 88 0 49 0;
#X connect 88 0 13 1;
#X connect 88 0 73 0;
#X connect 89 0 60 0;
#X connect 89 0 13 0;
#X connect 90 0 71 0;
#X connect 91 0 106 0;
#X connect 92 0 86 0;
#X connect 92 1 87 0;
#X connect 92 2 88 0;
#X connect 92 3 104 0;
#X connect 92 4 89 0;
#X connect 92 5 90 0;
#X connect 96 0 105 0;
#X connect 97 0 104 1;
#X connect 98 0 104 2;
#X connect 102 0 97 0;
#X connect 103 0 98 0;
#X connect 104 0 94 0;
#X connect 104 1 95 0;
#X connect 104 2 96 0;
#X connect 109 0 108 0;
#X connect 111 0 110 0;
#X restore 51 140 pd OSC python_power;
#X connect 0 0 1 0;
#X connect 2 0 0 0;
