#N canvas 203 175 1433 710 12;
#N canvas 366 129 1434 725 routing 0;
#X obj 108 210 hradio 15 1 0 6 empty empty empty 0 -8 0 10 -256411
-1 -1 4;
#X obj 203 191 hradio 15 1 0 6 empty empty empty 0 -8 0 10 -175351
-1 -1 4;
#X obj 203 210 hradio 15 1 0 6 empty empty empty 0 -8 0 10 -147377
-1 -1 1;
#X obj 107 129 hradio 15 1 0 8 empty empty empty 0 -8 0 10 -262144
-1 -1 1;
#X text 457 61 Add control of wideness in Harmonic Mode 1 (span of
pitches);
#X text 106 166 HARMONIC MODE 1 // Fundamental + 1 ratio;
#X text 302 189 Numerator;
#X text 302 209 Denominator;
#X text 118 188 Fundamental;
#X text 106 149 HARMONIC MODE 0 // Five peak values;
#X text 107 231 HARMONIC MODE 2 // Fundamental + 2 ratios;
#X text 108 329 HARMONIC MODE 3 //;
#X obj 263 128 hradio 15 1 0 3 empty empty empty 0 -8 0 10 -232576
-1 -1 0;
#X text 258 103 Quantize;
#X text 322 118 1 = 1/4 tone;
#X text 322 104 0 = Raw;
#X text 322 133 2 = 1/2 tone;
#X text 455 80 V1-5 ramptime (2e inlet of line object);
#X obj 108 280 hradio 15 1 0 6 empty empty empty 0 -8 0 10 -256411
-1 -1 1;
#X obj 203 251 hradio 15 1 0 6 empty empty empty 0 -8 0 10 -175351
-1 -1 3;
#X obj 203 270 hradio 15 1 0 6 empty empty empty 0 -8 0 10 -147377
-1 -1 1;
#X text 118 258 Fundamental;
#X obj 203 289 hradio 15 1 0 6 empty empty empty 0 -8 0 10 -175351
-1 -1 2;
#X obj 203 308 hradio 15 1 0 6 empty empty empty 0 -8 0 10 -147377
-1 -1 4;
#X text 302 249 Numerator 1;
#X text 302 269 Denominator 1;
#X text 302 287 Numerator 2;
#X text 302 307 Denominator 2;
#X obj 376 62 loadbang;
#X msg 376 85 0;
#X obj 99 63 loadbang;
#X msg 57 88 1;
#X msg 132 86 3;
#X msg 99 86 2;
#X msg 68 456 send MOD1_ratio_denom \$1;
#X msg 19 400 connect localhost 3000;
#X obj 349 643 netsend;
#X msg 258 455 send MOD1_ratio_num \$1;
#X msg 415 259 send quantize \$1;
#X msg 378 401 send MOD1_fund \$1;
#X msg 438 454 send HMOD \$1;
#X obj 29 347 loadbang;
#X obj 782 365 r deltaAVG;
#X obj 781 386 r thetaAVG;
#X obj 782 408 r alphaAVG;
#X obj 776 429 r lobetaAVG;
#X obj 776 450 r hibetaAVG;
#X obj 781 468 r gammaAVG;
#X msg 537 455 send deltaAVG \$1;
#X msg 538 490 send deltaAVG \$1;
#X msg 537 524 send deltaAVG \$1;
#X msg 538 559 send deltaAVG \$1;
#X msg 536 589 send deltaAVG \$1;
#X msg 537 624 send deltaAVG \$1;
#X obj 802 138 r deltasub;
#X obj 806 181 r thetasub;
#X obj 805 199 r alphasub;
#X obj 803 218 r lobetasub;
#X obj 803 241 r hibetasub;
#X obj 805 269 r gammasub;
#X msg 604 190 send deltasub \$1;
#X msg 606 218 send thetasub \$1;
#X msg 606 241 send alphasub \$1;
#X msg 604 270 send lobetasub \$1;
#X msg 606 298 send hibetasub \$1;
#X msg 606 321 send gammasub \$1;
#X obj 796 538 r avgsnap;
#X msg 796 601 send avgsnap \$1;
#X obj 1026 108 r Noct;
#X obj 1026 159 r octval;
#X obj 1027 207 r peaknum;
#X obj 1028 263 r peakdenom;
#X msg 1026 134 send Noct \$1;
#X msg 1026 185 send octval \$1;
#X msg 1027 233 send peaknum \$1;
#X msg 1028 289 send peakdenom \$1;
#X obj 1035 457 r deltacomp;
#X obj 1037 539 r thetacomp;
#X obj 1041 646 r alphacomp;
#X obj 1169 457 r lobetacomp;
#X obj 1178 552 r hibetacomp;
#X obj 1181 638 r gammacomp;
#X obj 1037 367 r peaktrig;
#X msg 1033 512 send deltacomp \$1;
#X msg 1034 598 send thetacomp \$1;
#X msg 1038 703 send alphacomp \$1;
#X msg 1169 506 send lobetacomp \$1;
#X msg 1181 604 send hibetacomp \$1;
#X msg 1181 698 send gammacomp \$1;
#X msg 1038 425 send peaktrig \$1;
#X msg 1035 483 1;
#X msg 1169 483 1;
#X msg 1178 578 1;
#X msg 1037 565 1;
#X msg 1041 672 1;
#X msg 1181 664 1;
#X text 106 105 Harmonic Mode;
#X obj 1246 57 r ratio;
#X obj 1228 161 r index1;
#X obj 1229 228 r index2;
#X obj 1235 300 r index3;
#X obj 1234 355 r index4;
#X msg 1246 83 send ratio \$1;
#X msg 1228 187 send index1 \$1;
#X msg 1229 254 send index2 \$1;
#X msg 1235 326 send index3 \$1;
#X msg 1234 381 send index4 \$1;
#X msg 1037 393 1;
#X connect 0 0 39 0;
#X connect 1 0 37 0;
#X connect 2 0 34 0;
#X connect 3 0 40 0;
#X connect 12 0 38 0;
#X connect 28 0 29 0;
#X connect 29 0 12 0;
#X connect 30 0 31 0;
#X connect 30 0 32 0;
#X connect 30 0 33 0;
#X connect 31 0 3 0;
#X connect 32 0 1 0;
#X connect 33 0 2 0;
#X connect 34 0 36 0;
#X connect 35 0 36 0;
#X connect 37 0 36 0;
#X connect 38 0 36 0;
#X connect 39 0 36 0;
#X connect 40 0 36 0;
#X connect 41 0 35 0;
#X connect 42 0 48 0;
#X connect 43 0 49 0;
#X connect 44 0 50 0;
#X connect 45 0 51 0;
#X connect 46 0 52 0;
#X connect 47 0 53 0;
#X connect 48 0 36 0;
#X connect 49 0 36 0;
#X connect 50 0 36 0;
#X connect 51 0 36 0;
#X connect 52 0 36 0;
#X connect 53 0 36 0;
#X connect 54 0 60 0;
#X connect 55 0 61 0;
#X connect 56 0 62 0;
#X connect 57 0 63 0;
#X connect 58 0 64 0;
#X connect 59 0 65 0;
#X connect 60 0 36 0;
#X connect 61 0 36 0;
#X connect 62 0 36 0;
#X connect 63 0 36 0;
#X connect 64 0 36 0;
#X connect 65 0 36 0;
#X connect 66 0 67 0;
#X connect 67 0 36 0;
#X connect 68 0 72 0;
#X connect 69 0 73 0;
#X connect 70 0 74 0;
#X connect 71 0 75 0;
#X connect 72 0 36 0;
#X connect 73 0 36 0;
#X connect 74 0 36 0;
#X connect 75 0 36 0;
#X connect 76 0 90 0;
#X connect 77 0 93 0;
#X connect 78 0 94 0;
#X connect 79 0 91 0;
#X connect 80 0 92 0;
#X connect 81 0 95 0;
#X connect 82 0 107 0;
#X connect 83 0 36 0;
#X connect 84 0 36 0;
#X connect 85 0 36 0;
#X connect 86 0 36 0;
#X connect 87 0 36 0;
#X connect 88 0 36 0;
#X connect 89 0 36 0;
#X connect 90 0 83 0;
#X connect 91 0 86 0;
#X connect 92 0 87 0;
#X connect 93 0 84 0;
#X connect 94 0 85 0;
#X connect 95 0 88 0;
#X connect 97 0 102 0;
#X connect 98 0 103 0;
#X connect 99 0 104 0;
#X connect 100 0 105 0;
#X connect 101 0 106 0;
#X connect 102 0 36 0;
#X connect 103 0 36 0;
#X connect 104 0 36 0;
#X connect 105 0 36 0;
#X connect 106 0 36 0;
#X connect 107 0 89 0;
#X coords 0 -1 1 1 300 500 2 100 100;
#X restore 430 95 pd routing voices;
#N canvas -9 -9 1920 976 PeaksManip 0;
#X floatatom 322 154 5 0 0 0 - - -;
#X obj 112 156 hradio 15 1 0 6 empty empty empty 0 -8 0 10 -256411
-1 -1 1;
#X obj 220 156 hradio 15 1 0 6 empty empty empty 0 -8 0 10 -249255
-1 -1 2;
#X text 110 138 Numerator;
#X text 219 138 Denominator;
#X obj 113 192 hradio 15 1 0 7 empty empty empty 0 -8 0 10 -261234
-1 -1 4;
#X obj 114 272 hradio 15 1 0 3 empty empty empty 0 -8 0 10 -262130
-1 -1 0;
#X obj 114 290 hradio 15 1 0 3 empty empty empty 0 -8 0 10 -262130
-1 -1 0;
#X obj 114 308 hradio 15 1 0 3 empty empty empty 0 -8 0 10 -262130
-1 -1 0;
#X obj 114 326 hradio 15 1 0 3 empty empty empty 0 -8 0 10 -262130
-1 -1 0;
#X obj 114 344 hradio 15 1 0 3 empty empty empty 0 -8 0 10 -262130
-1 -1 0;
#X obj 114 362 hradio 15 1 0 3 empty empty empty 0 -8 0 10 -262130
-1 -1 0;
#X obj 32 215 s deltaAVG;
#X obj 31 236 s thetaAVG;
#X obj 219 272 hradio 15 1 0 7 empty empty empty 0 -8 0 10 -261234
-1 -1 5;
#X text 216 250 Number of sub-octaves;
#X obj 32 258 s alphaAVG;
#X obj 26 279 s lobetaAVG;
#X obj 26 300 s hibetaAVG;
#X obj 31 318 s gammaAVG;
#X text 111 251 2 = Z to Ms;
#X text 111 234 1 = Hz to Ms;
#X obj 665 245 s deltasub;
#X obj 489 245 expr (1 * pow (2 \, $f1));
#X obj 219 290 hradio 15 1 0 7 empty empty empty 0 -8 0 10 -261234
-1 -1 5;
#X obj 490 264 expr (1 * pow (2 \, $f1));
#X obj 219 308 hradio 15 1 0 7 empty empty empty 0 -8 0 10 -261234
-1 -1 5;
#X obj 489 282 expr (1 * pow (2 \, $f1));
#X obj 219 326 hradio 15 1 0 7 empty empty empty 0 -8 0 10 -261234
-1 -1 5;
#X obj 490 301 expr (1 * pow (2 \, $f1));
#X obj 219 344 hradio 15 1 0 7 empty empty empty 0 -8 0 10 -261234
-1 -1 5;
#X obj 489 319 expr (1 * pow (2 \, $f1));
#X obj 219 362 hradio 15 1 0 7 empty empty empty 0 -8 0 10 -261234
-1 -1 5;
#X obj 490 338 expr (1 * pow (2 \, $f1));
#X obj 666 264 s thetasub;
#X obj 665 282 s alphasub;
#X obj 666 301 s lobetasub;
#X obj 665 319 s hibetasub;
#X obj 666 338 s gammasub;
#X text 110 117 Peak's Multiplier;
#X obj 251 205 hradio 15 1 1 7 empty empty empty 0 -8 0 10 -203904
-1 -1 2;
#X text 248 173 Oct. val.;
#X floatatom 252 228 5 0 0 0 - - -;
#X obj 494 136 loadbang;
#X floatatom 364 205 5 0 0 0 - - -;
#X text 110 174 N octaves up (0 - 6);
#X text 248 185 +/- Phi \, 2 \, 3 \, Pi \, e \, Hilbert);
#X text 109 381 Roughness;
#X obj 14 386 r rough;
#X floatatom 113 398 5 0 0 0 - - -;
#X obj 370 267 bng 15 250 50 0 empty empty empty 17 7 0 10 -262144
-1 -1;
#X obj 371 286 bng 15 250 50 0 empty empty empty 17 7 0 10 -262144
-1 -1;
#X obj 371 309 bng 15 250 50 0 empty empty empty 17 7 0 10 -262144
-1 -1;
#X obj 371 326 bng 15 250 50 0 empty empty empty 17 7 0 10 -262144
-1 -1;
#X obj 371 344 bng 15 250 50 0 empty empty empty 17 7 0 10 -262144
-1 -1;
#X obj 371 363 bng 15 250 50 0 empty empty empty 17 7 0 10 -262144
-1 -1;
#X text 353 250 Capture Ms;
#X obj 406 313 bng 15 250 50 0 empty empty empty 17 7 0 10 -262144
-1 -1;
#X obj 491 361 s deltacomp;
#X obj 492 384 s thetacomp;
#X obj 491 409 s alphacomp;
#X obj 492 433 s lobetacomp;
#X obj 491 456 s hibetacomp;
#X obj 491 479 s gammacomp;
#N canvas 952 0 958 966 CONSONANCE_CHOICE 0;
#X obj 77 62 consonance_decim dpeak apeak;
#X obj 75 87 consonance_decim dpeak lbpeak;
#X obj 75 130 consonance_decim dpeak hbpeak;
#X obj 75 151 consonance_decim dpeak gpeak;
#X floatatom 254 49 5 0 0 0 - - -;
#X obj 80 35 consonance_decim dpeak tpeak;
#X obj 71 188 consonance_decim tpeak apeak;
#X obj 71 210 consonance_decim tpeak lbpeak;
#X obj 71 231 consonance_decim tpeak hbpeak;
#X obj 71 252 consonance_decim tpeak gpeak;
#X obj 71 279 consonance_decim apeak lbpeak;
#X obj 71 300 consonance_decim apeak hbpeak;
#X obj 71 321 consonance_decim apeak gpeak;
#X obj 72 348 consonance_decim lbpeak hbpeak;
#X obj 72 369 consonance_decim lbpeak gpeak;
#X obj 73 395 consonance_decim hbpeak gpeak;
#X floatatom 258 81 5 0 0 0 - - -;
#X floatatom 260 104 5 0 0 0 - - -;
#X connect 0 0 16 0;
#X connect 1 0 17 0;
#X connect 5 0 4 0;
#X restore 645 595 pd CONSONANCE_CHOICE;
#X obj 913 450 s V1_line;
#X obj 976 449 s V2_line;
#X obj 1038 449 s V3_line;
#X obj 1098 449 s V4_line;
#X obj 1161 448 s V5_line;
#X obj 167 317 hradio 15 1 0 3 empty empty empty 0 -8 0 10 -253780
-1 -1 0;
#X obj 657 39 loadbang;
#X msg 712 71 2;
#X msg 657 62 3;
#X obj 219 384 hradio 15 1 0 7 empty empty empty 0 -8 0 10 -250962
-1 -1 5;
#X msg 494 157 2;
#X obj 382 156 bng 15 250 50 0 empty empty empty 17 7 0 10 -262144
-1 -1;
#X text 349 138 Capture peaks;
#X obj 472 215 s peaktrig;
#X obj 682 442 r startMS;
#N canvas 0 50 678 343 ratios 0;
#X obj 104 64 r dpeak;
#X obj 161 64 r tpeak;
#X obj 214 64 r apeak;
#X obj 274 64 r lbpeak;
#X obj 331 61 r hbpeak;
#X obj 391 61 r gpeak;
#N canvas 0 50 450 300 divide 0;
#X obj 93 109 /;
#X obj 69 48 inlet;
#X floatatom 69 69 5 0 0 0 - - -;
#X obj 139 67 inlet;
#X floatatom 139 88 5 0 0 0 - - -;
#X obj 93 130 outlet;
#X obj 139 108 t b;
#X connect 0 0 5 0;
#X connect 1 0 2 0;
#X connect 2 0 0 0;
#X connect 3 0 4 0;
#X connect 4 0 0 1;
#X connect 4 0 6 0;
#X connect 6 0 2 0;
#X restore 43 105 pd divide;
#N canvas 0 50 450 300 divide 0;
#X obj 93 109 /;
#X obj 69 48 inlet;
#X floatatom 69 69 5 0 0 0 - - -;
#X obj 139 67 inlet;
#X floatatom 139 88 5 0 0 0 - - -;
#X obj 93 130 outlet;
#X obj 139 108 t b;
#X connect 0 0 5 0;
#X connect 1 0 2 0;
#X connect 2 0 0 0;
#X connect 3 0 4 0;
#X connect 4 0 0 1;
#X connect 4 0 6 0;
#X connect 6 0 2 0;
#X restore 107 105 pd divide;
#N canvas 0 50 450 300 divide 0;
#X obj 93 109 /;
#X obj 69 48 inlet;
#X floatatom 69 69 5 0 0 0 - - -;
#X obj 139 67 inlet;
#X floatatom 139 88 5 0 0 0 - - -;
#X obj 93 130 outlet;
#X obj 139 108 t b;
#X connect 0 0 5 0;
#X connect 1 0 2 0;
#X connect 2 0 0 0;
#X connect 3 0 4 0;
#X connect 4 0 0 1;
#X connect 4 0 6 0;
#X connect 6 0 2 0;
#X restore 171 106 pd divide;
#N canvas 0 50 450 300 divide 0;
#X obj 93 109 /;
#X obj 69 48 inlet;
#X floatatom 69 69 5 0 0 0 - - -;
#X obj 139 67 inlet;
#X floatatom 139 88 5 0 0 0 - - -;
#X obj 93 130 outlet;
#X obj 139 108 t b;
#X connect 0 0 5 0;
#X connect 1 0 2 0;
#X connect 2 0 0 0;
#X connect 3 0 4 0;
#X connect 4 0 0 1;
#X connect 4 0 6 0;
#X connect 6 0 2 0;
#X restore 235 106 pd divide;
#N canvas 0 50 450 300 divide 0;
#X obj 93 109 /;
#X obj 69 48 inlet;
#X floatatom 69 69 5 0 0 0 - - -;
#X obj 139 67 inlet;
#X floatatom 139 88 5 0 0 0 - - -;
#X obj 93 130 outlet;
#X obj 139 108 t b;
#X connect 0 0 5 0;
#X connect 1 0 2 0;
#X connect 2 0 0 0;
#X connect 3 0 4 0;
#X connect 4 0 0 1;
#X connect 4 0 6 0;
#X connect 6 0 2 0;
#X restore 299 109 pd divide;
#N canvas 0 50 450 300 divide 0;
#X obj 93 109 /;
#X obj 69 48 inlet;
#X floatatom 69 69 5 0 0 0 - - -;
#X obj 139 67 inlet;
#X floatatom 139 88 5 0 0 0 - - -;
#X obj 93 130 outlet;
#X obj 139 108 t b;
#X connect 0 0 5 0;
#X connect 1 0 2 0;
#X connect 2 0 0 0;
#X connect 3 0 4 0;
#X connect 4 0 0 1;
#X connect 4 0 6 0;
#X connect 6 0 2 0;
#X restore 363 109 pd divide;
#N canvas 0 50 450 300 divide 0;
#X obj 93 109 /;
#X obj 69 48 inlet;
#X floatatom 69 69 5 0 0 0 - - -;
#X obj 139 67 inlet;
#X floatatom 139 88 5 0 0 0 - - -;
#X obj 93 130 outlet;
#X obj 139 108 t b;
#X connect 0 0 5 0;
#X connect 1 0 2 0;
#X connect 2 0 0 0;
#X connect 3 0 4 0;
#X connect 4 0 0 1;
#X connect 4 0 6 0;
#X connect 6 0 2 0;
#X restore 427 110 pd divide;
#N canvas 196 126 450 300 divide 0;
#X obj 93 109 /;
#X obj 69 48 inlet;
#X floatatom 69 69 5 0 0 0 - - -;
#X obj 139 67 inlet;
#X floatatom 139 88 5 0 0 0 - - -;
#X obj 93 130 outlet;
#X obj 139 108 t b;
#X connect 0 0 5 0;
#X connect 1 0 2 0;
#X connect 2 0 0 0;
#X connect 3 0 4 0;
#X connect 4 0 0 1;
#X connect 4 0 6 0;
#X connect 6 0 2 0;
#X restore 491 110 pd divide;
#N canvas 0 50 450 300 divide 0;
#X obj 93 109 /;
#X obj 69 48 inlet;
#X floatatom 69 69 5 0 0 0 - - -;
#X obj 139 67 inlet;
#X floatatom 139 88 5 0 0 0 - - -;
#X obj 93 130 outlet;
#X obj 139 108 t b;
#X connect 0 0 5 0;
#X connect 1 0 2 0;
#X connect 2 0 0 0;
#X connect 3 0 4 0;
#X connect 4 0 0 1;
#X connect 4 0 6 0;
#X connect 6 0 2 0;
#X restore 43 144 pd divide;
#N canvas 0 50 450 300 divide 0;
#X obj 93 109 /;
#X obj 69 48 inlet;
#X floatatom 69 69 5 0 0 0 - - -;
#X obj 139 67 inlet;
#X floatatom 139 88 5 0 0 0 - - -;
#X obj 93 130 outlet;
#X obj 139 108 t b;
#X connect 0 0 5 0;
#X connect 1 0 2 0;
#X connect 2 0 0 0;
#X connect 3 0 4 0;
#X connect 4 0 0 1;
#X connect 4 0 6 0;
#X connect 6 0 2 0;
#X restore 107 144 pd divide;
#N canvas 0 50 450 300 divide 0;
#X obj 93 109 /;
#X obj 69 48 inlet;
#X floatatom 69 69 5 0 0 0 - - -;
#X obj 139 67 inlet;
#X floatatom 139 88 5 0 0 0 - - -;
#X obj 93 130 outlet;
#X obj 139 108 t b;
#X connect 0 0 5 0;
#X connect 1 0 2 0;
#X connect 2 0 0 0;
#X connect 3 0 4 0;
#X connect 4 0 0 1;
#X connect 4 0 6 0;
#X connect 6 0 2 0;
#X restore 171 145 pd divide;
#N canvas 0 50 450 300 divide 0;
#X obj 93 109 /;
#X obj 69 48 inlet;
#X floatatom 69 69 5 0 0 0 - - -;
#X obj 139 67 inlet;
#X floatatom 139 88 5 0 0 0 - - -;
#X obj 93 130 outlet;
#X obj 139 108 t b;
#X connect 0 0 5 0;
#X connect 1 0 2 0;
#X connect 2 0 0 0;
#X connect 3 0 4 0;
#X connect 4 0 0 1;
#X connect 4 0 6 0;
#X connect 6 0 2 0;
#X restore 235 145 pd divide;
#N canvas 0 50 450 300 divide 0;
#X obj 93 109 /;
#X obj 69 48 inlet;
#X floatatom 69 69 5 0 0 0 - - -;
#X obj 139 67 inlet;
#X floatatom 139 88 5 0 0 0 - - -;
#X obj 93 130 outlet;
#X obj 139 108 t b;
#X connect 0 0 5 0;
#X connect 1 0 2 0;
#X connect 2 0 0 0;
#X connect 3 0 4 0;
#X connect 4 0 0 1;
#X connect 4 0 6 0;
#X connect 6 0 2 0;
#X restore 299 148 pd divide;
#N canvas 0 50 450 300 divide 0;
#X obj 93 109 /;
#X obj 69 48 inlet;
#X floatatom 69 69 5 0 0 0 - - -;
#X obj 139 67 inlet;
#X floatatom 139 88 5 0 0 0 - - -;
#X obj 93 130 outlet;
#X obj 139 108 t b;
#X connect 0 0 5 0;
#X connect 1 0 2 0;
#X connect 2 0 0 0;
#X connect 3 0 4 0;
#X connect 4 0 0 1;
#X connect 4 0 6 0;
#X connect 6 0 2 0;
#X restore 363 148 pd divide;
#N canvas 0 50 450 300 divide 0;
#X obj 93 109 /;
#X obj 69 48 inlet;
#X obj 139 52 inlet;
#X obj 93 130 outlet;
#X obj 139 75 t b f;
#X obj 69 71 f;
#X connect 0 0 3 0;
#X connect 1 0 5 0;
#X connect 2 0 4 0;
#X connect 4 0 5 0;
#X connect 4 1 0 1;
#X connect 5 0 0 0;
#X restore 427 149 pd divide;
#X obj 125 258 pack f f f f f f f f f f f f f f;
#X connect 0 0 6 1;
#X connect 0 0 7 1;
#X connect 0 0 8 1;
#X connect 0 0 9 1;
#X connect 0 0 10 1;
#X connect 1 0 6 0;
#X connect 1 0 11 1;
#X connect 1 0 12 1;
#X connect 1 0 13 1;
#X connect 1 0 14 1;
#X connect 2 0 7 0;
#X connect 2 0 11 0;
#X connect 2 0 15 1;
#X connect 2 0 16 1;
#X connect 2 0 17 1;
#X connect 3 0 8 0;
#X connect 3 0 12 0;
#X connect 3 0 15 0;
#X connect 3 0 18 1;
#X connect 3 0 19 1;
#X connect 4 0 9 0;
#X connect 4 0 13 0;
#X connect 4 0 16 0;
#X connect 4 0 18 0;
#X connect 4 0 20 1;
#X connect 5 0 10 0;
#X connect 5 0 14 0;
#X connect 5 0 17 0;
#X connect 5 0 19 0;
#X connect 5 0 20 0;
#X connect 6 0 21 0;
#X connect 7 0 21 1;
#X restore 850 17 pd ratios;
#X text 848 -5 Use to choose partial structure;
#X obj 154 535 loadbang;
#X msg 193 629 0;
#X msg 149 627 5;
#X obj 153 596 t b b b;
#X obj 154 558 delay 50;
#X text 109 218 Temporal Modes;
#X obj 356 417 hradio 20 1 0 2 empty empty empty 0 -8 0 10 -261682
-1 -1 0;
#X text 345 399 AVG / Snapshot;
#X obj 356 454 s avgsnap;
#X obj 330 530 loadbang;
#X msg 330 553 0;
#X obj 121 23 s peaknum;
#X obj 223 40 s peakdenom;
#X obj 370 12 s Noct;
#X obj 485 19 s octval;
#X connect 1 0 93 0;
#X connect 2 0 94 0;
#X connect 5 0 95 0;
#X connect 6 0 12 0;
#X connect 7 0 13 0;
#X connect 8 0 16 0;
#X connect 9 0 17 0;
#X connect 10 0 18 0;
#X connect 11 0 19 0;
#X connect 14 0 23 0;
#X connect 23 0 22 0;
#X connect 24 0 25 0;
#X connect 25 0 34 0;
#X connect 26 0 27 0;
#X connect 27 0 35 0;
#X connect 28 0 29 0;
#X connect 29 0 36 0;
#X connect 30 0 31 0;
#X connect 31 0 37 0;
#X connect 32 0 33 0;
#X connect 33 0 38 0;
#X connect 40 0 96 0;
#X connect 43 0 75 0;
#X connect 44 0 42 0;
#X connect 48 0 49 0;
#X connect 50 0 58 0;
#X connect 51 0 59 0;
#X connect 52 0 60 0;
#X connect 53 0 61 0;
#X connect 54 0 62 0;
#X connect 55 0 63 0;
#X connect 57 0 50 0;
#X connect 57 0 55 0;
#X connect 57 0 54 0;
#X connect 57 0 53 0;
#X connect 57 0 52 0;
#X connect 57 0 51 0;
#X connect 70 0 6 0;
#X connect 70 0 7 0;
#X connect 70 0 8 0;
#X connect 70 0 9 0;
#X connect 70 0 10 0;
#X connect 70 0 11 0;
#X connect 71 0 72 0;
#X connect 71 0 73 0;
#X connect 72 0 2 0;
#X connect 73 0 1 0;
#X connect 73 0 5 0;
#X connect 74 0 14 0;
#X connect 74 0 24 0;
#X connect 74 0 26 0;
#X connect 74 0 28 0;
#X connect 74 0 30 0;
#X connect 74 0 32 0;
#X connect 75 0 40 0;
#X connect 76 0 78 0;
#X connect 79 0 57 0;
#X connect 82 0 86 0;
#X connect 83 0 70 0;
#X connect 84 0 74 0;
#X connect 85 0 57 0;
#X connect 85 1 84 0;
#X connect 85 2 83 0;
#X connect 86 0 85 0;
#X connect 88 0 90 0;
#X connect 91 0 92 0;
#X connect 92 0 88 0;
#X coords 0 -1 1 1 350 350 2 100 100;
#X restore 760 97 pd PeaksManip;
#N canvas 714 211 450 300 Hz2Ms 0;
#X obj 31 71 peak2ms tpeak thetasub thetaMS;
#X obj 31 90 peak2ms apeak alphasub alphaMS;
#X obj 31 109 peak2ms lbpeak lobetasub lobetaMS;
#X obj 31 128 peak2ms hbpeak hibetasub hibetaMS;
#X obj 31 147 peak2ms gpeak gammasub gammaMS;
#X text 28 21 These objects decide which peak to use (\$1) as averaging
value (Ms) of another peak (\$3);
#X obj 31 52 peak2ms dpeak deltasub deltaMS;
#X restore 762 70 pd Hz2Ms;
#X obj 279 365 correlation;
#X obj 255 168 hsl 128 15 0.1 500 1 1 empty empty Index_2 -2 -8 0 10
-261682 -1 -1 2165 1;
#X obj 255 138 hsl 128 15 0.001 10 1 1 empty empty Index_1 -2 -8 0
10 -262130 -1 -1 4762 1;
#X obj 255 198 hsl 128 15 0.1 500 1 1 empty empty Index_3 -2 -8 0 10
-261234 -1 -1 5300 1;
#X obj 256 229 hsl 128 15 0.001 50 1 1 empty empty Index_4 -2 -8 0
10 -232576 -1 -1 6600 1;
#X obj 254 106 hsl 128 15 0.5 50 1 1 empty empty Ratio -2 -8 0 10 -228856
-1 -1 3500 1;
#X obj 147 143 s ratio;
#X obj 129 247 s index1;
#X obj 130 314 s index2;
#X obj 136 386 s index3;
#X obj 135 441 s index4;
#X connect 4 0 11 0;
#X connect 5 0 10 0;
#X connect 6 0 12 0;
#X connect 7 0 13 0;
#X connect 8 0 9 0;
