#N canvas 391 263 450 497 12;
#X obj 161 181 *~;
#X obj 241 201 +~;
#X obj 241 227 *~ 0.5;
#X obj 201 350 +~;
#X obj 201 402 outlet~;
#X obj 71 90 r \$1;
#X obj 260 85 r \$2;
#X obj 71 116 osc~;
#X obj 260 111 osc~;
#X obj 201 376 *~ 0.4;
#X connect 0 0 3 0;
#X connect 1 0 2 0;
#X connect 2 0 3 1;
#X connect 3 0 9 0;
#X connect 5 0 7 0;
#X connect 6 0 8 0;
#X connect 7 0 0 0;
#X connect 7 0 1 0;
#X connect 8 0 0 1;
#X connect 8 0 1 1;
#X connect 9 0 4 0;
