#N canvas 70 65 1850 1135 10;
#X obj 511 101 inlet window;
#X obj 361 519 outlet signal;
#X obj 283 144 gate 2;
#X obj 247 123 + 1;
#X obj 247 103 r \$1;
#X obj 280 102 inlet value;
#X floatatom 247 144 5 0 0 0 - - -;
#X obj 368 497 spigot;
#X obj 247 164 - 1;
#X obj 402 479 tgl 15 0 empty empty empty 17 7 0 10 -262144 -1 -1 1
1;
#X obj 595 100 inlet ramptime;
#X obj 482 219 peak_avg;
#X obj 283 219 line;
#X obj 366 135 expr if ($f1 == 0 \, 1 \, 2);
#X obj 368 107 r avgsnap;
#X obj 364 182 gate 2;
#X floatatom 351 276 5 0 0 0 - - -;
#X obj 657 241 bng 15 250 50 0 empty empty empty 17 7 0 10 -262144
-1 -1;
#X obj 648 176 bng 15 250 50 0 empty empty empty 17 7 0 10 -262144
-1 -1;
#X obj 653 209 metro 500;
#X floatatom 709 159 5 0 0 0 - - -;
#X msg 629 152 stop;
#X obj 774 131 loadbang;
#X msg 774 154 1000;
#X obj 439 168 route 1 2;
#X obj 351 253 snapshot_peak \$2;
#X obj 659 261 s \$2;
#X floatatom 401 226 5 0 0 0 - - -;
#X floatatom 327 188 5 0 0 0 - - -;
#X floatatom 482 242 5 0 0 0 - - -;
#X obj 441 367 spigot;
#X obj 475 349 tgl 15 0 empty empty empty 17 7 0 10 -262144 -1 -1 -1
1;
#X obj 509 331 r avgsnap;
#X obj 509 354 - 1;
#X msg 283 198 \$1 15;
#X connect 0 0 11 2;
#X connect 0 0 20 0;
#X connect 2 0 34 0;
#X connect 2 1 15 1;
#X connect 2 1 28 0;
#X connect 3 0 2 0;
#X connect 3 0 6 0;
#X connect 4 0 3 0;
#X connect 5 0 2 1;
#X connect 6 0 8 0;
#X connect 7 0 1 0;
#X connect 8 0 9 0;
#X connect 9 0 7 1;
#X connect 10 0 11 1;
#X connect 11 0 29 0;
#X connect 12 0 1 0;
#X connect 13 0 15 0;
#X connect 13 0 24 0;
#X connect 14 0 13 0;
#X connect 15 0 11 0;
#X connect 15 1 25 0;
#X connect 15 1 27 0;
#X connect 16 0 7 0;
#X connect 17 0 26 0;
#X connect 18 0 19 0;
#X connect 19 0 17 0;
#X connect 20 0 19 1;
#X connect 21 0 19 0;
#X connect 22 0 23 0;
#X connect 23 0 20 0;
#X connect 24 0 21 0;
#X connect 24 1 18 0;
#X connect 25 0 16 0;
#X connect 29 0 30 0;
#X connect 30 0 7 0;
#X connect 31 0 30 1;
#X connect 32 0 33 0;
#X connect 33 0 31 0;
#X connect 34 0 12 0;
