#N canvas 0 50 346 580 10;
#X floatatom 61 29 5 0 0 0 - - -;
#X obj 61 67 expr if ($f1 > 2 \, ($f1/2) \, $f1);
#X floatatom 61 105 5 0 0 0 - - -;
#X obj 63 143 expr if ($f1 > 2 \, ($f1/2) \, $f1);
#X floatatom 63 181 5 0 0 0 - - -;
#X obj 61 221 expr if ($f1 > 2 \, ($f1/2) \, $f1);
#X floatatom 61 259 5 0 0 0 - - -;
#X obj 61 295 expr if ($f1 > 2 \, ($f1/2) \, $f1);
#X floatatom 61 335 5 0 0 0 - - -;
#X obj 64 7 inlet;
#X obj 55 420 outlet;
#X obj 62 359 expr if ($f1 > 2 \, ($f1/2) \, $f1);
#X floatatom 62 399 5 0 0 0 - - -;
#X connect 0 0 1 0;
#X connect 1 0 2 0;
#X connect 2 0 3 0;
#X connect 3 0 4 0;
#X connect 4 0 5 0;
#X connect 5 0 6 0;
#X connect 6 0 7 0;
#X connect 7 0 8 0;
#X connect 8 0 11 0;
#X connect 9 0 0 0;
#X connect 11 0 12 0;
#X connect 12 0 10 0;
