#N canvas 0 50 604 413 10;
#X obj 256 94 inlet zscore;
#X obj 101 178 expr if ($f1 > 0 \, 1 \, 0);
#X obj 223 136 gate 2;
#X obj 223 115 + 1;
#X obj 186 257 outlet;
#X floatatom 101 199 5 0 0 0 - - -;
#X floatatom 247 199 5 0 0 0 - - -;
#X obj 164 95 loadbang;
#X msg 164 116 1;
#X obj 247 178 expr if ($f1 < 0 \, 1 \, 0);
#X obj 335 94 inlet direction;
#X obj 335 115 + 1;
#X text 30 55 If \$2 = 0 \, ON corresponds to positive Z scores;
#X text 31 72 If \$2 = 1 \, ON corresponds to negative Z scores;
#X text 30 36 \$1 is the name of the Z score that is received;
#X obj 223 95 f \$1;
#X obj 265 120 r \$2;
#X obj 232 257 s \$3;
#X connect 0 0 2 1;
#X connect 1 0 5 0;
#X connect 2 0 1 0;
#X connect 2 1 9 0;
#X connect 3 0 2 0;
#X connect 5 0 4 0;
#X connect 5 0 17 0;
#X connect 6 0 4 0;
#X connect 6 0 17 0;
#X connect 7 0 8 0;
#X connect 7 0 15 0;
#X connect 9 0 6 0;
#X connect 10 0 11 0;
#X connect 11 0 2 0;
#X connect 15 0 3 0;
#X connect 16 0 2 1;
