#N canvas 0 50 450 300 10;
#X obj 247 186 consonance;
#X floatatom 247 207 5 0 0 0 - - -;
#X obj 286 106 dec2frac;
#X floatatom 286 132 5 0 0 0 - - -;
#X floatatom 326 133 5 0 0 0 - - -;
#X obj 194 96 /;
#X floatatom 149 68 5 0 0 0 - - -;
#X floatatom 197 152 5 0 0 0 - - -;
#X floatatom 212 51 5 0 0 0 - - -;
#X obj 151 94 t b f;
#X obj 219 68 t b f;
#X obj 149 47 r \$1;
#X obj 212 30 r \$2;
#X obj 247 227 outlet;
#X obj 86 46 inlet;
#X obj 158 12 inlet;
#X connect 0 0 1 0;
#X connect 1 0 13 0;
#X connect 2 0 3 0;
#X connect 2 1 4 0;
#X connect 3 0 0 0;
#X connect 4 0 0 1;
#X connect 5 0 7 0;
#X connect 6 0 9 0;
#X connect 7 0 2 0;
#X connect 8 0 10 0;
#X connect 9 1 5 0;
#X connect 10 0 6 0;
#X connect 10 1 5 1;
#X connect 11 0 6 0;
#X connect 12 0 8 0;
#X connect 14 0 6 0;
#X connect 15 0 8 0;
