#N canvas 0 50 450 300 10;
#X obj 172 114 +;
#X obj 172 158 /;
#X obj 216 163 *;
#X floatatom 172 179 5 0 0 0 - - -;
#X obj 239 107 t b;
#X floatatom 175 80 5 0 0 0 - - -;
#X obj 175 59 r \$1;
#X obj 232 56 r \$2;
#X obj 138 40 inlet;
#X obj 264 41 inlet;
#X obj 172 199 outlet;
#X floatatom 232 77 5 0 0 0 - - -;
#X obj 216 184 t b;
#X floatatom 172 135 5 0 0 0 - - -;
#X connect 0 0 13 0;
#X connect 1 0 3 0;
#X connect 2 0 1 1;
#X connect 2 0 12 0;
#X connect 3 0 10 0;
#X connect 4 0 5 0;
#X connect 5 0 0 0;
#X connect 5 0 2 0;
#X connect 6 0 5 0;
#X connect 7 0 11 0;
#X connect 8 0 5 0;
#X connect 9 0 11 0;
#X connect 11 0 0 1;
#X connect 11 0 4 0;
#X connect 11 0 2 1;
#X connect 12 0 13 0;
#X connect 13 0 1 0;
