#N canvas 729 91 579 501 10;
#X floatatom 133 144 5 0 0 0 - - -, f 5;
#X floatatom 181 142 5 0 0 0 - - -, f 5;
#X obj 130 176 expr ($f1/$f2);
#X floatatom 125 215 5 0 0 0 - - -, f 5;
#X obj 121 236 int;
#X obj 112 314 expr ($f1-($f2*$f3));
#X floatatom 106 347 5 0 0 0 - - -, f 5;
#X obj 315 162 change;
#X obj 315 205 bng 15 250 50 0 empty empty empty 17 7 0 10 -262144
-1 -1;
#X floatatom 70 278 5 0 0 0 - - -, f 5;
#X obj 181 382 outlet;
#X obj 240 377 outlet;
#X obj 123 93 inlet;
#X obj 88 437 outlet;
#X obj 223 72 inlet;
#X connect 0 0 2 0;
#X connect 0 0 5 0;
#X connect 1 0 2 1;
#X connect 1 0 5 2;
#X connect 1 0 7 0;
#X connect 1 0 10 0;
#X connect 2 0 3 0;
#X connect 3 0 4 0;
#X connect 4 0 5 1;
#X connect 4 0 9 0;
#X connect 5 0 6 0;
#X connect 6 0 11 0;
#X connect 7 0 8 0;
#X connect 8 0 0 0;
#X connect 9 0 13 0;
#X connect 12 0 0 0;
#X connect 14 0 1 0;
