#N canvas 0 50 864 456 10;
#X obj 347 170 list-abs/list-mean;
#X obj 417 171 list-abs/list-stddev;
#X obj 531 180 list length;
#X obj 541 253 sel 1;
#X obj 543 280 bng 15 250 50 0 empty empty empty 17 7 0 10 -262144
-1 -1;
#X floatatom 543 208 5 0 0 0 - - -;
#X obj 439 129 list;
#X obj 570 153 bng 15 250 50 0 empty empty empty 17 7 0 10 -262144
-1 -1;
#X floatatom 314 199 5 0 0 0 - - -;
#X floatatom 370 200 5 0 0 0 - - -;
#X floatatom 349 264 5 0 0 0 - - -;
#X floatatom 283 264 8 0 0 0 - - -;
#X obj 376 287 zscale 1 1 -1 1;
#X floatatom 456 344 5 0 0 0 - - -;
#X obj 435 223 change;
#X obj 445 255 bng 15 250 50 0 empty empty empty 17 7 0 10 -262144
-1 -1;
#X obj 302 225 expr ($f1 + (3*$f2)) \; ($f1 - (3*$f2));
#X obj 423 307 clip -1 1;
#X obj 515 341 sig~;
#X obj 542 232 expr if ($f1 > $f2 \, 1 \, 0);
#X obj 326 68 inlet;
#X obj 430 404 outlet~;
#X obj 528 70 inlet;
#X obj 498 131 1;
#X connect 0 0 8 0;
#X connect 1 0 9 0;
#X connect 2 0 5 0;
#X connect 3 0 4 0;
#X connect 4 0 7 0;
#X connect 5 0 19 0;
#X connect 6 0 0 0;
#X connect 6 0 1 0;
#X connect 6 0 2 0;
#X connect 6 0 23 0;
#X connect 7 0 6 1;
#X connect 8 0 14 0;
#X connect 8 0 16 0;
#X connect 9 0 16 1;
#X connect 10 0 12 2;
#X connect 11 0 12 1;
#X connect 12 0 17 0;
#X connect 13 0 18 0;
#X connect 14 0 15 0;
#X connect 15 0 9 0;
#X connect 16 0 10 0;
#X connect 16 1 11 0;
#X connect 17 0 13 0;
#X connect 18 0 21 0;
#X connect 19 0 3 0;
#X connect 20 0 6 0;
#X connect 20 0 12 0;
#X connect 22 0 19 1;
#X connect 23 0 6 1;
