#N canvas 0 50 450 300 10;
#X obj 75 101 list;
#X obj 88 139 list append;
#X obj 137 101 list;
#X obj 198 100 list;
#X obj 253 103 list;
#X obj 313 102 list;
#X obj 370 101 list;
#X obj 88 158 list append;
#X obj 88 178 list append;
#X obj 88 197 list append;
#X obj 88 217 list append;
#X obj 171 232 s peakslist;
#X obj 112 257 roughness;
#X floatatom 112 277 5 0 0 0 - - -;
#X obj 481 75 loadbang;
#X floatatom 76 80 5 0 0 0 - - -;
#X floatatom 138 79 5 0 0 0 - - -;
#X floatatom 199 81 5 0 0 0 - - -;
#X floatatom 255 83 5 0 0 0 - - -;
#X floatatom 314 83 5 0 0 0 - - -;
#X floatatom 371 82 5 0 0 0 - - -;
#X obj 234 137 t b;
#X obj 51 60 r deltapeak;
#X obj 127 60 r thetapeak;
#X obj 199 62 r alphapeak;
#X obj 261 38 r lobetapeak;
#X obj 345 34 r hibetapeak;
#X obj 378 59 r gammapeak;
#X msg 480 101 0.9 0.8 0.7 0.6 0.5 0.4;
#X obj 112 295 outlet;
#X connect 0 0 1 0;
#X connect 1 0 7 0;
#X connect 2 0 1 1;
#X connect 3 0 7 1;
#X connect 4 0 8 1;
#X connect 5 0 9 1;
#X connect 6 0 10 1;
#X connect 7 0 8 0;
#X connect 8 0 9 0;
#X connect 9 0 10 0;
#X connect 10 0 11 0;
#X connect 10 0 12 0;
#X connect 12 0 13 0;
#X connect 13 0 29 0;
#X connect 14 0 28 0;
#X connect 15 0 0 0;
#X connect 16 0 21 0;
#X connect 16 0 2 0;
#X connect 17 0 21 0;
#X connect 17 0 3 0;
#X connect 18 0 21 0;
#X connect 18 0 4 0;
#X connect 19 0 21 0;
#X connect 19 0 5 0;
#X connect 20 0 21 0;
#X connect 20 0 6 0;
#X connect 21 0 15 0;
#X connect 22 0 15 0;
#X connect 23 0 16 0;
#X connect 24 0 17 0;
#X connect 25 0 18 0;
#X connect 26 0 19 0;
#X connect 27 0 20 0;
#X connect 28 0 12 1;
