#N canvas 149 150 652 426 10;
#X obj 97 104 inlet;
#X text 74 62 EEG Harmonic;
#X obj 255 103 inlet;
#X text 263 67 Instrument Harmonic;
#X obj 148 211 expr abs($f1-$f2);
#X floatatom 148 238 5 0 0 0 - - -, f 5;
#X floatatom 148 311 5 0 0 0 - - -, f 5;
#X obj 224 376 outlet;
#X obj 312 197 / \$1;
#X obj 148 280 expr if ($f1 < $f2 \, $f3 \, $f4);
#X connect 0 0 4 0;
#X connect 0 0 9 2;
#X connect 2 0 4 1;
#X connect 2 0 8 0;
#X connect 2 0 9 3;
#X connect 4 0 5 0;
#X connect 5 0 9 0;
#X connect 6 0 7 0;
#X connect 8 0 9 1;
#X connect 9 0 6 0;
