#N canvas 97 50 784 601 10;
#X obj 506 385 bng 15 250 50 0 empty empty empty 17 7 0 10 -262144
-1 -1;
#X floatatom 449 267 5 0 0 0 - - -;
#X obj 375 483 line;
#X obj 368 409 pack f f;
#X floatatom 443 419 5 0 0 0 - - -;
#X msg 371 432 \$1 \$2;
#X obj 468 388 /;
#X floatatom 506 357 5 0 0 0 - - -;
#X obj 378 533 spigot;
#X obj 453 510 tgl 15 0 empty empty empty 17 7 0 10 -262144 -1 -1 1
1;
#X obj 601 351 loadbang;
#X obj 292 147 inlet data;
#X obj 388 560 outlet;
#X obj 518 146 inlet metro;
#X msg 625 440 2;
#X obj 605 153 inlet ramptime;
#X obj 367 356 EEG_avg 1000;
#X connect 0 0 1 0;
#X connect 1 0 6 0;
#X connect 1 0 16 2;
#X connect 2 0 8 0;
#X connect 3 0 5 0;
#X connect 4 0 3 1;
#X connect 5 0 2 0;
#X connect 6 0 4 0;
#X connect 7 0 6 1;
#X connect 7 0 0 0;
#X connect 8 0 12 0;
#X connect 9 0 8 1;
#X connect 10 0 14 0;
#X connect 10 0 9 0;
#X connect 11 0 16 0;
#X connect 13 0 1 0;
#X connect 14 0 7 0;
#X connect 15 0 7 0;
#X connect 16 0 3 0;
