#N canvas -8 0 958 966 10;
#X obj 36 67 loadbang;
#X msg 36 88 0;
#X obj 122 216 outlet;
#X floatatom 125 190 5 0 0 0 - - -;
#X obj 267 82 t b;
#X floatatom 124 112 5 0 0 0 - - -;
#X msg 124 151 \$1 100;
#X obj 124 172 line;
#X obj 312 85 gate 2;
#X obj 412 105 bng 15 250 50 0 empty empty empty 17 7 0 10 -262144
-1 -1;
#X msg 425 129 1;
#X obj 358 152 expr if ($f1 == 1 \, 1 \, 2);
#X obj 479 123 delay 100;
#X msg 510 142 2;
#X floatatom 269 159 5 0 0 0 - - -;
#X floatatom 257 37 5 0 0 0 - - -;
#X obj 129 74 r \$1;
#X obj 257 16 r \$2;
#X obj 400 79 r \$3;
#X obj 404 183 s \$4;
#X obj 124 130 expr if ($f1 == 0 \, $f2 \, 10);
#X msg 213 59 50;
#X obj 227 224 bng 15 250 50 0 empty empty empty 17 7 0 10 -262144
-1 -1;
#X floatatom 301 248 5 0 0 0 - - -;
#X connect 0 0 1 0;
#X connect 0 0 13 0;
#X connect 0 0 21 0;
#X connect 1 0 5 0;
#X connect 3 0 2 0;
#X connect 3 0 22 0;
#X connect 4 0 5 0;
#X connect 5 0 20 0;
#X connect 6 0 7 0;
#X connect 7 0 3 0;
#X connect 8 0 20 1;
#X connect 8 0 23 0;
#X connect 8 0 4 0;
#X connect 8 1 14 0;
#X connect 9 0 10 0;
#X connect 9 0 12 0;
#X connect 9 0 15 0;
#X connect 9 0 19 0;
#X connect 10 0 11 0;
#X connect 11 0 8 0;
#X connect 12 0 13 0;
#X connect 13 0 11 0;
#X connect 15 0 8 1;
#X connect 16 0 5 0;
#X connect 17 0 15 0;
#X connect 18 0 9 0;
#X connect 20 0 6 0;
#X connect 21 0 20 1;
#X connect 21 0 4 0;
