#N canvas 30 28 1269 594 10;
#X obj 436 56 unpack f f f f f f f f f f;
#X floatatom 376 99 5 0 0 0 - - -, f 5;
#X floatatom 334 98 5 0 0 0 - - -, f 5;
#X floatatom 456 100 5 0 0 0 - - -, f 5;
#X floatatom 414 99 5 0 0 0 - - -, f 5;
#X floatatom 540 100 5 0 0 0 - - -, f 5;
#X floatatom 498 99 5 0 0 0 - - -, f 5;
#X floatatom 620 101 5 0 0 0 - - -, f 5;
#X floatatom 578 100 5 0 0 0 - - -, f 5;
#X floatatom 704 103 5 0 0 0 - - -, f 5;
#X floatatom 662 102 5 0 0 0 - - -, f 5;
#X floatatom 206 182 5 0 0 0 - - -, f 5;
#X obj 244 134 bng 15 250 50 0 empty empty empty 17 7 0 10 -262144
-1 -1;
#X floatatom 221 232 5 0 0 0 - - -, f 5;
#X floatatom 68 335 5 0 0 0 - - -, f 5;
#X obj 160 239 change;
#X obj 161 261 bng 15 250 50 0 empty empty empty 17 7 0 10 -262144
-1 -1;
#X floatatom 57 245 5 0 0 0 - - -, f 5;
#X obj 58 280 expr 24*(log($f1/$f2)/log(2));
#X obj 209 156 EEG_avg 1000;
#X floatatom 291 181 5 0 0 0 - - -, f 5;
#X obj 329 133 bng 15 250 50 0 empty empty empty 17 7 0 10 -262144
-1 -1;
#X obj 294 155 EEG_avg 1000;
#X obj 90 89 r bang_EEG_avg;
#X floatatom 382 178 5 0 0 0 - - -, f 5;
#X obj 420 130 bng 15 250 50 0 empty empty empty 17 7 0 10 -262144
-1 -1;
#X obj 385 152 EEG_avg 1000;
#X floatatom 466 177 5 0 0 0 - - -, f 5;
#X obj 504 129 bng 15 250 50 0 empty empty empty 17 7 0 10 -262144
-1 -1;
#X obj 469 151 EEG_avg 1000;
#X floatatom 556 177 5 0 0 0 - - -, f 5;
#X obj 594 129 bng 15 250 50 0 empty empty empty 17 7 0 10 -262144
-1 -1;
#X obj 559 151 EEG_avg 1000;
#X floatatom 437 232 5 0 0 0 - - -, f 5;
#X floatatom 284 335 5 0 0 0 - - -, f 5;
#X obj 376 239 change;
#X obj 377 261 bng 15 250 50 0 empty empty empty 17 7 0 10 -262144
-1 -1;
#X floatatom 273 245 5 0 0 0 - - -, f 5;
#X obj 284 280 expr 24*(log($f1/$f2)/log(2));
#X floatatom 670 232 5 0 0 0 - - -, f 5;
#X floatatom 517 335 5 0 0 0 - - -, f 5;
#X obj 609 239 change;
#X obj 610 261 bng 15 250 50 0 empty empty empty 17 7 0 10 -262144
-1 -1;
#X floatatom 506 245 5 0 0 0 - - -, f 5;
#X obj 507 280 expr 24*(log($f1/$f2)/log(2));
#X floatatom 889 229 5 0 0 0 - - -, f 5;
#X floatatom 736 332 5 0 0 0 - - -, f 5;
#X obj 828 236 change;
#X obj 829 258 bng 15 250 50 0 empty empty empty 17 7 0 10 -262144
-1 -1;
#X floatatom 725 242 5 0 0 0 - - -, f 5;
#X obj 726 277 expr 24*(log($f1/$f2)/log(2));
#X floatatom 222 367 5 0 0 0 - - -, f 5;
#X floatatom 69 470 5 0 0 0 - - -, f 5;
#X obj 161 374 change;
#X obj 162 396 bng 15 250 50 0 empty empty empty 17 7 0 10 -262144
-1 -1;
#X floatatom 58 380 5 0 0 0 - - -, f 5;
#X obj 59 415 expr 24*(log($f1/$f2)/log(2));
#X floatatom 441 367 5 0 0 0 - - -, f 5;
#X floatatom 288 470 5 0 0 0 - - -, f 5;
#X obj 380 374 change;
#X obj 381 396 bng 15 250 50 0 empty empty empty 17 7 0 10 -262144
-1 -1;
#X floatatom 277 380 5 0 0 0 - - -, f 5;
#X obj 278 415 expr 24*(log($f1/$f2)/log(2));
#X floatatom 663 369 5 0 0 0 - - -, f 5;
#X floatatom 510 472 5 0 0 0 - - -, f 5;
#X obj 602 376 change;
#X obj 603 398 bng 15 250 50 0 empty empty empty 17 7 0 10 -262144
-1 -1;
#X floatatom 499 382 5 0 0 0 - - -, f 5;
#X obj 500 417 expr 24*(log($f1/$f2)/log(2));
#X text 12 280 1 et 2;
#X text 239 280 1 et 3;
#X text 465 281 1 et 4;
#X text 686 279 1 et 5;
#X text 15 416 1 et 6;
#X text 238 415 1 et 7;
#X text 458 416 1 et 8;
#X floatatom 643 177 5 0 0 0 - - -, f 5;
#X obj 681 129 bng 15 250 50 0 empty empty empty 17 7 0 10 -262144
-1 -1;
#X obj 646 151 EEG_avg 1000;
#X floatatom 727 176 5 0 0 0 - - -, f 5;
#X obj 765 128 bng 15 250 50 0 empty empty empty 17 7 0 10 -262144
-1 -1;
#X obj 730 150 EEG_avg 1000;
#X floatatom 817 176 5 0 0 0 - - -, f 5;
#X obj 855 128 bng 15 250 50 0 empty empty empty 17 7 0 10 -262144
-1 -1;
#X obj 820 150 EEG_avg 1000;
#X floatatom 903 175 5 0 0 0 - - -, f 5;
#X obj 941 127 bng 15 250 50 0 empty empty empty 17 7 0 10 -262144
-1 -1;
#X obj 906 149 EEG_avg 1000;
#X floatatom 895 366 5 0 0 0 - - -, f 5;
#X floatatom 742 469 5 0 0 0 - - -, f 5;
#X obj 834 373 change;
#X obj 835 395 bng 15 250 50 0 empty empty empty 17 7 0 10 -262144
-1 -1;
#X floatatom 731 379 5 0 0 0 - - -, f 5;
#X obj 732 414 expr 24*(log($f1/$f2)/log(2));
#X text 690 413 1 et 9;
#X obj 262 550 pack f f f f f f f f;
#X obj 475 575 outlet;
#X obj 252 38 inlet;
#X connect 0 0 2 0;
#X connect 0 1 1 0;
#X connect 0 2 4 0;
#X connect 0 3 3 0;
#X connect 0 4 6 0;
#X connect 0 5 5 0;
#X connect 0 6 8 0;
#X connect 0 7 7 0;
#X connect 0 8 10 0;
#X connect 0 9 9 0;
#X connect 1 0 22 0;
#X connect 2 0 19 0;
#X connect 3 0 29 0;
#X connect 4 0 26 0;
#X connect 5 0 78 0;
#X connect 6 0 32 0;
#X connect 7 0 84 0;
#X connect 8 0 81 0;
#X connect 9 0 87 0;
#X connect 11 0 13 0;
#X connect 11 0 33 0;
#X connect 11 0 39 0;
#X connect 11 0 45 0;
#X connect 11 0 51 0;
#X connect 11 0 57 0;
#X connect 11 0 63 0;
#X connect 11 0 88 0;
#X connect 12 0 19 1;
#X connect 13 0 18 1;
#X connect 13 0 15 0;
#X connect 14 0 95 0;
#X connect 15 0 16 0;
#X connect 16 0 17 0;
#X connect 17 0 18 0;
#X connect 18 0 14 0;
#X connect 19 0 11 0;
#X connect 20 0 17 0;
#X connect 21 0 22 1;
#X connect 22 0 20 0;
#X connect 23 0 12 0;
#X connect 23 0 21 0;
#X connect 23 0 25 0;
#X connect 23 0 28 0;
#X connect 23 0 31 0;
#X connect 23 0 77 0;
#X connect 23 0 80 0;
#X connect 23 0 83 0;
#X connect 23 0 86 0;
#X connect 24 0 37 0;
#X connect 25 0 26 1;
#X connect 26 0 24 0;
#X connect 27 0 43 0;
#X connect 28 0 29 1;
#X connect 29 0 27 0;
#X connect 30 0 49 0;
#X connect 31 0 32 1;
#X connect 32 0 30 0;
#X connect 33 0 38 1;
#X connect 33 0 35 0;
#X connect 34 0 95 1;
#X connect 35 0 36 0;
#X connect 36 0 37 0;
#X connect 37 0 38 0;
#X connect 38 0 34 0;
#X connect 39 0 44 1;
#X connect 39 0 41 0;
#X connect 40 0 95 2;
#X connect 41 0 42 0;
#X connect 42 0 43 0;
#X connect 43 0 44 0;
#X connect 44 0 40 0;
#X connect 45 0 50 1;
#X connect 45 0 47 0;
#X connect 46 0 95 3;
#X connect 47 0 48 0;
#X connect 48 0 49 0;
#X connect 49 0 50 0;
#X connect 50 0 46 0;
#X connect 51 0 56 1;
#X connect 51 0 53 0;
#X connect 52 0 95 4;
#X connect 53 0 54 0;
#X connect 54 0 55 0;
#X connect 55 0 56 0;
#X connect 56 0 52 0;
#X connect 57 0 62 1;
#X connect 57 0 59 0;
#X connect 58 0 95 5;
#X connect 59 0 60 0;
#X connect 60 0 61 0;
#X connect 61 0 62 0;
#X connect 62 0 58 0;
#X connect 63 0 68 1;
#X connect 63 0 65 0;
#X connect 64 0 95 6;
#X connect 65 0 66 0;
#X connect 66 0 67 0;
#X connect 67 0 68 0;
#X connect 68 0 64 0;
#X connect 76 0 55 0;
#X connect 77 0 78 1;
#X connect 78 0 76 0;
#X connect 79 0 61 0;
#X connect 80 0 81 1;
#X connect 81 0 79 0;
#X connect 82 0 67 0;
#X connect 83 0 84 1;
#X connect 84 0 82 0;
#X connect 85 0 92 0;
#X connect 86 0 87 1;
#X connect 87 0 85 0;
#X connect 88 0 93 1;
#X connect 88 0 90 0;
#X connect 89 0 95 7;
#X connect 90 0 91 0;
#X connect 91 0 92 0;
#X connect 92 0 93 0;
#X connect 93 0 89 0;
#X connect 95 0 96 0;
#X connect 97 0 0 0;
