#N canvas 31 65 967 500 10;
#X obj 288 304 up_harmo;
#X obj 233 304 up_harmo;
#X obj 349 304 up_harmo;
#X obj 460 303 up_harmo;
#X obj 405 303 up_harmo;
#X obj 518 304 up_harmo;
#X obj 686 303 up_harmo;
#X obj 574 303 up_harmo;
#X obj 284 256 route \$1;
#X obj 221 178 pack f f;
#X floatatom 210 149 5 0 0 0 - - -, f 5;
#X floatatom 279 130 5 0 0 0 - - -, f 5;
#X obj 287 182 change;
#X obj 289 203 bng 15 250 50 0 empty empty empty 17 7 0 10 -262144
-1 -1;
#X obj 353 174 pack f f;
#X floatatom 345 138 5 0 0 0 - - -, f 5;
#X floatatom 412 145 5 0 0 0 - - -, f 5;
#X obj 419 169 change;
#X obj 419 191 bng 15 250 50 0 empty empty empty 17 7 0 10 -262144
-1 -1;
#X obj 481 172 pack f f;
#X floatatom 473 136 5 0 0 0 - - -, f 5;
#X floatatom 540 143 5 0 0 0 - - -, f 5;
#X obj 547 167 change;
#X obj 547 189 bng 15 250 50 0 empty empty empty 17 7 0 10 -262144
-1 -1;
#X obj 605 169 pack f f;
#X floatatom 594 140 5 0 0 0 - - -, f 5;
#X floatatom 663 121 5 0 0 0 - - -, f 5;
#X obj 671 173 change;
#X obj 673 194 bng 15 250 50 0 empty empty empty 17 7 0 10 -262144
-1 -1;
#X obj 737 165 pack f f;
#X floatatom 729 129 5 0 0 0 - - -, f 5;
#X floatatom 796 136 5 0 0 0 - - -, f 5;
#X obj 803 160 change;
#X obj 803 182 bng 15 250 50 0 empty empty empty 17 7 0 10 -262144
-1 -1;
#X obj 865 163 pack f f;
#X floatatom 857 127 5 0 0 0 - - -, f 5;
#X floatatom 924 134 5 0 0 0 - - -, f 5;
#X obj 931 158 change;
#X obj 931 180 bng 15 250 50 0 empty empty empty 17 7 0 10 -262144
-1 -1;
#X obj 616 260 pack f f;
#X floatatom 608 224 5 0 0 0 - - -, f 5;
#X floatatom 675 231 5 0 0 0 - - -, f 5;
#X obj 682 255 change;
#X obj 682 277 bng 15 250 50 0 empty empty empty 17 7 0 10 -262144
-1 -1;
#X obj 740 257 pack f f;
#X floatatom 729 228 5 0 0 0 - - -, f 5;
#X floatatom 798 209 5 0 0 0 - - -, f 5;
#X obj 806 261 change;
#X obj 808 282 bng 15 250 50 0 empty empty empty 17 7 0 10 -262144
-1 -1;
#X obj 872 253 pack f f;
#X floatatom 864 217 5 0 0 0 - - -, f 5;
#X floatatom 931 224 5 0 0 0 - - -, f 5;
#X obj 938 248 change;
#X obj 938 270 bng 15 250 50 0 empty empty empty 17 7 0 10 -262144
-1 -1;
#X obj 1000 251 pack f f;
#X floatatom 992 215 5 0 0 0 - - -, f 5;
#X floatatom 1059 222 5 0 0 0 - - -, f 5;
#X obj 1066 246 change;
#X obj 1066 268 bng 15 250 50 0 empty empty empty 17 7 0 10 -262144
-1 -1;
#X obj 629 303 up_harmo;
#X obj 315 28 inlet;
#X obj 492 38 unpack f f f f f f f f f f;
#X msg 54 111 1;
#X obj 204 403 pack f f f f f f f f f f;
#X obj 268 447 outlet;
#X floatatom 69 375 5 0 0 0 - - -, f 5;
#X msg 95 108 2;
#X msg 143 109 3;
#X msg 188 103 4;
#X msg 224 99 5;
#X msg 3 169 6;
#X msg 44 166 7;
#X msg 92 167 8;
#X msg 137 161 9;
#X msg 173 157 10;
#X obj 162 52 bng 15 250 50 0 empty empty empty 17 7 0 10 -262144 -1
-1;
#X obj 144 306 up_harmo;
#X floatatom 73 338 5 0 0 0 - - -, f 5;
#X connect 0 0 63 2;
#X connect 0 0 65 0;
#X connect 1 0 63 1;
#X connect 2 0 63 3;
#X connect 3 0 63 5;
#X connect 4 0 63 4;
#X connect 5 0 63 6;
#X connect 6 0 63 9;
#X connect 7 0 63 7;
#X connect 8 0 1 0;
#X connect 8 0 0 0;
#X connect 8 0 2 0;
#X connect 8 0 4 0;
#X connect 8 0 3 0;
#X connect 8 0 5 0;
#X connect 8 0 7 0;
#X connect 8 0 6 0;
#X connect 8 0 59 0;
#X connect 8 0 76 0;
#X connect 9 0 8 0;
#X connect 10 0 9 0;
#X connect 11 0 9 1;
#X connect 11 0 12 0;
#X connect 11 0 76 1;
#X connect 12 0 13 0;
#X connect 13 0 10 0;
#X connect 14 0 17 0;
#X connect 14 0 8 0;
#X connect 15 0 14 0;
#X connect 16 0 14 1;
#X connect 16 0 17 0;
#X connect 16 0 1 1;
#X connect 17 0 18 0;
#X connect 18 0 15 0;
#X connect 19 0 22 0;
#X connect 19 0 8 0;
#X connect 20 0 19 0;
#X connect 21 0 19 1;
#X connect 21 0 22 0;
#X connect 21 0 0 1;
#X connect 22 0 23 0;
#X connect 23 0 20 0;
#X connect 24 0 8 0;
#X connect 25 0 24 0;
#X connect 26 0 24 1;
#X connect 26 0 27 0;
#X connect 26 0 2 1;
#X connect 27 0 28 0;
#X connect 28 0 25 0;
#X connect 29 0 32 0;
#X connect 29 0 8 0;
#X connect 30 0 29 0;
#X connect 31 0 29 1;
#X connect 31 0 32 0;
#X connect 31 0 4 1;
#X connect 32 0 33 0;
#X connect 33 0 30 0;
#X connect 34 0 37 0;
#X connect 34 0 8 0;
#X connect 35 0 34 0;
#X connect 36 0 34 1;
#X connect 36 0 37 0;
#X connect 36 0 3 1;
#X connect 37 0 38 0;
#X connect 38 0 35 0;
#X connect 39 0 42 0;
#X connect 39 0 8 0;
#X connect 40 0 39 0;
#X connect 41 0 39 1;
#X connect 41 0 42 0;
#X connect 41 0 5 1;
#X connect 42 0 43 0;
#X connect 43 0 40 0;
#X connect 44 0 8 0;
#X connect 45 0 44 0;
#X connect 46 0 44 1;
#X connect 46 0 47 0;
#X connect 46 0 7 1;
#X connect 47 0 48 0;
#X connect 48 0 45 0;
#X connect 49 0 52 0;
#X connect 49 0 8 0;
#X connect 50 0 49 0;
#X connect 51 0 49 1;
#X connect 51 0 52 0;
#X connect 51 0 59 1;
#X connect 52 0 53 0;
#X connect 53 0 50 0;
#X connect 54 0 57 0;
#X connect 54 0 8 0;
#X connect 55 0 54 0;
#X connect 56 0 54 1;
#X connect 56 0 57 0;
#X connect 56 0 6 1;
#X connect 57 0 58 0;
#X connect 58 0 55 0;
#X connect 59 0 63 8;
#X connect 60 0 61 0;
#X connect 60 0 75 0;
#X connect 61 0 11 0;
#X connect 61 1 16 0;
#X connect 61 2 21 0;
#X connect 61 3 26 0;
#X connect 61 4 31 0;
#X connect 61 5 36 0;
#X connect 61 6 41 0;
#X connect 61 7 46 0;
#X connect 61 8 51 0;
#X connect 61 9 56 0;
#X connect 62 0 10 0;
#X connect 63 0 64 0;
#X connect 66 0 15 0;
#X connect 67 0 20 0;
#X connect 68 0 25 0;
#X connect 69 0 30 0;
#X connect 70 0 35 0;
#X connect 71 0 40 0;
#X connect 72 0 45 0;
#X connect 73 0 50 0;
#X connect 74 0 55 0;
#X connect 75 0 62 0;
#X connect 75 0 66 0;
#X connect 75 0 67 0;
#X connect 75 0 68 0;
#X connect 75 0 69 0;
#X connect 75 0 70 0;
#X connect 75 0 71 0;
#X connect 75 0 72 0;
#X connect 75 0 73 0;
#X connect 75 0 74 0;
#X connect 76 0 63 0;
#X connect 76 0 77 0;
