#N canvas 346 45 1066 631 10;
#X obj 153 432 bng 15 250 50 0 empty empty empty 17 7 0 10 -262144
-1 -1;
#X obj 648 143 soundfiler;
#X floatatom 648 171 10 0 0 0 - - -;
#X obj 656 71 bng 15 250 50 0 empty empty empty 17 7 0 10 -262144 -1
-1;
#X obj 648 97 openpanel;
#N canvas 0 22 450 300 (subpatch) 0;
#X array \$0-euclid 1.2096e+006 float 2;
#X coords 0 1 1.2096e+006 -1 200 140 1 0 0;
#X restore 574 220 graph;
#X floatatom 194 307 5 0 0 0 - - -;
#X floatatom 76 361 5 0 0 0 - - -;
#X floatatom 127 352 5 0 0 0 - - -;
#X obj 647 190 send size2;
#X obj 74 323 counter 1 20;
#X obj 160 108 inlet;
#X obj 160 242 metro \$1;
#X obj 206 192 loadbang;
#X msg 206 218 250;
#X obj 241 255 inlet;
#X obj 333 255 inlet;
#X text 337 234 bars;
#X text 245 234 beats;
#X obj 658 42 inlet;
#X obj 80 397 euclid \$2 0 \$3;
#X obj 198 154 inlet;
#X msg 501 486 \; pd dsp 1 \;;
#X obj 152 160 tgl 15 0 empty empty empty 17 7 0 10 -262144 -1 -1 0
1;
#X obj 220 548 samplerate~;
#X obj 197 570 /;
#X obj 164 532 t f f b;
#X obj 177 623 pack;
#X msg 177 645 0 \, \$1 \$2;
#X obj 197 592 * 1000;
#X obj 175 668 line~;
#X obj 174 507 int;
#X obj 201 739 outlet~;
#X obj 212 478 r size2;
#X obj 328 507 hsl 128 15 500 1800 0 0 empty empty empty -2 -8 0 10
-262144 -1 -1 0 1;
#X msg 650 121 read -resize \$1 \$0-euclid;
#X obj 174 690 tabread4~ \$0-euclid;
#X connect 0 0 31 0;
#X connect 1 0 2 0;
#X connect 2 0 9 0;
#X connect 3 0 4 0;
#X connect 4 0 35 0;
#X connect 6 0 10 4;
#X connect 6 0 20 3;
#X connect 7 0 20 0;
#X connect 8 0 20 1;
#X connect 10 0 7 0;
#X connect 11 0 23 0;
#X connect 12 0 10 0;
#X connect 13 0 14 0;
#X connect 14 0 12 1;
#X connect 15 0 8 0;
#X connect 16 0 6 0;
#X connect 19 0 3 0;
#X connect 20 0 0 0;
#X connect 21 0 12 1;
#X connect 23 0 12 0;
#X connect 24 0 25 1;
#X connect 25 0 29 0;
#X connect 26 0 27 0;
#X connect 26 1 25 0;
#X connect 26 2 24 0;
#X connect 27 0 28 0;
#X connect 28 0 30 0;
#X connect 29 0 27 1;
#X connect 30 0 36 0;
#X connect 31 0 26 0;
#X connect 33 0 31 1;
#X connect 34 0 29 1;
#X connect 35 0 1 0;
#X connect 36 0 32 0;
