#N canvas 773 73 465 357 10;
#X obj 139 176 bng 15 250 50 0 empty empty empty 17 7 0 10 -262144
-1 -1;
#X floatatom 151 45 5 0 0 0 - - -;
#X floatatom 163 75 5 0 0 0 - - -;
#X floatatom 175 105 5 0 0 0 - - -;
#X obj 188 145 loadbang;
#X obj 188 176 bng 15 250 50 0 empty empty empty 17 7 0 10 -262144
-1 -1;
#X text 206 175 To print or not to print...;
#X text 188 46 Number of hits \, k;
#X text 204 75 Number of subdivisions \, n;
#X text 213 105 Offset \, phase;
#X text 92 176 Do it :;
#X obj 139 201 euclideasy;
#X connect 0 0 11 0;
#X connect 1 0 11 1;
#X connect 2 0 11 2;
#X connect 3 0 11 3;
#X connect 4 0 5 0;
#X connect 5 0 11 4;
