#N canvas 156 345 536 362 10;
#X floatatom 122 92 5 0 1000 0 k= #0-kbng #0-knum;
#X floatatom 122 110 5 0 1000 0 n= #0-nbng #0-n;
#N canvas 695 150 415 461 makeTable 0;
#X obj 172 321 outlet bang;
#X obj 48 155 table \$0-steps;
#X obj 47 107 s \$0-steps;
#X msg 47 79 resize \$1;
#X obj 47 55 r \$0-n;
#X obj 332 35 r \$0-n;
#X obj 172 158 until;
#X msg 172 121 \$1;
#X floatatom 242 92 5 0 0 0 - - -;
#X obj 172 188 f;
#X obj 231 188 + 1;
#X obj 182 99 t f b;
#X obj 209 121 f 0;
#X obj 182 75 f;
#X obj 172 233 ==;
#X obj 332 58 t f f;
#X obj 359 216 - 1;
#X obj 172 259 select 1;
#X obj 74 233 r \$0-k;
#X obj 59 321 tabwrite \$0-steps;
#X obj 131 233 t f f;
#X obj 59 293 <;
#X obj 190 291 bng 15 250 50 0 empty empty empty 17 7 0 10 -262144
-1 -1;
#X obj 182 14 inlet;
#X connect 3 0 2 0;
#X connect 4 0 3 0;
#X connect 5 0 15 0;
#X connect 6 0 9 0;
#X connect 7 0 6 0;
#X connect 9 0 10 0;
#X connect 9 0 14 0;
#X connect 9 0 20 0;
#X connect 10 0 9 1;
#X connect 11 0 7 0;
#X connect 11 1 12 0;
#X connect 12 0 9 1;
#X connect 13 0 11 0;
#X connect 13 0 8 0;
#X connect 14 0 17 0;
#X connect 15 0 13 1;
#X connect 15 1 16 0;
#X connect 16 0 14 1;
#X connect 17 0 0 0;
#X connect 17 0 22 0;
#X connect 18 0 21 1;
#X connect 20 0 21 0;
#X connect 20 1 19 1;
#X connect 21 0 19 0;
#X connect 23 0 13 0;
#X restore 272 109 pd makeTable;
#N canvas 876 30 437 691 readTable 0;
#X obj 109 27 inlet bang;
#X obj 109 272 *;
#X obj 109 348 mod;
#X obj 124 89 r \$0-n;
#X obj 109 373 tabread \$0-steps;
#X obj 99 197 until;
#X msg 99 169 \$1;
#X obj 99 227 f;
#X obj 58 227 + 1;
#X obj 109 138 t f b;
#X obj 136 197 f 0;
#X obj 109 114 f;
#X obj 99 698 outlet;
#X obj 124 249 r \$0-k;
#X obj 124 294 r \$0-n;
#X obj 124 317 + 0.6;
#X obj 99 585 list append;
#X obj 269 489 t l;
#X obj 162 489 list prepend;
#X obj 109 61 t b b;
#X obj 59 526 bng 15 250 50 0 empty empty empty 0 -6 0 8 -262144 -1
-1;
#X obj 229 665 print;
#X obj 109 410 r \$0-n;
#X obj 99 473 ==;
#X obj 109 433 t f f;
#X obj 136 456 - 1;
#X obj 99 499 select 1;
#X obj 229 635 spigot;
#X obj 262 610 r \$0-print;
#X obj 162 400 + 0;
#X obj 315 417 spigot;
#X obj 195 431 expr 1-$f1;
#X obj 162 455 spigot;
#X obj 315 451 list append;
#X obj 402 451 t l;
#X obj 348 382 r \$0-rnf;
#X obj 342 497 list length;
#X obj 342 519 - 1;
#X obj 315 544 list split;
#X obj 315 474 t l l;
#X obj 315 568 list prepend;
#N canvas 496 48 313 364 roll 0;
#X obj 112 33 inlet;
#X obj 112 311 outlet;
#X obj 169 56 r \$0-ph;
#X obj 169 186 mod;
#X obj 180 111 r \$0-n;
#X obj 112 233 list split;
#X obj 112 257 list prepend;
#X floatatom 219 203 5 0 0 0 - - -;
#X obj 169 160 f;
#X obj 180 134 t b f;
#X obj 169 90 * -1;
#X connect 0 0 5 0;
#X connect 2 0 10 0;
#X connect 3 0 7 0;
#X connect 3 0 5 1;
#X connect 4 0 9 0;
#X connect 5 0 6 0;
#X connect 5 1 6 1;
#X connect 6 0 1 0;
#X connect 8 0 3 0;
#X connect 9 0 8 0;
#X connect 9 1 3 1;
#X connect 10 0 8 0;
#X restore 99 618 pd roll;
#X floatatom 285 635 5 0 0 0 - - -;
#X obj 207 78 s \$0-bngl;
#X obj 231 465 r \$0-bngl;
#X obj 378 427 r \$0-bngl;
#X connect 0 0 19 0;
#X connect 1 0 2 0;
#X connect 2 0 4 0;
#X connect 3 0 11 1;
#X connect 4 0 29 0;
#X connect 5 0 7 0;
#X connect 6 0 5 0;
#X connect 7 0 8 0;
#X connect 7 0 1 0;
#X connect 7 0 23 0;
#X connect 8 0 7 1;
#X connect 9 0 6 0;
#X connect 9 1 10 0;
#X connect 10 0 7 1;
#X connect 11 0 9 0;
#X connect 13 0 1 1;
#X connect 14 0 15 0;
#X connect 15 0 2 1;
#X connect 16 0 41 0;
#X connect 17 0 18 1;
#X connect 18 0 17 0;
#X connect 18 0 16 1;
#X connect 19 0 11 0;
#X connect 19 1 43 0;
#X connect 20 0 16 0;
#X connect 22 0 24 0;
#X connect 23 0 26 0;
#X connect 24 1 25 0;
#X connect 25 0 23 1;
#X connect 26 0 16 0;
#X connect 27 0 21 0;
#X connect 28 0 27 1;
#X connect 28 0 42 0;
#X connect 29 0 32 0;
#X connect 29 0 30 0;
#X connect 30 0 33 0;
#X connect 31 0 32 1;
#X connect 32 0 18 0;
#X connect 33 0 34 0;
#X connect 33 0 39 0;
#X connect 34 0 33 1;
#X connect 35 0 31 0;
#X connect 35 0 30 1;
#X connect 36 0 37 0;
#X connect 37 0 38 1;
#X connect 38 0 40 0;
#X connect 38 1 40 1;
#X connect 39 0 38 0;
#X connect 39 1 36 0;
#X connect 40 0 16 1;
#X connect 41 0 27 0;
#X connect 41 0 12 0;
#X connect 44 0 18 1;
#X connect 45 0 33 1;
#X restore 272 130 pd readTable;
#X obj 139 146 bng 15 250 50 0 \$0-start \$0-doitbng Do_it: -36 8 0
10 -262144 -1 -1;
#X obj 272 151 outlet;
#X obj 32 27 inlet;
#X obj 122 27 inlet;
#X obj 194 27 inlet;
#X text 158 27 k;
#X text 231 27 n;
#X text 69 27 start;
#X obj 356 204 tgl 15 0 \$0-print empty empty 17 7 0 10 -262144 -1
-1 1 1;
#N canvas 108 43 647 363 control 0;
#X obj 126 155 /;
#X obj 126 177 i;
#X floatatom 216 194 5 0 0 0 - - -;
#X obj 114 87 t b f;
#X obj 168 104 s \$0-k;
#X obj 126 197 s \$0-mod;
#X obj 126 133 r \$0-n;
#X obj 114 59 r \$0-knum;
#X obj 114 235 s \$0-nbng;
#X obj 285 34 r \$0-start;
#X obj 285 329 outlet;
#X obj 509 37 r \$0-n;
#X obj 509 76 / 2;
#X obj 461 36 r \$0-k;
#X obj 461 132 >;
#X obj 461 168 s \$0-rnf;
#X obj 285 112 speedlim 50;
#X obj 285 91 f 1;
#X obj 285 133 t b;
#X connect 0 0 1 0;
#X connect 1 0 2 0;
#X connect 1 0 5 0;
#X connect 3 0 8 0;
#X connect 3 1 0 1;
#X connect 3 1 4 0;
#X connect 6 0 0 0;
#X connect 7 0 3 0;
#X connect 9 0 17 0;
#X connect 11 0 12 0;
#X connect 12 0 14 1;
#X connect 13 0 14 0;
#X connect 14 0 15 0;
#X connect 16 0 18 0;
#X connect 17 0 16 0;
#X connect 18 0 10 0;
#X restore 272 88 pd control;
#X obj 194 53 s \$0-nbng;
#X text 189 206 To print or not to print...;
#X floatatom 122 128 5 -1000 1000 0 ph= #0-phbng #0-ph;
#X obj 122 53 s \$0-kbng;
#X obj 32 53 s \$0-doitbng;
#X obj 266 27 inlet;
#X obj 266 53 s \$0-phbng;
#X text 304 27 phase;
#X obj 356 27 inlet;
#X text 393 27 print toggle;
#X text 25 268 http://cgm.cs.mcgill.ca/~godfried/publications/banff.pdf
;
#X text 25 256 Another Euclidean rhythm generator \, after;
#X text 40 315 Copyleft 2011 Sumidero (guscarr AT gmail DOT com);
#X text 40 326 Use \, copy \, modify as you like. Cite the forum \,
please.;
#X text 24 280 and eudlidean.pd patch posted on puredata users forum:
http://www.puredata.hurleur.com;
#X connect 2 0 3 0;
#X connect 3 0 5 0;
#X connect 6 0 18 0;
#X connect 7 0 17 0;
#X connect 8 0 14 0;
#X connect 13 0 2 0;
#X connect 19 0 20 0;
#X connect 22 0 12 0;
#X coords 0 -1 1 1 56 72 2 99 90;
