#N canvas 700 188 627 419 12;
#X obj 105 115 peak_avg;
#X text 217 46 window size;
#X floatatom 217 70 5 0 0 0 - - -;
#X floatatom 105 138 5 0 0 0 - - -;
#X obj 152 344 sel 1;
#X obj 322 56 loadbang;
#X msg 320 88 10000;
#X obj 113 229 expr if ($f1 < $f2 \, 1 \, 0);
#X msg 284 141 -1;
#X obj 100 57 spigot;
#X obj 185 49 tgl 15 0 empty empty empty 17 7 0 10 -262144 -1 -1 0
1;
#X obj 76 24 inlet;
#X obj 180 19 inlet start;
#X obj 147 370 outlet;
#X obj 361 130 f \$1;
#X obj 406 139 f \$2;
#X obj 156 156 spigot;
#X floatatom 179 308 5 0 0 0 - - -;
#X obj 253 328 expr if ($f1 == 1 \, 0 \, 1);
#X obj 272 286 spigot;
#X obj 304 252 tgl 15 0 empty empty empty 17 7 0 10 -262144 -1 -1 0
1;
#X obj 329 285 spigot;
#X obj 372 215 tgl 15 0 empty empty empty 17 7 0 10 -262144 -1 -1 1
1;
#X obj 404 259 expr if ($f1 > $f2 \, 1 \, 0);
#X obj 462 134 f \$3;
#X obj 334 215 - 1;
#X obj 334 240 abs;
#X connect 0 0 3 0;
#X connect 2 0 0 2;
#X connect 3 0 16 0;
#X connect 4 0 13 0;
#X connect 5 0 6 0;
#X connect 5 0 8 0;
#X connect 5 0 15 0;
#X connect 5 0 14 0;
#X connect 5 0 24 0;
#X connect 6 0 2 0;
#X connect 7 0 19 0;
#X connect 8 0 7 1;
#X connect 9 0 0 0;
#X connect 10 0 9 1;
#X connect 10 0 16 1;
#X connect 11 0 9 0;
#X connect 12 0 10 0;
#X connect 14 0 2 0;
#X connect 15 0 7 1;
#X connect 15 0 23 1;
#X connect 16 0 7 0;
#X connect 16 0 23 0;
#X connect 17 0 18 0;
#X connect 17 0 4 0;
#X connect 18 0 10 0;
#X connect 19 0 17 0;
#X connect 20 0 19 1;
#X connect 21 0 17 0;
#X connect 22 0 21 1;
#X connect 22 0 25 0;
#X connect 23 0 21 0;
#X connect 24 0 22 0;
#X connect 25 0 26 0;
#X connect 26 0 20 0;
