#N canvas 2273 235 832 750 12;
#X obj 129 86 inlet~;
#X obj 451 79 inlet~;
#X obj 209 422 *~;
#X text 433 46 if \$1 is high \, sound of the right inlet will be played
;
#X text 433 28 Fade or interpolate between two audio stream;
#X obj 287 408 - 1;
#X obj 287 433 abs;
#X obj 397 416 *~;
#X obj 281 563 outlet~;
#X msg 539 274 10000;
#X obj 510 354 avg;
#X obj 514 412 expr if ($f1 >= 1 \, 1 \, 0);
#X obj 514 453 sel 1;
#X obj 376 150 loadbang;
#X obj 515 482 t b b b;
#X msg 237 332 0;
#X obj 281 98 inlet;
#X obj 559 509 delay 10000;
#X floatatom 287 458 5 0 0 0 - - -;
#X floatatom 37 37 5 0 0 0 - - -;
#X floatatom 231 399 5 0 0 0 - - -;
#X obj 287 272 avg_smooth;
#X obj 287 297 clip -2 2;
#X obj 287 369 zscale -2 2 0 1;
#X text 516 215 module that enables to HOLD on right side;
#X obj 257 518 *~;
#X obj 358 518 *~;
#X msg 577 549 0.5 3000;
#X msg 511 550 0 3000;
#X msg 450 549 1 3000;
#X msg 316 192 3000;
#X floatatom 551 379 5 0 0 0 - - -;
#X obj 450 620 line~;
#X obj 510 621 line~;
#X floatatom 606 603 5 0 0 0 - - -;
#X connect 0 0 2 0;
#X connect 1 0 7 0;
#X connect 2 0 25 0;
#X connect 5 0 6 0;
#X connect 6 0 2 1;
#X connect 6 0 18 0;
#X connect 7 0 26 0;
#X connect 9 0 10 1;
#X connect 10 0 11 0;
#X connect 10 0 31 0;
#X connect 11 0 12 0;
#X connect 12 0 14 0;
#X connect 13 0 15 0;
#X connect 13 0 9 0;
#X connect 13 0 30 0;
#X connect 13 0 27 0;
#X connect 14 0 29 0;
#X connect 14 1 28 0;
#X connect 14 2 17 0;
#X connect 15 0 23 0;
#X connect 16 0 10 0;
#X connect 16 0 21 0;
#X connect 17 0 27 0;
#X connect 21 0 22 0;
#X connect 22 0 23 0;
#X connect 23 0 5 0;
#X connect 23 0 7 1;
#X connect 23 0 20 0;
#X connect 25 0 8 0;
#X connect 26 0 8 0;
#X connect 27 0 33 0;
#X connect 27 0 32 0;
#X connect 27 0 34 0;
#X connect 28 0 33 0;
#X connect 29 0 32 0;
#X connect 30 0 21 1;
#X connect 32 0 26 1;
#X connect 33 0 25 1;
