#N canvas 0 50 1111 828 10;
#N canvas 0 50 450 300 (subpatch) 0;
#X array \$0-snd2 44100 float 2;
#X coords 0 1 44100 -1 300 80 1 0 0;
#X restore 595 407 graph;
#X obj 581 227 soundfiler;
#X floatatom 581 255 10 0 0 0 - - -, f 10;
#X text 659 255 Nombre d'échantillons par canal;
#X obj 354 161 openpanel;
#X obj 354 140 bng 15 250 50 0 empty empty empty 17 7 0 10 -262144
-1 -1;
#X msg 354 184 read -resize \$1 snd1 snd2;
#X obj 197 398 bng 15 250 50 0 empty empty empty 17 7 0 10 -262144
-1 -1;
#X text 164 115 Lecture de fichier son en RAM;
#X text 371 140 Ouvrir un dialogue standard;
#N canvas 344 85 565 502 lecture_simple 0;
#X obj 118 116 samplerate~;
#X obj 95 138 /;
#X obj 72 95 t f f b;
#X obj 72 265 pack;
#X msg 72 287 0 \, \$1 \$2;
#X obj 95 160 * 1000;
#X obj 72 35 inlet go;
#X text 197 155 samples / sr * 1000;
#X text 139 288 \$1 et \$2 remplacés par les éléments d'une liste
en entrée;
#X text 117 309 valeur seule -> saut direct à la valeur;
#X text 145 139 Conversion de la durée en millisecondes;
#X obj 260 350 inlet gain;
#X msg 260 372 \$1 25;
#X obj 260 394 line~;
#X obj 11 424 *~;
#X obj 115 190 inlet transposition;
#X floatatom 115 223 5 0 0 0 - - -, f 5;
#X obj 72 314 line~;
#X text 117 325 Liste "X Y" -> se rend à la valeur X en Y millisecondes
;
#X obj 97 242 /;
#X text 161 213 Altération de la hauteur en divisant la durée;
#X text 161 227 de lecture par un facteur de transposition.;
#X obj 72 75 int;
#X text 107 265 Construit une liste de 2 valeurs;
#X obj 11 446 outlet~;
#X obj 90 55 receive \$0-size;
#X obj 11 350 tabread4~ \$0-snd2;
#X connect 0 0 1 1;
#X connect 1 0 5 0;
#X connect 2 0 3 0;
#X connect 2 1 1 0;
#X connect 2 2 0 0;
#X connect 3 0 4 0;
#X connect 4 0 17 0;
#X connect 5 0 19 0;
#X connect 6 0 22 0;
#X connect 11 0 12 0;
#X connect 12 0 13 0;
#X connect 13 0 14 1;
#X connect 14 0 24 0;
#X connect 15 0 16 0;
#X connect 16 0 19 1;
#X connect 17 0 26 0;
#X connect 19 0 3 1;
#X connect 22 0 2 0;
#X connect 25 0 22 1;
#X connect 26 0 14 0;
#X restore 197 436 pd lecture_simple;
#X obj 313 305 vsl 15 100 0 1 0 0 empty empty Gain 0 -9 0 10 -262144
-1 -1 300 1;
#X obj 255 305 vsl 15 100 0.25 4 0 0 empty empty Transpo 0 -9 0 10
-262144 -1 -1 1980 1;
#X floatatom 255 414 5 0 0 0 - - -, f 5;
#X obj 255 210 loadbang;
#X msg 255 232 1;
#X floatatom 313 414 5 0 0 0 - - -, f 5;
#X text 195 379 go;
#X obj 408 564 pow;
#X floatatom 408 499 5 0 0 0 - - -, f 5;
#X obj 408 518 t b f;
#X msg 408 540 2;
#X obj 440 540 / 12;
#X floatatom 408 586 5 0 0 0 - - -, f 5;
#X text 261 498 Transpo en demi-tons;
#X text 234 585 Facteur de transposition;
#X msg 611 196 write -wave -bytes 4 ../snds/myfile snd1 snd2;
#X text 579 140 Lecture d'un fichier son stereo;
#X text 608 178 Écriture d'un fichier son stereo;
#X text 659 222 Communication en lecture et en écriture avec les arrays
;
#X obj 589 79 loadbang;
#X obj 87 165 inlet go;
#X obj 147 525 outlet~;
#X obj 581 274 send \$0-size;
#X obj 707 87 \$1;
#X msg 582 158 read -resize ../samples/wood.aiff \$0-snd2;
#X connect 1 0 2 0;
#X connect 2 0 33 0;
#X connect 4 0 6 0;
#X connect 5 0 4 0;
#X connect 6 0 1 0;
#X connect 7 0 10 0;
#X connect 10 0 32 0;
#X connect 11 0 16 0;
#X connect 12 0 13 0;
#X connect 13 0 10 1;
#X connect 14 0 15 0;
#X connect 15 0 12 0;
#X connect 16 0 10 2;
#X connect 18 0 23 0;
#X connect 19 0 20 0;
#X connect 20 0 21 0;
#X connect 20 1 22 0;
#X connect 21 0 18 0;
#X connect 22 0 18 1;
#X connect 26 0 1 0;
#X connect 30 0 35 0;
#X connect 31 0 7 0;
#X connect 34 0 35 0;
#X connect 35 0 1 0;
