#N canvas 228 389 672 448 12;
#X obj 193 142 mavg;
#X obj 140 68 inlet data;
#X obj 266 67 inlet seconds;
#X obj 140 94 clip -2.5 2.5;
#X obj 266 93 * 10;
#X text 304 93 Sampling rate;
#X obj 192 388 outlet;
#X obj 193 355 line;
#X msg 193 327 \$1 \$2;
#X obj 193 238 pack f f;
#X text 304 239 Smooths in half the time of the window;
#X obj 340 197 * 50;
#X obj 509 89 * 1000;
#X obj 489 149 metro;
#X obj 438 56 loadbang;
#X obj 489 188 bng 15 250 50 0 empty empty empty 17 7 0 10 -262144
-1 -1;
#X obj 250 280 spigot;
#X obj 357 305 tgl 15 0 empty empty empty 17 7 0 10 -262144 -1 -1 0
1;
#X floatatom 250 306 5 0 0 0 - - -;
#X obj 489 216 delay 150;
#X msg 341 270 0;
#X obj 193 168 zscale 2.5 -2.5 0 1;
#X msg 391 41 7;
#X connect 0 0 21 0;
#X connect 1 0 3 0;
#X connect 2 0 4 0;
#X connect 2 0 12 0;
#X connect 3 0 0 0;
#X connect 4 0 0 1;
#X connect 4 0 11 0;
#X connect 7 0 6 0;
#X connect 8 0 7 0;
#X connect 9 0 16 0;
#X connect 11 0 9 1;
#X connect 12 0 13 1;
#X connect 13 0 15 0;
#X connect 14 0 13 0;
#X connect 14 0 20 0;
#X connect 14 0 22 0;
#X connect 15 0 17 0;
#X connect 15 0 19 0;
#X connect 16 0 8 0;
#X connect 16 0 18 0;
#X connect 17 0 16 1;
#X connect 19 0 17 0;
#X connect 20 0 17 0;
#X connect 21 0 9 0;
#X connect 22 0 4 0;
#X connect 22 0 12 0;
