#N canvas 0 50 450 300 10;
#X floatatom 183 130 5 0 0 0 - - -;
#X floatatom 137 215 7 0 0 0 - - -;
#X obj 137 152 /;
#X obj 182 164 bng 15 250 50 0 empty empty empty 17 7 0 10 -262144
-1 -1;
#X obj 137 131 1000;
#X obj 183 109 / 8;
#X obj 243 171 t b;
#X floatatom 183 79 5 0 0 0 - - -;
#X obj 183 58 r \$1;
#X obj 227 110 r \$2;
#X obj 125 270 outlet;
#X msg 134 232 \$1 100;
#X obj 201 267 s \$3;
#X connect 0 0 2 1;
#X connect 0 0 3 0;
#X connect 1 0 11 0;
#X connect 2 0 1 0;
#X connect 3 0 4 0;
#X connect 4 0 2 0;
#X connect 5 0 0 0;
#X connect 6 0 7 0;
#X connect 7 0 5 0;
#X connect 8 0 7 0;
#X connect 9 0 5 1;
#X connect 9 0 6 0;
#X connect 11 0 10 0;
#X connect 11 0 12 0;
