#N canvas 0 50 450 300 12;
#X obj 174 58 inlet;
#X obj 174 84 ftom;
#X obj 174 136 int;
#X obj 174 162 mtof;
#X obj 174 188 outlet;
#X obj 174 110 + 0.5;
#X connect 0 0 1 0;
#X connect 1 0 5 0;
#X connect 2 0 3 0;
#X connect 3 0 4 0;
#X connect 5 0 2 0;
