#N canvas 39 132 706 517 10;
#X obj 283 351 s \$2;
#X obj 209 33 r \$1;
#X obj 289 290 EEG_avg02;
#X msg 327 256 1000;
#X obj 335 235 loadbang;
#X obj 203 155 zscale -3 3 0 10;
#X obj 372 262 f \$3;
#X obj 148 187 gate 2;
#X obj 171 208 clip 0 10;
#X obj 44 97 f \$4;
#X obj 35 56 loadbang;
#X obj 49 134 expr if ($f1 == 1 \, 1 \, 2);
#X msg 312 102 10;
#X obj 382 75 expr if ($f1 == 1 \, 1 \, 2);
#X obj 405 41 f \$5;
#X obj 247 103 f \$6;
#X obj 418 155 gate 2;
#X obj 394 207 zscale 3 -3 0 10;
#X obj 159 89 t b b;
#X connect 1 0 16 1;
#X connect 2 0 0 0;
#X connect 3 0 2 2;
#X connect 4 0 3 0;
#X connect 4 0 6 0;
#X connect 5 0 7 1;
#X connect 6 0 2 2;
#X connect 7 0 8 0;
#X connect 7 1 2 0;
#X connect 8 0 2 0;
#X connect 9 0 11 0;
#X connect 10 0 9 0;
#X connect 10 0 14 0;
#X connect 10 0 18 0;
#X connect 11 0 7 0;
#X connect 12 0 5 4;
#X connect 12 0 17 4;
#X connect 13 0 16 0;
#X connect 14 0 13 0;
#X connect 15 0 5 4;
#X connect 15 0 17 4;
#X connect 16 0 17 0;
#X connect 16 1 5 0;
#X connect 17 0 7 1;
#X connect 18 0 12 0;
#X connect 18 1 15 0;
