#N canvas 39 132 706 517 10;
#X obj 283 351 s \$2;
#X obj 209 33 r \$1;
#X obj 289 290 EEG_avg02;
#X msg 336 258 1000;
#X obj 335 235 loadbang;
#X floatatom 371 270 5 0 0 0 - - -;
#X obj 203 155 zscale -3 3 0 10;
#X obj 371 253 f \$3;
#X obj 148 187 gate 2;
#X floatatom 59 171 5 0 0 0 - - -;
#X obj 171 208 clip 0 10;
#X obj 44 97 f \$4;
#X obj 35 56 loadbang;
#X obj 49 134 expr if ($f1 == 1 \, 1 \, 2);
#X floatatom 289 311 5 0 0 0 - - -;
#X msg 312 102 10;
#X floatatom 381 94 5 0 0 0 - - -;
#X obj 382 75 expr if ($f1 == 1 \, 1 \, 2);
#X obj 405 41 f \$5;
#X obj 247 103 f \$6;
#X obj 381 118 gate 2;
#X obj 394 207 zscale 3 -3 0 10;
#X floatatom 394 228 5 0 0 0 - - -;
#X floatatom 209 54 5 0 0 0 - - -;
#X floatatom 381 139 5 0 0 0 - - -;
#X obj 159 89 t b b;
#X connect 1 0 20 1;
#X connect 1 0 23 0;
#X connect 2 0 0 0;
#X connect 2 0 14 0;
#X connect 3 0 2 2;
#X connect 4 0 3 0;
#X connect 4 0 7 0;
#X connect 5 0 2 2;
#X connect 6 0 8 1;
#X connect 7 0 5 0;
#X connect 8 0 10 0;
#X connect 8 1 2 0;
#X connect 9 0 8 0;
#X connect 10 0 2 0;
#X connect 11 0 13 0;
#X connect 12 0 11 0;
#X connect 12 0 18 0;
#X connect 12 0 25 0;
#X connect 13 0 9 0;
#X connect 15 0 6 4;
#X connect 15 0 21 4;
#X connect 16 0 20 0;
#X connect 17 0 16 0;
#X connect 18 0 17 0;
#X connect 19 0 6 4;
#X connect 19 0 21 4;
#X connect 20 0 21 0;
#X connect 20 0 24 0;
#X connect 20 1 6 0;
#X connect 21 0 8 1;
#X connect 21 0 22 0;
#X connect 25 0 15 0;
#X connect 25 1 19 0;
