#N canvas 467 265 800 482 10;
#X floatatom 84 72 5 0 0 0 - - -;
#X obj 89 142 expr if ($f1 == 0 \, $f2 \, 0) \; if ($f1 == 1 \, $f3
\, 0) \; if ($f1 == 2 \, $f4 \, 0) \; if ($f1 == 3 \, $f5 \, 0) \;
if ($f1 == 4 \, $f6 \, 0) \; if ($f1 == 5 \, $f7 \, 0);
#X obj 78 238 expr $f1 + $f2 + $f3 + $f4 + $f5 + $f6;
#X obj 55 19 inlet;
#X obj 78 259 outlet;
#X obj 125 45 r dpeak;
#X obj 200 46 r apeak;
#X obj 135 86 r tpeak;
#X obj 209 87 r lbpeak;
#X obj 288 86 r gpeak;
#X obj 278 46 r hbpeak;
#X obj 98 94 t b;
#X connect 0 0 1 0;
#X connect 1 0 2 0;
#X connect 1 1 2 1;
#X connect 1 2 2 2;
#X connect 1 3 2 3;
#X connect 1 4 2 4;
#X connect 1 5 2 5;
#X connect 2 0 4 0;
#X connect 3 0 0 0;
#X connect 5 0 1 1;
#X connect 5 0 11 0;
#X connect 6 0 1 3;
#X connect 6 0 11 0;
#X connect 7 0 1 2;
#X connect 7 0 11 0;
#X connect 8 0 1 4;
#X connect 8 0 11 0;
#X connect 9 0 1 6;
#X connect 9 0 11 0;
#X connect 10 0 1 5;
#X connect 10 0 11 0;
#X connect 11 0 0 0;
