#N canvas 737 245 800 482 10;
#X floatatom 84 72 5 0 0 0 - - -;
#X obj 89 142 expr if ($f1 == 0 \, $f2 \, 0) \; if ($f1 == 1 \, $f3
\, 0) \; if ($f1 == 2 \, $f4 \, 0) \; if ($f1 == 3 \, $f5 \, 0) \;
if ($f1 == 4 \, $f6 \, 0) \; if ($f1 == 5 \, $f7 \, 0);
#X obj 78 238 expr $f1 + $f2 + $f3 + $f4 + $f5 + $f6;
#X obj 55 19 inlet;
#X obj 77 298 outlet;
#X obj 116 26 r dpeak;
#X obj 191 27 r apeak;
#X obj 183 72 r tpeak;
#X obj 257 73 r lbpeak;
#X obj 336 72 r gpeak;
#X obj 269 27 r hbpeak;
#X obj 98 94 t b;
#X obj 521 207 r peaktrig;
#X obj 408 244 gate 2;
#X obj 523 238 bng 15 250 50 0 empty empty empty 17 7 0 10 -262144
-1 -1;
#X msg 521 288 1;
#X obj 454 311 expr if ($f1 == 1 \, 1 \, 2);
#X obj 575 282 delay 100;
#X msg 606 301 2;
#X floatatom 432 190 5 0 0 0 - - -;
#X obj 590 238 s peaktrigSend;
#X obj 294 342 f;
#X obj 295 296 loadbang;
#X msg 295 319 1;
#X connect 0 0 1 0;
#X connect 1 0 2 0;
#X connect 1 1 2 1;
#X connect 1 2 2 2;
#X connect 1 3 2 3;
#X connect 1 4 2 4;
#X connect 1 5 2 5;
#X connect 2 0 19 0;
#X connect 3 0 0 0;
#X connect 5 0 1 1;
#X connect 5 0 11 0;
#X connect 6 0 1 3;
#X connect 6 0 11 0;
#X connect 7 0 1 2;
#X connect 7 0 11 0;
#X connect 8 0 1 4;
#X connect 8 0 11 0;
#X connect 9 0 1 6;
#X connect 9 0 11 0;
#X connect 10 0 1 5;
#X connect 10 0 11 0;
#X connect 11 0 0 0;
#X connect 12 0 14 0;
#X connect 13 0 21 0;
#X connect 14 0 15 0;
#X connect 14 0 17 0;
#X connect 14 0 19 0;
#X connect 14 0 20 0;
#X connect 15 0 16 0;
#X connect 16 0 13 0;
#X connect 17 0 18 0;
#X connect 18 0 16 0;
#X connect 19 0 13 1;
#X connect 21 0 4 0;
#X connect 22 0 23 0;
#X connect 23 0 21 0;
