#N canvas 0 50 575 426 10;
#X floatatom 84 72 5 0 0 0 - - -;
#X floatatom 78 218 5 0 0 0 - - -;
#X floatatom 112 218 5 0 0 0 - - -;
#X obj 86 131 expr if ($f1 == 0 \, $f2 \, 0) \; if ($f1 == 1 \, $f3
\, 0) \; if ($f1 == 2 \, $f4 \, 0) \; if ($f1 == 3 \, $f5 \, 0) \;
if ($f1 == 4 \, $f6 \, 0) \; if ($f1 == 5 \, $f7 \, 0);
#X floatatom 125 66 5 0 0 0 - - -;
#X floatatom 200 67 5 0 0 0 - - -;
#X floatatom 278 67 5 0 0 0 - - -;
#X floatatom 288 107 5 0 0 0 - - -;
#X floatatom 209 108 5 0 0 0 - - -;
#X floatatom 135 107 5 0 0 0 - - -;
#X floatatom 146 218 5 0 0 0 - - -;
#X floatatom 181 218 5 0 0 0 - - -;
#X floatatom 216 218 5 0 0 0 - - -;
#X floatatom 251 218 5 0 0 0 - - -;
#X obj 78 238 expr $f1 + $f2 + $f3 + $f4 + $f5 + $f6;
#X obj 55 19 inlet;
#X obj 78 259 outlet;
#X obj 98 94 t b;
#X obj 125 45 r deltapeak;
#X obj 135 86 r thetapeak;
#X obj 200 46 r alphapeak;
#X obj 209 87 r lobetapeak;
#X obj 278 46 r hibetapeak;
#X obj 288 86 r gammapeak;
#X connect 0 0 3 0;
#X connect 1 0 14 0;
#X connect 2 0 14 1;
#X connect 3 0 1 0;
#X connect 3 1 2 0;
#X connect 3 2 10 0;
#X connect 3 3 11 0;
#X connect 3 4 12 0;
#X connect 3 5 13 0;
#X connect 4 0 3 1;
#X connect 4 0 17 0;
#X connect 5 0 3 3;
#X connect 5 0 17 0;
#X connect 6 0 3 5;
#X connect 6 0 17 0;
#X connect 7 0 3 6;
#X connect 7 0 17 0;
#X connect 8 0 3 4;
#X connect 8 0 17 0;
#X connect 9 0 3 2;
#X connect 9 0 17 0;
#X connect 10 0 14 2;
#X connect 11 0 14 3;
#X connect 12 0 14 4;
#X connect 13 0 14 5;
#X connect 14 0 16 0;
#X connect 15 0 0 0;
#X connect 17 0 0 0;
#X connect 18 0 4 0;
#X connect 19 0 9 0;
#X connect 20 0 5 0;
#X connect 21 0 8 0;
#X connect 22 0 6 0;
#X connect 23 0 7 0;
