#N canvas 0 50 647 454 12;
#X obj 214 348 *~ 0.5;
#X obj 214 374 outlet~;
#X obj 254 173 *~;
#X obj 175 86 osc~;
#X obj 239 85 osc~;
#X obj 152 25 r \$1;
#X obj 231 52 r \$2;
#X connect 0 0 1 0;
#X connect 2 0 0 0;
#X connect 3 0 2 0;
#X connect 4 0 2 1;
#X connect 5 0 3 0;
#X connect 6 0 4 0;
