#N canvas 0 50 450 300 10;
#N canvas 0 70 837 714 SMILE 0;
#X obj 76 606 bng 15 250 50 0 empty empty empty 17 7 0 10 -262144 -1
-1;
#N canvas 344 85 565 502 lecture_simple 0;
#X obj 118 116 samplerate~;
#X obj 95 138 /;
#X obj 72 95 t f f b;
#X obj 72 265 pack;
#X msg 72 287 0 \, \$1 \$2;
#X obj 95 160 * 1000;
#X obj 72 35 inlet go;
#X text 197 155 samples / sr * 1000;
#X text 139 288 \$1 et \$2 remplacés par les éléments d'une liste
en entrée;
#X text 117 309 valeur seule -> saut direct à la valeur;
#X text 145 139 Conversion de la durée en millisecondes;
#X obj 260 350 inlet gain;
#X msg 260 372 \$1 25;
#X obj 260 394 line~;
#X obj 71 428 *~;
#X obj 115 190 inlet transposition;
#X floatatom 115 223 5 0 0 0 - - -, f 5;
#X obj 72 314 line~;
#X text 117 325 Liste "X Y" -> se rend à la valeur X en Y millisecondes
;
#X obj 97 242 /;
#X text 161 213 Altération de la hauteur en divisant la durée;
#X text 161 227 de lecture par un facteur de transposition.;
#X obj 72 75 int;
#X text 107 265 Construit une liste de 2 valeurs;
#X obj 91 467 outlet~;
#X obj 91 53 receive sizeLaugh1;
#X obj 71 354 tabread4~ laugh1;
#X connect 0 0 1 1;
#X connect 1 0 5 0;
#X connect 2 0 3 0;
#X connect 2 1 1 0;
#X connect 2 2 0 0;
#X connect 3 0 4 0;
#X connect 4 0 17 0;
#X connect 5 0 19 0;
#X connect 6 0 22 0;
#X connect 11 0 12 0;
#X connect 12 0 13 0;
#X connect 13 0 14 1;
#X connect 14 0 24 0;
#X connect 15 0 16 0;
#X connect 16 0 19 1;
#X connect 17 0 26 0;
#X connect 19 0 3 1;
#X connect 22 0 2 0;
#X connect 25 0 22 1;
#X connect 26 0 14 0;
#X restore 76 644 pd lecture_simple;
#X obj 192 513 vsl 15 100 0 1 0 0 empty empty Gain 0 -9 0 10 -262144
-1 -1 198 1;
#X obj 134 513 vsl 15 100 0.25 4 0 0 empty empty Transpo 0 -9 0 10
-262144 -1 -1 1629 1;
#X floatatom 134 622 5 0 0 0 - - -, f 5;
#X floatatom 192 622 5 0 0 0 - - -, f 5;
#X text 74 587 go;
#X obj 75 502 sel 1;
#X obj 147 460 loadbang;
#X msg 127 480 0.867;
#X msg 188 478 0.02;
#X obj 76 446 bng 15 250 50 0 empty empty empty 17 7 0 10 -262144 -1
-1;
#X floatatom 312 202 5 0 0 0 - - -, f 5;
#X floatatom 160 203 5 0 0 0 - - -, f 5;
#X obj 161 183 4headsetssmile smilez1;
#X obj 120 221 gate 4;
#X obj 252 596 bng 15 250 50 0 empty empty empty 17 7 0 10 -262144
-1 -1;
#N canvas 344 85 565 502 lecture_simple 0;
#X obj 118 116 samplerate~;
#X obj 95 138 /;
#X obj 72 95 t f f b;
#X obj 72 265 pack;
#X msg 72 287 0 \, \$1 \$2;
#X obj 95 160 * 1000;
#X obj 72 35 inlet go;
#X text 197 155 samples / sr * 1000;
#X text 139 288 \$1 et \$2 remplacés par les éléments d'une liste
en entrée;
#X text 117 309 valeur seule -> saut direct à la valeur;
#X text 145 139 Conversion de la durée en millisecondes;
#X obj 260 350 inlet gain;
#X msg 260 372 \$1 25;
#X obj 260 394 line~;
#X obj 71 428 *~;
#X obj 115 190 inlet transposition;
#X floatatom 115 223 5 0 0 0 - - -, f 5;
#X obj 72 314 line~;
#X text 117 325 Liste "X Y" -> se rend à la valeur X en Y millisecondes
;
#X obj 97 242 /;
#X text 161 213 Altération de la hauteur en divisant la durée;
#X text 161 227 de lecture par un facteur de transposition.;
#X obj 72 75 int;
#X text 107 265 Construit une liste de 2 valeurs;
#X obj 91 467 outlet~;
#X obj 91 53 receive sizeLaugh2;
#X obj 71 354 tabread4~ laugh2;
#X connect 0 0 1 1;
#X connect 1 0 5 0;
#X connect 2 0 3 0;
#X connect 2 1 1 0;
#X connect 2 2 0 0;
#X connect 3 0 4 0;
#X connect 4 0 17 0;
#X connect 5 0 19 0;
#X connect 6 0 22 0;
#X connect 11 0 12 0;
#X connect 12 0 13 0;
#X connect 13 0 14 1;
#X connect 14 0 24 0;
#X connect 15 0 16 0;
#X connect 16 0 19 1;
#X connect 17 0 26 0;
#X connect 19 0 3 1;
#X connect 22 0 2 0;
#X connect 25 0 22 1;
#X connect 26 0 14 0;
#X restore 252 634 pd lecture_simple;
#X obj 368 503 vsl 15 100 0 1 0 0 empty empty Gain 0 -9 0 10 -262144
-1 -1 198 1;
#X obj 310 503 vsl 15 100 0.25 4 0 0 empty empty Transpo 0 -9 0 10
-262144 -1 -1 1629 1;
#X floatatom 310 612 5 0 0 0 - - -, f 5;
#X floatatom 368 612 5 0 0 0 - - -, f 5;
#X text 250 577 go;
#X obj 251 492 sel 1;
#X obj 323 450 loadbang;
#X msg 303 470 0.867;
#X msg 364 468 0.02;
#X obj 252 436 bng 15 250 50 0 empty empty empty 17 7 0 10 -262144
-1 -1;
#X obj 33 204 r smilez1S;
#X floatatom 96 256 5 0 0 0 - - -, f 5;
#X floatatom 140 256 5 0 0 0 - - -, f 5;
#X floatatom 184 256 5 0 0 0 - - -, f 5;
#X floatatom 226 257 5 0 0 0 - - -, f 5;
#X obj 55 304 sel 1;
#X obj 54 331 bng 15 250 50 0 empty empty empty 17 7 0 10 -262144 -1
-1;
#X floatatom 641 201 5 0 0 0 - - -, f 5;
#X floatatom 489 202 5 0 0 0 - - -, f 5;
#X obj 449 220 gate 4;
#X floatatom 425 255 5 0 0 0 - - -, f 5;
#X floatatom 469 255 5 0 0 0 - - -, f 5;
#X floatatom 513 255 5 0 0 0 - - -, f 5;
#X floatatom 555 256 5 0 0 0 - - -, f 5;
#X obj 384 303 sel 1;
#X obj 383 330 bng 15 250 50 0 empty empty empty 17 7 0 10 -262144
-1 -1;
#X obj 490 182 4headsetssmile smilez2;
#X obj 362 203 r smilez2S;
#X obj 128 303 sel 1;
#X obj 127 330 bng 15 250 50 0 empty empty empty 17 7 0 10 -262144
-1 -1;
#X obj 185 302 sel 1;
#X obj 184 329 bng 15 250 50 0 empty empty empty 17 7 0 10 -262144
-1 -1;
#X obj 235 299 sel 1;
#X obj 234 326 bng 15 250 50 0 empty empty empty 17 7 0 10 -262144
-1 -1;
#X obj 444 303 sel 1;
#X obj 443 330 bng 15 250 50 0 empty empty empty 17 7 0 10 -262144
-1 -1;
#X obj 501 302 sel 1;
#X obj 500 329 bng 15 250 50 0 empty empty empty 17 7 0 10 -262144
-1 -1;
#X obj 551 299 sel 1;
#X obj 550 326 bng 15 250 50 0 empty empty empty 17 7 0 10 -262144
-1 -1;
#X obj 439 601 bng 15 250 50 0 empty empty empty 17 7 0 10 -262144
-1 -1;
#N canvas 344 85 565 502 lecture_simple 0;
#X obj 118 116 samplerate~;
#X obj 95 138 /;
#X obj 72 95 t f f b;
#X obj 72 265 pack;
#X msg 72 287 0 \, \$1 \$2;
#X obj 95 160 * 1000;
#X obj 72 35 inlet go;
#X text 197 155 samples / sr * 1000;
#X text 139 288 \$1 et \$2 remplacés par les éléments d'une liste
en entrée;
#X text 117 309 valeur seule -> saut direct à la valeur;
#X text 145 139 Conversion de la durée en millisecondes;
#X obj 260 350 inlet gain;
#X msg 260 372 \$1 25;
#X obj 260 394 line~;
#X obj 71 428 *~;
#X obj 115 190 inlet transposition;
#X floatatom 115 223 5 0 0 0 - - -, f 5;
#X obj 72 314 line~;
#X text 117 325 Liste "X Y" -> se rend à la valeur X en Y millisecondes
;
#X obj 97 242 /;
#X text 161 213 Altération de la hauteur en divisant la durée;
#X text 161 227 de lecture par un facteur de transposition.;
#X obj 72 75 int;
#X text 107 265 Construit une liste de 2 valeurs;
#X obj 91 467 outlet~;
#X obj 91 53 receive sizeLaugh3;
#X obj 71 354 tabread4~ laugh3;
#X connect 0 0 1 1;
#X connect 1 0 5 0;
#X connect 2 0 3 0;
#X connect 2 1 1 0;
#X connect 2 2 0 0;
#X connect 3 0 4 0;
#X connect 4 0 17 0;
#X connect 5 0 19 0;
#X connect 6 0 22 0;
#X connect 11 0 12 0;
#X connect 12 0 13 0;
#X connect 13 0 14 1;
#X connect 14 0 24 0;
#X connect 15 0 16 0;
#X connect 16 0 19 1;
#X connect 17 0 26 0;
#X connect 19 0 3 1;
#X connect 22 0 2 0;
#X connect 25 0 22 1;
#X connect 26 0 14 0;
#X restore 439 639 pd lecture_simple;
#X obj 555 508 vsl 15 100 0 1 0 0 empty empty Gain 0 -9 0 10 -262144
-1 -1 198 1;
#X obj 497 508 vsl 15 100 0.25 4 0 0 empty empty Transpo 0 -9 0 10
-262144 -1 -1 1629 1;
#X floatatom 497 617 5 0 0 0 - - -, f 5;
#X floatatom 555 617 5 0 0 0 - - -, f 5;
#X text 437 582 go;
#X obj 438 497 sel 1;
#X obj 510 455 loadbang;
#X msg 490 475 0.867;
#X msg 551 473 0.02;
#X obj 439 441 bng 15 250 50 0 empty empty empty 17 7 0 10 -262144
-1 -1;
#X obj 615 591 bng 15 250 50 0 empty empty empty 17 7 0 10 -262144
-1 -1;
#N canvas 344 85 565 502 lecture_simple 0;
#X obj 118 116 samplerate~;
#X obj 95 138 /;
#X obj 72 95 t f f b;
#X obj 72 265 pack;
#X msg 72 287 0 \, \$1 \$2;
#X obj 95 160 * 1000;
#X obj 72 35 inlet go;
#X text 197 155 samples / sr * 1000;
#X text 139 288 \$1 et \$2 remplacés par les éléments d'une liste
en entrée;
#X text 117 309 valeur seule -> saut direct à la valeur;
#X text 145 139 Conversion de la durée en millisecondes;
#X obj 260 350 inlet gain;
#X msg 260 373 \$1 25;
#X obj 260 394 line~;
#X obj 71 428 *~;
#X obj 115 190 inlet transposition;
#X floatatom 115 223 5 0 0 0 - - -, f 5;
#X obj 72 314 line~;
#X text 117 325 Liste "X Y" -> se rend à la valeur X en Y millisecondes
;
#X obj 97 242 /;
#X text 161 213 Altération de la hauteur en divisant la durée;
#X text 161 227 de lecture par un facteur de transposition.;
#X obj 72 75 int;
#X text 107 265 Construit une liste de 2 valeurs;
#X obj 91 467 outlet~;
#X obj 91 53 receive sizeLaugh4;
#X obj 71 354 tabread4~ laugh4;
#X connect 0 0 1 1;
#X connect 1 0 5 0;
#X connect 2 0 3 0;
#X connect 2 1 1 0;
#X connect 2 2 0 0;
#X connect 3 0 4 0;
#X connect 4 0 17 0;
#X connect 5 0 19 0;
#X connect 6 0 22 0;
#X connect 11 0 12 0;
#X connect 12 0 13 0;
#X connect 13 0 14 1;
#X connect 14 0 24 0;
#X connect 15 0 16 0;
#X connect 16 0 19 1;
#X connect 17 0 26 0;
#X connect 19 0 3 1;
#X connect 22 0 2 0;
#X connect 25 0 22 1;
#X connect 26 0 14 0;
#X restore 615 629 pd lecture_simple;
#X obj 731 498 vsl 15 100 0 1 0 0 empty empty Gain 0 -9 0 10 -262144
-1 -1 198 1;
#X obj 673 498 vsl 15 100 0.25 4 0 0 empty empty Transpo 0 -9 0 10
-262144 -1 -1 1629 1;
#X floatatom 673 607 5 0 0 0 - - -, f 5;
#X floatatom 731 607 5 0 0 0 - - -, f 5;
#X text 613 572 go;
#X obj 614 487 sel 1;
#X obj 686 445 loadbang;
#X msg 666 465 0.867;
#X msg 727 463 0.02;
#X obj 615 431 bng 15 250 50 0 empty empty empty 17 7 0 10 -262144
-1 -1;
#X connect 0 0 1 0;
#X connect 2 0 5 0;
#X connect 3 0 4 0;
#X connect 4 0 1 1;
#X connect 5 0 1 2;
#X connect 7 0 0 0;
#X connect 8 0 9 0;
#X connect 8 0 10 0;
#X connect 9 0 3 0;
#X connect 10 0 2 0;
#X connect 11 0 7 0;
#X connect 13 0 15 1;
#X connect 14 0 13 0;
#X connect 14 1 12 0;
#X connect 15 0 29 0;
#X connect 15 1 30 0;
#X connect 15 2 31 0;
#X connect 15 3 32 0;
#X connect 16 0 17 0;
#X connect 18 0 21 0;
#X connect 19 0 20 0;
#X connect 20 0 17 1;
#X connect 21 0 17 2;
#X connect 23 0 16 0;
#X connect 24 0 25 0;
#X connect 24 0 26 0;
#X connect 25 0 19 0;
#X connect 26 0 18 0;
#X connect 27 0 23 0;
#X connect 28 0 15 0;
#X connect 29 0 33 0;
#X connect 30 0 46 0;
#X connect 31 0 48 0;
#X connect 32 0 50 0;
#X connect 33 0 34 0;
#X connect 36 0 37 1;
#X connect 37 0 38 0;
#X connect 37 1 39 0;
#X connect 37 2 40 0;
#X connect 37 3 41 0;
#X connect 38 0 42 0;
#X connect 39 0 52 0;
#X connect 40 0 54 0;
#X connect 41 0 56 0;
#X connect 42 0 43 0;
#X connect 44 0 36 0;
#X connect 44 1 35 0;
#X connect 45 0 37 0;
#X connect 46 0 47 0;
#X connect 48 0 49 0;
#X connect 50 0 51 0;
#X connect 52 0 53 0;
#X connect 54 0 55 0;
#X connect 56 0 57 0;
#X connect 58 0 59 0;
#X connect 60 0 63 0;
#X connect 61 0 62 0;
#X connect 62 0 59 1;
#X connect 63 0 59 2;
#X connect 65 0 58 0;
#X connect 66 0 67 0;
#X connect 66 0 68 0;
#X connect 67 0 61 0;
#X connect 68 0 60 0;
#X connect 69 0 65 0;
#X connect 70 0 71 0;
#X connect 72 0 75 0;
#X connect 73 0 74 0;
#X connect 74 0 71 1;
#X connect 75 0 71 2;
#X connect 77 0 70 0;
#X connect 78 0 79 0;
#X connect 78 0 80 0;
#X connect 79 0 73 0;
#X connect 80 0 72 0;
#X connect 81 0 77 0;
#X restore 747 476 pd SMILE;
