#N canvas 0 50 1065 674 12;
#X obj 286 390 outlet;
#X obj 408 244 gate 2;
#X obj 523 238 bng 15 250 50 0 empty empty empty 17 7 0 10 -262144
-1 -1;
#X msg 521 288 1;
#X obj 453 335 expr if ($f1 == 1 \, 1 \, 2);
#X obj 575 282 delay 100;
#X msg 606 301 2;
#X floatatom 432 190 5 0 0 0 - - -;
#X obj 294 342 f;
#X obj 295 296 loadbang;
#X msg 295 319 1;
#X obj 381 97 inlet;
#X obj 521 207 r snappeak;
#X connect 1 0 8 0;
#X connect 2 0 3 0;
#X connect 2 0 5 0;
#X connect 2 0 7 0;
#X connect 3 0 4 0;
#X connect 4 0 1 0;
#X connect 5 0 6 0;
#X connect 6 0 4 0;
#X connect 7 0 1 1;
#X connect 8 0 0 0;
#X connect 9 0 10 0;
#X connect 10 0 8 0;
#X connect 11 0 7 0;
#X connect 12 0 2 0;
