#N canvas 0 50 563 511 12;
#X text 337 167 q;
#X floatatom 242 161 5 0 0 0 - - -;
#X floatatom 316 186 5 0 0 0 - - -;
#X obj 215 234 bp~;
#X obj 215 269 bp~;
#N canvas 463 223 450 300 vol 0;
#X obj 64 74 inlet;
#X obj 31 162 *~;
#X floatatom 65 156 5 0 0 0 - - -;
#X obj 65 130 line;
#X obj 31 188 outlet~;
#X obj 19 49 inlet~;
#X msg 64 100 \$1 50;
#X connect 0 0 6 0;
#X connect 1 0 4 0;
#X connect 2 0 1 1;
#X connect 3 0 2 0;
#X connect 5 0 1 0;
#X connect 6 0 3 0;
#X restore 226 330 pd vol;
#X obj 272 297 r \$1;
#X text 319 300 this is \$0-sN;
#X obj 226 356 outlet~;
#X obj 368 104 inlet Q;
#X obj 258 89 inlet frequency;
#X obj 427 104 loadbang;
#X msg 427 130 100;
#X obj 161 86 r~ \$2;
#X floatatom 272 323 5 0 0 0 - - -;
#X obj 409 154 r \$3;
#X connect 1 0 3 1;
#X connect 1 0 4 1;
#X connect 2 0 3 2;
#X connect 2 0 4 2;
#X connect 3 0 4 0;
#X connect 4 0 5 0;
#X connect 5 0 8 0;
#X connect 6 0 5 1;
#X connect 6 0 14 0;
#X connect 9 0 2 0;
#X connect 10 0 1 0;
#X connect 11 0 12 0;
#X connect 12 0 2 0;
#X connect 12 0 1 0;
#X connect 13 0 3 0;
#X connect 15 0 2 0;
