#N canvas -9 -9 1920 976 12;
#X obj 346 877 snapshot~;
#X msg 377 715 stop;
#X obj 349 741 vline~;
#X text 420 714 "stop" message freezes vline~ at its current value
;
#X msg 523 824 stop;
#X floatatom 454 339 5 0 0 0 - - -;
#X floatatom 606 95 5 0 0 0 - - -;
#X obj 356 850 metro 50;
#X text 597 70 time to stay;
#X obj 447 738 loadbang;
#X obj 609 403 + 1000;
#X floatatom 535 100 5 0 0 0 - - -;
#X msg 372 687 \$1 \$2 \, 0 \$3 \$4;
#X obj 463 381 pack f f f f;
#X text 486 69 ramp-up time;
#X floatatom 697 98 5 0 0 0 - - -;
#X text 702 70 ramp-down time;
#X text 670 406 buffer before reload;
#X obj 611 368 expr $f1 + $f2 + $f3;
#X obj 676 245 change;
#X obj 689 296 bng 15 250 50 0 empty empty empty 17 7 0 10 -262144
-1 -1;
#X obj 527 327 +;
#X obj 834 72 r \$1;
#X obj 836 133 zscale 0 1 0.5 2;
#X obj 841 231 zscale 0 1 0.5 2;
#X obj 840 166 r \$2;
#X obj 905 326 zscale 0 1 0.5 2;
#X obj 849 260 r \$3;
#X obj 542 124 * 1;
#X obj 606 126 * 1;
#X obj 697 130 * 1;
#X obj 781 132 change;
#X obj 781 159 b;
#X obj 783 202 change;
#X obj 783 229 b;
#X obj 792 289 change;
#X obj 792 316 b;
#X obj 1017 42 loadbang;
#X obj 346 925 outlet env;
#X msg 488 262 1;
#X floatatom 879 162 5 0 0 0 - - -;
#X floatatom 808 381 5 0 0 0 - - -;
#X msg 1026 76 1;
#X floatatom 966 367 5 0 0 0 - - -;
#X obj 1159 81 delay 100;
#X obj 842 201 mavg_zscaled_smooth;
#X obj 836 107 mavg_zscaled_smooth;
#X obj 851 295 mavg_zscaled_smooth;
#X obj 527 515 bng 15 250 50 0 empty empty empty 17 7 0 10 -262144
-1 -1;
#X floatatom 521 897 5 0 0 0 - - -;
#X obj 224 127 inlet timeOFF;
#X floatatom 650 443 5 0 0 0 - - -;
#X obj 531 448 t b;
#X obj 548 475 delay 5000 1 msec;
#X floatatom 356 192 5 0 0 0 - - -;
#X msg 548 32 500;
#X obj 243 793 *~;
#X obj 246 932 outlet~;
#X obj 124 151 inlet~ audio;
#X obj 378 62 inlet env;
#X obj 403 149 change;
#X obj 437 205 b;
#X connect 0 0 38 0;
#X connect 0 0 49 0;
#X connect 1 0 2 0;
#X connect 2 0 0 0;
#X connect 2 0 56 1;
#X connect 4 0 7 0;
#X connect 5 0 13 0;
#X connect 5 0 52 0;
#X connect 6 0 29 0;
#X connect 7 0 0 0;
#X connect 9 0 39 0;
#X connect 9 0 7 0;
#X connect 10 0 51 0;
#X connect 10 0 53 1;
#X connect 11 0 28 0;
#X connect 12 0 2 0;
#X connect 13 0 12 0;
#X connect 15 0 30 0;
#X connect 18 0 10 0;
#X connect 18 0 41 0;
#X connect 19 0 20 0;
#X connect 20 0 11 0;
#X connect 21 0 13 3;
#X connect 22 0 46 0;
#X connect 23 0 28 1;
#X connect 23 0 31 0;
#X connect 23 0 40 0;
#X connect 24 0 29 1;
#X connect 24 0 33 0;
#X connect 25 0 45 0;
#X connect 26 0 35 0;
#X connect 26 0 30 1;
#X connect 26 0 43 0;
#X connect 27 0 47 0;
#X connect 28 0 13 1;
#X connect 28 0 21 0;
#X connect 28 0 18 0;
#X connect 29 0 21 1;
#X connect 29 0 18 1;
#X connect 29 0 19 0;
#X connect 30 0 18 2;
#X connect 30 0 19 0;
#X connect 30 0 13 2;
#X connect 31 0 32 0;
#X connect 32 0 11 0;
#X connect 33 0 34 0;
#X connect 34 0 6 0;
#X connect 35 0 36 0;
#X connect 36 0 15 0;
#X connect 37 0 55 0;
#X connect 37 0 44 0;
#X connect 39 0 5 0;
#X connect 42 0 45 1;
#X connect 42 0 46 1;
#X connect 42 0 47 1;
#X connect 44 0 42 0;
#X connect 45 0 24 0;
#X connect 46 0 23 0;
#X connect 47 0 26 0;
#X connect 50 0 10 1;
#X connect 50 0 60 0;
#X connect 52 0 53 0;
#X connect 53 0 48 0;
#X connect 53 0 39 0;
#X connect 54 0 10 1;
#X connect 55 0 11 0;
#X connect 55 0 6 0;
#X connect 55 0 15 0;
#X connect 56 0 57 0;
#X connect 58 0 56 0;
#X connect 59 0 11 0;
#X connect 59 0 6 0;
#X connect 59 0 15 0;
#X connect 60 0 61 0;
#X connect 61 0 18 0;
