#N canvas 505 122 668 474 10;
#X obj 167 23 inlet;
#X obj 306 27 inlet;
#X obj 272 345 outlet;
#X floatatom 227 97 5 0 0 0 - - -, f 5;
#X floatatom 291 97 5 0 0 0 - - -, f 5;
#X obj 226 161 >;
#X floatatom 226 184 5 0 0 0 - - -, f 5;
#X obj 290 127 change;
#X obj 290 147 bng 15 250 50 0 empty empty empty 17 7 0 10 -262144
-1 -1;
#X obj 200 209 expr if ($f1 == 1 \, $f2 \, $f3);
#X floatatom 200 238 5 0 0 0 - - -, f 5;
#X floatatom 407 184 5 0 0 0 - - -, f 5;
#X obj 381 209 expr if ($f1 == 1 \, $f2 \, $f3);
#X floatatom 381 238 5 0 0 0 - - -, f 5;
#X obj 407 161 <;
#X obj 267 304 /;
#X connect 0 0 3 0;
#X connect 1 0 4 0;
#X connect 3 0 5 0;
#X connect 3 0 9 1;
#X connect 3 0 14 0;
#X connect 3 0 12 1;
#X connect 4 0 5 1;
#X connect 4 0 7 0;
#X connect 4 0 9 2;
#X connect 4 0 14 1;
#X connect 4 0 12 2;
#X connect 5 0 6 0;
#X connect 6 0 9 0;
#X connect 7 0 8 0;
#X connect 8 0 3 0;
#X connect 9 0 10 0;
#X connect 10 0 15 0;
#X connect 11 0 12 0;
#X connect 12 0 13 0;
#X connect 13 0 15 1;
#X connect 14 0 11 0;
#X connect 15 0 2 0;
