#N canvas 275 64 1018 760 10;
#X obj 329 228 f;
#X obj 362 229 + 1;
#X floatatom 175 207 5 0 0 0 - - -, f 5;
#X floatatom 317 307 5 0 0 0 - - -, f 5;
#X obj 275 235 bng 15 250 50 0 empty empty empty 17 7 0 10 -262144
-1 -1;
#X floatatom 164 345 5 0 0 0 - - -, f 5;
#X obj 141 303 zscale \$1 \$2 -1 1;
#X obj 174 143 inlet;
#X obj 332 266 mod \$3;
#X obj 243 370 tabwrite \$4;
#X text 559 263 \$1 = lower scale of data \$2 = upper scale of data
\$3 = length of the array \$4 = name of the array;
#X obj 400 420 tgl 15 0 empty empty empty 17 7 0 10 -262144 -1 -1 0
1;
#X floatatom 458 417 5 0 0 0 - - -, f 5;
#X obj 331 137 inlet start;
#X obj 194 179 spigot;
#X obj 250 143 tgl 15 0 empty empty empty 17 7 0 10 -262144 -1 -1 0
1;
#X obj 389 374 expr if ($f1 > 513 \, 0 \, 1);
#X connect 0 0 1 0;
#X connect 0 0 8 0;
#X connect 1 0 0 1;
#X connect 2 0 4 0;
#X connect 2 0 6 0;
#X connect 3 0 9 1;
#X connect 3 0 16 0;
#X connect 4 0 0 0;
#X connect 5 0 9 0;
#X connect 6 0 5 0;
#X connect 7 0 14 0;
#X connect 8 0 3 0;
#X connect 11 0 15 0;
#X connect 13 0 15 0;
#X connect 14 0 2 0;
#X connect 15 0 14 1;
#X connect 16 0 11 0;
#X connect 16 0 12 0;
