#N canvas 448 333 1137 826 16;
#X obj 696 512 adsr~ 10 250 0.3 500;
#X obj 312 653 *~;
#X obj 310 732 outlet~;
#X obj 191 54 inlet midi;
#X obj 191 102 unpack;
#X obj 191 132 mtof;
#X obj 175 533 lfo~ 0.1 250 2500;
#X obj 191 159 sig~;
#X obj 195 208 *~;
#X obj 294 107 loadbang;
#X floatatom 171 500 5 0 0 0 - - -, f 5;
#X obj 857 315 r adsr_ctrl;
#X obj 857 342 unpack f f f f;
#X floatatom 548 406 5 0 0 0 - - -, f 5;
#X obj 548 379 r lfo_speed2;
#X floatatom 209 354 5 0 0 0 - - -, f 5;
#X floatatom 208 385 5 0 0 0 - - -, f 5;
#X obj 94 604 comb~ 5 0.3 0.1;
#X obj 64 422 train~ 500 0.4;
#X obj 380 663 *~;
#X obj 94 604 comb~ 5 0.3 0.1;
#X floatatom 504 504 5 0 0 0 - - -, f 5;
#X floatatom 525 532 5 0 0 0 - - -, f 5;
#X obj 402 571 comb~ 5 1 1 0.4;
#X obj 539 315 osc~;
#X obj 473 349 *~;
#X msg 602 318 \$1 10;
#X obj 602 338 line~;
#X obj 539 294 nbx 4 14 1 1000 1 1 empty moduladora Frequency 0 -8
0 10 -204800 -1 -1 1.56605 256;
#X obj 602 295 nbx 4 14 1 100 1 1 empty indice Depth 0 -8 0 10 -204786
-1 -1 1 256;
#X obj 532 436 lfo~ 0.1 1 250;
#X obj 109 300 *~ 100;
#X obj 38 338 clip~ -1 1;
#X obj 295 149 varalea~ 1000 0.99 1.01;
#X obj 109 267 osc~ 150;
#X floatatom 252 499 5 0 0 0 - - -, f 5;
#X floatatom 316 496 5 0 0 0 - - -, f 5;
#X obj 438 243 lfo~ 0.1 0.1 0.72;
#X obj 409 395 cycle~ 110;
#X obj 379 497 *~ 0.8;
#X obj 172 467 r lfo_speed_train;
#X obj 590 204 r freq_cycle;
#X obj 457 204 r lfo_cycle;
#X obj 636 256 r depth_cycle;
#X connect 0 0 1 1;
#X connect 0 0 19 1;
#X connect 1 0 2 0;
#X connect 3 0 4 0;
#X connect 4 0 5 0;
#X connect 4 1 0 0;
#X connect 5 0 7 0;
#X connect 6 0 17 1;
#X connect 6 0 18 1;
#X connect 7 0 8 0;
#X connect 8 0 38 0;
#X connect 8 0 34 0;
#X connect 9 0 33 0;
#X connect 10 0 6 0;
#X connect 11 0 12 0;
#X connect 12 0 0 1;
#X connect 12 1 0 2;
#X connect 12 2 0 3;
#X connect 12 3 0 4;
#X connect 13 0 30 0;
#X connect 13 0 30 1;
#X connect 13 0 30 2;
#X connect 14 0 13 0;
#X connect 15 0 18 1;
#X connect 16 0 18 2;
#X connect 17 0 1 0;
#X connect 18 0 17 0;
#X connect 19 0 2 0;
#X connect 21 0 23 2;
#X connect 22 0 23 3;
#X connect 23 0 19 0;
#X connect 24 0 25 0;
#X connect 25 0 38 1;
#X connect 26 0 27 0;
#X connect 27 0 25 1;
#X connect 28 0 24 0;
#X connect 29 0 26 0;
#X connect 30 0 23 1;
#X connect 31 0 32 0;
#X connect 32 0 18 0;
#X connect 33 0 8 1;
#X connect 34 0 31 0;
#X connect 35 0 6 1;
#X connect 36 0 6 2;
#X connect 37 0 25 1;
#X connect 38 0 39 0;
#X connect 39 0 23 0;
#X connect 40 0 10 0;
#X connect 41 0 28 0;
#X connect 42 0 37 0;
#X connect 43 0 29 0;
